<?xml version="1.0" encoding="UTF-8" standalone="no"?>
<!-- Created with Inkscape (http://www.inkscape.org/) -->

<svg
   version="1.1"
   id="svg1"
   width="537.73999"
   height="103.22"
   viewBox="0 0 537.73999 103.22"
   xmlns="http://www.w3.org/2000/svg"
   xmlns:svg="http://www.w3.org/2000/svg">
  <defs
     id="defs1" />
  <g
     id="g1">
    <path
       id="path1"
       d="M -9.96277,-38.70807 V 38.70807 H 393.34767 V -38.70807 Z"
       style="fill:#ccccff;fill-opacity:1;fill-rule:nonzero;stroke:none"
       transform="matrix(1.3333333,0,0,-1.3333333,13.284,51.609333)" />
    <path
       id="path2"
       d="M 57.09213,-28.3468 H 162.94711 V 28.34682 H 57.09213 Z"
       style="fill:none;stroke:#000000;stroke-width:0.79701;stroke-linecap:butt;stroke-linejoin:miter;stroke-miterlimit:10;stroke-dasharray:none;stroke-opacity:1"
       transform="matrix(1.3333333,0,0,-1.3333333,13.284,51.609333)" />
    <g
       id="g2"
       aria-label="b←3&#10;2"
       transform="matrix(1.3333333,0,0,1.3333333,127.94133,44.108)">
      <path
         id="path3"
         d="m 3.3164609,-9.596625 c 0.011719,-0.058594 0.035156,-0.140625 0.035156,-0.2109375 0,-0.140625 -0.140625,-0.140625 -0.1640625,-0.140625 -0.011719,0 -0.5390625,0.035156 -0.796875,0.070312 -0.234375,0.011719 -0.4570313,0.035156 -0.7148438,0.058594 -0.3398437,0.023437 -0.4453125,0.035156 -0.4453125,0.2929687 0,0.1523438 0.1523438,0.1523438 0.2929688,0.1523438 0.7265625,0 0.7265625,0.1289062 0.7265625,0.2695312 0,0.09375 -0.1171875,0.515625 -0.1757813,0.7734375 l -0.3398437,1.3710938 c -0.140625,0.5742187 -0.96093751,3.8320312 -1.01953126,4.0898437 -0.0703125,0.3632813 -0.0703125,0.609375 -0.0703125,0.796875 0,1.453125 0.82031246,2.21484375 1.74609376,2.21484375 1.6640625,0 3.3867187,-2.13281245 3.3867187,-4.21874995 0,-1.3125 -0.7382812,-2.25 -1.8164062,-2.25 -0.75,0 -1.4179688,0.6210937 -1.6992188,0.9023437 z m -0.9023437,9.45703125 c -0.46875,0 -0.9609375,-0.3515625 -0.9609375,-1.46484375 0,-0.46875 0.035156,-0.75 0.2929687,-1.7460937 0.046875,-0.1875 0.28125,-1.1132813 0.328125,-1.3007813 0.035156,-0.1054687 0.8789063,-1.3828125 1.8515625,-1.3828125 0.6328125,0 0.9257813,0.6328125 0.9257813,1.3710938 0,0.6914062 -0.4101563,2.3085937 -0.7617188,3.0585937 C 3.7266172,-0.831 3.0703672,-0.13959375 2.4141172,-0.13959375 Z m 0,0"
         style="fill:#000000;fill-opacity:1;fill-rule:nonzero;stroke:none" />
      <path
         id="path4"
         d="m 26.604547,-3.3036562 c 0.257812,0 0.515625,0 0.515625,-0.28125 0,-0.28125 -0.257813,-0.28125 -0.515625,-0.28125 H 15.952203 c 0.785156,-0.609375 1.171875,-1.1953125 1.289063,-1.3828125 0.644531,-0.984375 0.761718,-1.8984375 0.761718,-1.9101563 0,-0.1640625 -0.175781,-0.1640625 -0.28125,-0.1640625 -0.246093,0 -0.269531,0.023437 -0.316406,0.28125 -0.339844,1.40625 -1.183594,2.6015625 -2.800781,3.2695313 -0.164063,0.058594 -0.210938,0.082031 -0.210938,0.1875 0,0.1054687 0.07031,0.1289062 0.210938,0.1875 1.488281,0.6210937 2.449219,1.734375 2.8125,3.3398437 0.03516,0.17578125 0.05859,0.2109375 0.304687,0.2109375 0.105469,0 0.28125,0 0.28125,-0.1640625 0,-0.03515625 -0.128906,-0.9375 -0.726562,-1.8984375 -0.292969,-0.4335937 -0.703125,-0.9257812 -1.324219,-1.3945312 z m 0,0"
         style="fill:#000000;fill-opacity:1;fill-rule:nonzero;stroke:none" />
      <path
         id="path5"
         d="m 38.182672,-5.1435 c -0.246094,0.011719 -0.292969,0.023437 -0.292969,0.1523438 0,0.140625 0.07031,0.140625 0.328125,0.140625 h 0.65625 c 1.21875,0 1.769531,1.0078125 1.769531,2.3789062 0,1.88671875 -0.984375,2.390625 -1.6875,2.390625 -0.679687,0 -1.863281,-0.328125 -2.273437,-1.2773437 0.457031,0.070312 0.867187,-0.1875 0.867187,-0.703125 0,-0.421875 -0.292968,-0.703125 -0.703125,-0.703125 -0.339843,0 -0.714843,0.1992187 -0.714843,0.7382812 0,1.27734375 1.277343,2.33203125 2.871093,2.33203125 1.710938,0 2.964844,-1.31249995 2.964844,-2.75390625 0,-1.3242187 -1.054687,-2.3554687 -2.4375,-2.6015625 1.253906,-0.3515625 2.050781,-1.40625 2.050781,-2.5195312 0,-1.1367188 -1.171875,-1.96875 -2.566406,-1.96875 -1.429687,0 -2.496094,0.8789062 -2.496094,1.921875 0,0.5742187 0.445313,0.6914062 0.667969,0.6914062 0.292969,0 0.644531,-0.2226562 0.644531,-0.6445312 0,-0.4570313 -0.351562,-0.6679688 -0.667968,-0.6679688 -0.08203,0 -0.105469,0 -0.152344,0.023437 0.539062,-0.984375 1.886719,-0.984375 1.96875,-0.984375 0.46875,0 1.394531,0.2226563 1.394531,1.6289063 0,0.2695312 -0.03516,1.078125 -0.457031,1.6875 -0.421875,0.6328125 -0.914063,0.6796875 -1.300781,0.6914062 z m 0,0"
         style="fill:#000000;fill-opacity:1;fill-rule:nonzero;stroke:none" />
      <path
         id="path6"
         d="m 43.836969,-5.9667422 1.054687,-1.03125 c 1.558594,-1.3710937 2.15625,-1.9101562 2.15625,-2.90625 0,-1.1367188 -0.902344,-1.9335938 -2.121094,-1.9335938 -1.125,0 -1.851562,0.914063 -1.851562,1.804688 0,0.5507808 0.492187,0.5507808 0.527344,0.5507808 0.164062,0 0.515625,-0.1171875 0.515625,-0.5273438 0,-0.257812 -0.1875,-0.515625 -0.527344,-0.515625 -0.08203,0 -0.105469,0 -0.128906,0.01172 0.222656,-0.644531 0.761718,-1.019531 1.335937,-1.019531 0.914063,0 1.335938,0.808593 1.335938,1.6289058 0,0.796875 -0.492188,1.5820313 -1.042969,2.203125 l -1.910156,2.1328125 c -0.105469,0.1054688 -0.105469,0.1289063 -0.105469,0.3632813 h 3.691406 l 0.28125,-1.734375 h -0.257812 c -0.04687,0.3046875 -0.117188,0.7382812 -0.210938,0.890625 -0.07031,0.082031 -0.726562,0.082031 -0.949219,0.082031 z m 0,0"
         style="fill:#000000;fill-opacity:1;fill-rule:nonzero;stroke:none" />
    </g>
    <path
       id="path7"
       d="M 4.6169687,-3.3737891 C 4.5115,-3.9948828 4.1013437,-4.5456641 3.3279062,-4.5456641 c -0.609375,0 -1.2539062,0.1523438 -2.0273437,0.9257813 -0.83203125,0.8320312 -0.90234375,1.7578125 -0.90234375,2.0625 0,0.62109374 0.43359375,1.78124999 1.82812495,1.78124999 2.3789063,0 3.4101563,-3.35156249 3.4101563,-4.76953129 0,-1.59375 -0.9257813,-2.5898437 -2.1445313,-2.5898437 -1.453125,0 -1.9101562,1.3007812 -1.9101562,1.5820312 0,0.140625 0.082031,0.3398438 0.375,0.3398438 0.3398437,0 0.5390625,-0.2929688 0.5390625,-0.5273438 0,-0.3398437 -0.3046875,-0.3398437 -0.46875,-0.3398437 0.4453125,-0.7382813 1.1484375,-0.796875 1.4414062,-0.796875 0.7265625,0 1.4179688,0.515625 1.4179688,1.7929687 0,0.3984375 -0.058594,0.9023438 -0.2695313,1.7109375 z M 2.2615,-0.05738281 c -1.1015625,0 -1.1015625,-1.03124999 -1.1015625,-1.12499999 0,-0.2695313 0.2578125,-1.6640625 0.6679687,-2.2617188 0.3984375,-0.5742187 0.8789063,-0.890625 1.5,-0.890625 1.0898438,0 1.1015625,1.1132813 1.1015625,1.3125 0,0.7265625 -0.6328125,2.96484379 -2.1679687,2.96484379 z M 9.7966562,-3.7839453 c -0.1640625,0 -0.3046875,0 -0.4453125,0.140625 -0.1523437,0.1523437 -0.1757812,0.3164062 -0.1757812,0.3867187 0,0.234375 0.1757812,0.3515625 0.3632812,0.3515625 0.2929688,0 0.5625003,-0.2460937 0.5625003,-0.6445312 0,-0.4804688 -0.4687503,-0.8554688 -1.1718753,-0.8554688 -1.3476562,0 -2.671875,1.4296875 -2.671875,2.8359375 0,0.89062504 0.5742188,1.67578129 1.6171875,1.67578129 1.4179688,0 2.2617188,-1.0546875 2.2617188,-1.17187499 0,-0.058594 -0.07031,-0.1289063 -0.128906,-0.1289063 -0.046875,0 -0.070313,0.023437 -0.1289065,0.09375 -0.7851563,0.99609379 -1.875,0.99609379 -1.9921875,0.99609379 -0.6210938,0 -0.890625,-0.4921875 -0.890625,-1.08984379 0,-0.4101562 0.1992187,-1.3710937 0.5390625,-1.9921875 0.3046875,-0.5625 0.8554687,-0.9960937 1.40625,-0.9960937 0.328125,0 0.7148437,0.1289062 0.8554687,0.3984375 z m 0,0"
       style="fill:#0000ff;fill-opacity:1;fill-rule:nonzero;stroke:none"
       aria-label="∂c"
       transform="matrix(1.3333333,0,0,1.3333333,101.73467,60.486667)" />
    <path
       id="path8"
       d="M 0,0 H 11.109"
       style="fill:none;stroke:#0000ff;stroke-width:0.398;stroke-linecap:butt;stroke-linejoin:miter;stroke-miterlimit:10;stroke-dasharray:none;stroke-opacity:1"
       transform="matrix(1.3333333,0,0,-1.3333333,101.09733,63.236)" />
    <g
       id="g8"
       aria-label="∂a&#10;←(2·3)·5"
       transform="matrix(1.3333333,0,0,1.3333333,101.09733,74.614667)">
      <path
         id="path9"
         d="m 4.6174297,-3.3760391 c -0.1054688,-0.6210937 -0.515625,-1.171875 -1.2890625,-1.171875 -0.609375,0 -1.2539063,0.1523438 -2.0273438,0.9257813 -0.83203121,0.8320312 -0.90234371,1.7578125 -0.90234371,2.0625 0,0.62109374 0.43359375,1.78124999 1.82812501,1.78124999 2.3789062,0 3.4101562,-3.35156249 3.4101562,-4.76953129 0,-1.59375 -0.9257812,-2.5898437 -2.1445312,-2.5898437 -1.453125,0 -1.9101563,1.3007812 -1.9101563,1.5820312 0,0.140625 0.082031,0.3398438 0.375,0.3398438 0.3398438,0 0.5390625,-0.2929688 0.5390625,-0.5273438 0,-0.3398437 -0.3046875,-0.3398437 -0.46875,-0.3398437 0.4453125,-0.7382813 1.1484375,-0.796875 1.4414063,-0.796875 0.7265625,0 1.4179687,0.515625 1.4179687,1.7929687 0,0.3984375 -0.058594,0.9023438 -0.2695312,1.7109375 z m -2.3554688,3.31640629 c -1.1015625,0 -1.1015625,-1.03124999 -1.1015625,-1.12499999 0,-0.2695313 0.2578125,-1.6640625 0.6679688,-2.2617188 0.3984375,-0.5742187 0.8789062,-0.890625 1.5,-0.890625 1.0898437,0 1.1015625,1.1132813 1.1015625,1.3125 0,0.7265625 -0.6328125,2.96484379 -2.1679688,2.96484379 z M 9.5627422,-3.7627578 c -0.1757813,-0.375 -0.46875,-0.6445313 -0.9140625,-0.6445313 -1.171875,0 -2.4023438,1.4648438 -2.4023438,2.9179688 0,0.93749999 0.5507813,1.59374999 1.3242188,1.59374999 0.1992187,0 0.703125,-0.03515625 1.3007812,-0.73828125 0.070312,0.41015625 0.421875,0.73828125 0.9023438,0.73828125 0.3515623,0 0.5742183,-0.22265625 0.7382813,-0.5390625 0.164062,-0.36328125 0.292969,-0.97265629 0.292969,-0.99609379 0,-0.09375 -0.08203,-0.09375 -0.117188,-0.09375 -0.09375,0 -0.105469,0.035156 -0.140625,0.1757813 -0.164062,0.64453124 -0.351562,1.24218749 -0.7499998,1.24218749 -0.2695313,0 -0.3046875,-0.2578125 -0.3046875,-0.45703125 0,-0.22265625 0.023437,-0.3046875 0.1289062,-0.73828124 0.1171875,-0.421875 0.1289063,-0.5273438 0.2226563,-0.9023438 l 0.3515628,-1.3945312 c 0.07031,-0.28125 0.07031,-0.2929688 0.07031,-0.3398438 0,-0.1640625 -0.117187,-0.2695312 -0.2812498,-0.2695312 -0.2460938,0 -0.3867188,0.2226562 -0.421875,0.4453125 z m -0.6445313,2.578125 c -0.046875,0.1757812 -0.046875,0.19921874 -0.1992187,0.36328124 -0.4453125,0.55078125 -0.84375,0.71484375 -1.125,0.71484375 -0.5039063,0 -0.6445313,-0.55078125 -0.6445313,-0.93749999 0,-0.5039063 0.328125,-1.7226563 0.5507813,-2.1796875 0.3046875,-0.5976563 0.7617187,-0.9609375 1.1601562,-0.9609375 0.6445313,0 0.7851563,0.8203125 0.7851563,0.8789062 0,0.058594 -0.023437,0.1171875 -0.035156,0.1640625 z m 0,0"
         style="fill:#0000ff;fill-opacity:1;fill-rule:nonzero;stroke:none" />
      <path
         id="path10"
         d="m 29.912352,-8.2539687 c 0.257812,0 0.515625,0 0.515625,-0.28125 0,-0.28125 -0.257813,-0.28125 -0.515625,-0.28125 H 19.260008 c 0.785156,-0.609375 1.171875,-1.1953123 1.289062,-1.3828123 0.644532,-0.984375 0.761719,-1.898438 0.761719,-1.910156 0,-0.164063 -0.175781,-0.164063 -0.28125,-0.164063 -0.246094,0 -0.269531,0.02344 -0.316406,0.28125 -0.339844,1.40625 -1.183594,2.6015625 -2.800781,3.2695313 -0.164063,0.058594 -0.210938,0.082031 -0.210938,0.1875 0,0.1054687 0.07031,0.1289062 0.210938,0.1875 1.488281,0.6210937 2.449218,1.734375 2.8125,3.3398437 0.03516,0.1757813 0.05859,0.2109375 0.304687,0.2109375 0.105469,0 0.28125,0 0.28125,-0.1640625 0,-0.035156 -0.128906,-0.9375 -0.726562,-1.8984375 -0.292969,-0.4335937 -0.703125,-0.9257812 -1.324219,-1.3945312 z m 0,0"
         style="fill:#0000ff;fill-opacity:1;fill-rule:nonzero;stroke:none" />
      <path
         id="path11"
         d="m 40.491453,-1.4688125 c 0,-0.035156 0,-0.070312 -0.246094,-0.3046875 -1.429687,-1.453125 -2.238281,-3.8203125 -2.238281,-6.75 0,-2.777344 0.679688,-5.179687 2.34375,-6.867187 0.140625,-0.128907 0.140625,-0.164063 0.140625,-0.199219 0,-0.09375 -0.07031,-0.117188 -0.128906,-0.117188 -0.1875,0 -1.359375,1.03125 -2.0625,2.4375 -0.738281,1.453125 -1.066406,2.988282 -1.066406,4.746094 0,1.2773438 0.199218,2.9882813 0.949218,4.5234375 0.84375,1.7226563 2.015625,2.6484375 2.179688,2.6484375 0.05859,0 0.128906,-0.023437 0.128906,-0.1171875 z m 7.116211,-5.8945312 h -0.316406 c -0.04687,0.2460937 -0.164063,1.03125 -0.304688,1.265625 -0.105468,0.1289062 -0.914062,0.1289062 -1.347656,0.1289062 h -2.660156 c 0.386719,-0.328125 1.265625,-1.2421875 1.640625,-1.59375 2.179687,-2.0039062 2.988281,-2.7539065 2.988281,-4.1718745 0,-1.652344 -1.3125,-2.753907 -2.976562,-2.753907 -1.664063,0 -2.636719,1.417969 -2.636719,2.648438 0,0.738281 0.632812,0.738281 0.679687,0.738281 0.292969,0 0.667969,-0.210937 0.667969,-0.679687 0,-0.398438 -0.269531,-0.667969 -0.667969,-0.667969 -0.140625,0 -0.164062,0 -0.210937,0.01172 0.28125,-0.972657 1.054687,-1.628907 1.980469,-1.628907 1.21875,0 1.96875,1.007813 1.96875,2.332032 0,1.21875 -0.703125,2.2851558 -1.523438,3.1992183 l -2.894531,3.2460937 v 0.3398438 h 5.238281 z m 0,0"
         style="fill:#0000ff;fill-opacity:1;fill-rule:nonzero;stroke:none" />
      <path
         id="path12"
         d="m 54.498289,-8.5352187 c 0,-0.4101563 -0.339844,-0.7617188 -0.761719,-0.7617188 -0.410156,0 -0.761718,0.3515625 -0.761718,0.7617188 0,0.4101562 0.351562,0.7617187 0.761718,0.7617187 0.421875,0 0.761719,-0.3515625 0.761719,-0.7617187 z m 0,0"
         style="fill:#0000ff;fill-opacity:1;fill-rule:nonzero;stroke:none" />
      <path
         id="path13"
         d="m 61.793211,-10.093812 c -0.246094,0.01172 -0.292969,0.02344 -0.292969,0.1523433 0,0.140625 0.07031,0.140625 0.328125,0.140625 h 0.65625 c 1.21875,0 1.769531,1.0078125 1.769531,2.3789062 0,1.8867188 -0.984375,2.390625 -1.6875,2.390625 -0.679687,0 -1.863281,-0.328125 -2.273437,-1.2773437 0.457031,0.070312 0.867187,-0.1875 0.867187,-0.703125 0,-0.421875 -0.292968,-0.703125 -0.703125,-0.703125 -0.339843,0 -0.714843,0.1992187 -0.714843,0.7382812 0,1.2773438 1.277343,2.3320313 2.871093,2.3320313 1.710938,0 2.964844,-1.3125 2.964844,-2.7539063 0,-1.3242187 -1.054687,-2.3554687 -2.4375,-2.601562 1.253906,-0.351563 2.050781,-1.40625 2.050781,-2.519532 0,-1.136718 -1.171875,-1.96875 -2.566406,-1.96875 -1.429687,0 -2.496094,0.878907 -2.496094,1.921875 0,0.574219 0.445313,0.691407 0.667969,0.691407 0.292969,0 0.644531,-0.222657 0.644531,-0.644532 0,-0.457031 -0.351562,-0.667968 -0.667968,-0.667968 -0.08203,0 -0.105469,0 -0.152344,0.02344 0.539062,-0.984375 1.886719,-0.984375 1.96875,-0.984375 0.46875,0 1.394531,0.222656 1.394531,1.628906 0,0.269532 -0.03516,1.078125 -0.457031,1.6875 -0.421875,0.632813 -0.914063,0.679688 -1.300781,0.691407 z m 8.431641,1.570312 c 0,-1.0898437 -0.140625,-2.871094 -0.949219,-4.535156 -0.84375,-1.710938 -2.015625,-2.648438 -2.179688,-2.648438 -0.05859,0 -0.128906,0.02344 -0.128906,0.117188 0,0.03516 0,0.07031 0.246094,0.316406 1.441406,1.441406 2.238281,3.808594 2.238281,6.7382813 0,2.7773437 -0.667969,5.1796875 -2.332031,6.8671875 -0.152344,0.1289062 -0.152344,0.1640625 -0.152344,0.1992187 0,0.09375 0.07031,0.1171875 0.128906,0.1171875 0.1875,0 1.371094,-1.03125 2.074219,-2.4375 0.726563,-1.4648437 1.054688,-3.0117187 1.054688,-4.734375 z m 0,0"
         style="fill:#0000ff;fill-opacity:1;fill-rule:nonzero;stroke:none" />
      <path
         id="path14"
         d="m 77.827391,-8.5352187 c 0,-0.4101563 -0.339844,-0.7617188 -0.761719,-0.7617188 -0.410156,0 -0.761719,0.3515625 -0.761719,0.7617188 0,0.4101562 0.351563,0.7617187 0.761719,0.7617187 0.421875,0 0.761719,-0.3515625 0.761719,-0.7617187 z m 0,0"
         style="fill:#0000ff;fill-opacity:1;fill-rule:nonzero;stroke:none" />
      <path
         id="path15"
         d="m 84.325437,-13.164125 c 0.609375,0.199219 1.113282,0.210938 1.277344,0.210938 1.617188,0 2.648438,-1.195313 2.648438,-1.394532 0,-0.05859 -0.02344,-0.128906 -0.117188,-0.128906 -0.02344,0 -0.05859,0 -0.1875,0.05859 -0.796875,0.351562 -1.488281,0.386719 -1.863281,0.386719 -0.949219,0 -1.617188,-0.28125 -1.886719,-0.398438 -0.105469,-0.04687 -0.128906,-0.04687 -0.152344,-0.04687 -0.105468,0 -0.105468,0.09375 -0.105468,0.316406 v 4.2656253 c 0,0.2578125 0,0.3398437 0.164062,0.3398437 0.07031,0 0.09375,-0.011719 0.234375,-0.1875 0.398438,-0.585937 1.078125,-0.925781 1.792969,-0.925781 0.761719,0 1.136719,0.7031248 1.242187,0.9374998 0.246094,0.5625 0.257813,1.265625 0.257813,1.8164062 0,0.5390625 0,1.359375 -0.398438,2.0039063 -0.316406,0.515625 -0.878906,0.8789062 -1.5,0.8789062 -0.949218,0 -1.886718,-0.6445312 -2.144531,-1.6992187 0.07031,0.035156 0.164063,0.046875 0.234375,0.046875 0.246094,0 0.632813,-0.140625 0.632813,-0.6328125 0,-0.3984375 -0.28125,-0.6328125 -0.632813,-0.6328125 -0.257812,0 -0.632812,0.1289062 -0.632812,0.6914062 0,1.21875 0.972656,2.6132813 2.566406,2.6132813 1.617187,0 3.046875,-1.3710938 3.046875,-3.1875 0,-1.7109375 -1.148438,-3.1289063 -2.660156,-3.1289063 -0.820313,0 -1.453125,0.363281 -1.816407,0.761719 z m 0,0"
         style="fill:#0000ff;fill-opacity:1;fill-rule:nonzero;stroke:none" />
    </g>
    <path
       id="path16"
       d="M 220.43777,-28.3468 H 326.29275 V 28.34682 H 220.43777 Z"
       style="fill:none;stroke:#000000;stroke-width:0.79701;stroke-linecap:butt;stroke-linejoin:miter;stroke-miterlimit:10;stroke-dasharray:none;stroke-opacity:1"
       transform="matrix(1.3333333,0,0,-1.3333333,13.284,51.609333)" />
    <g
       id="g16"
       aria-label="c←5·9"
       transform="matrix(1.3333333,0,0,1.3333333,337.456,42.52)">
      <path
         id="path17"
         d="m 5.6140547,-5.3909766 c -0.28125,0 -0.4101563,0 -0.609375,0.1640625 -0.082031,0.082031 -0.2460938,0.2929688 -0.2460938,0.5273438 0,0.28125 0.2226563,0.4570312 0.4921875,0.4570312 0.3398438,0 0.7265625,-0.2929687 0.7265625,-0.8671875 0,-0.6796875 -0.65625,-1.21875 -1.640625,-1.21875 -1.8867187,0 -3.76171871,2.0507813 -3.76171871,4.0898438 0,1.25390624 0.77343751,2.37890624 2.23828121,2.37890624 1.9453125,0 3.1875,-1.52343754 3.1875,-1.69921874 0,-0.09375 -0.09375,-0.1640625 -0.1523437,-0.1640625 -0.035156,0 -0.058594,0.011719 -0.1875,0.140625 -0.9140625,1.21874999 -2.2734375,1.44140624 -2.8242188,1.44140624 -0.984375,0 -1.3007812,-0.86718754 -1.3007812,-1.58203124 0,-0.5039063 0.2460937,-1.8867188 0.7617187,-2.8710938 0.375,-0.6679687 1.1484375,-1.4414062 2.0507813,-1.4414062 0.1875,0 0.9726562,0.023437 1.265625,0.6445312 z m 0,0"
         style="fill:#000000;fill-opacity:1;fill-rule:nonzero;stroke:none" />
      <path
         id="path18"
         d="m 25.799602,-3.3050391 c 0.257812,0 0.515625,0 0.515625,-0.28125 0,-0.28125 -0.257813,-0.28125 -0.515625,-0.28125 H 15.147258 c 0.785156,-0.609375 1.171875,-1.1953125 1.289062,-1.3828125 0.644532,-0.984375 0.761719,-1.8984375 0.761719,-1.9101562 0,-0.1640625 -0.175781,-0.1640625 -0.28125,-0.1640625 -0.246094,0 -0.269531,0.023437 -0.316406,0.28125 -0.339844,1.40625 -1.183594,2.6015625 -2.800781,3.2695312 -0.164063,0.058594 -0.210938,0.082031 -0.210938,0.1875 0,0.1054688 0.07031,0.1289063 0.210938,0.1875 1.488281,0.6210938 2.449218,1.734375 2.8125,3.33984379 0.03516,0.17578125 0.05859,0.2109375 0.304687,0.2109375 0.105469,0 0.28125,0 0.28125,-0.1640625 0,-0.03515625 -0.128906,-0.9375 -0.726562,-1.89843749 -0.292969,-0.4335938 -0.703125,-0.9257813 -1.324219,-1.3945313 z m 0,0"
         style="fill:#000000;fill-opacity:1;fill-rule:nonzero;stroke:none" />
      <path
         id="path19"
         d="m 35.699016,-8.2151953 c 0.609375,0.1992187 1.113281,0.2109375 1.277343,0.2109375 1.617188,0 2.648438,-1.1953125 2.648438,-1.3945313 0,-0.058594 -0.02344,-0.1289062 -0.117188,-0.1289062 -0.02344,0 -0.05859,0 -0.1875,0.058594 -0.796875,0.3515625 -1.488281,0.3867188 -1.863281,0.3867188 -0.949219,0 -1.617187,-0.28125 -1.886719,-0.3984375 -0.105468,-0.046875 -0.128906,-0.046875 -0.152343,-0.046875 -0.105469,0 -0.105469,0.09375 -0.105469,0.3164062 v 4.265625 c 0,0.2578125 0,0.3398438 0.164062,0.3398438 0.07031,0 0.09375,-0.011719 0.234375,-0.1875 0.398438,-0.5859375 1.078125,-0.9257813 1.792969,-0.9257813 0.761719,0 1.136719,0.703125 1.242188,0.9375 0.246093,0.5625 0.257812,1.265625 0.257812,1.8164063 0,0.5390625 0,1.359375 -0.398437,2.00390624 -0.316407,0.515625 -0.878907,0.87890625 -1.5,0.87890625 -0.949219,0 -1.886719,-0.64453125 -2.144532,-1.69921879 0.07031,0.035156 0.164063,0.046875 0.234375,0.046875 0.246094,0 0.632813,-0.140625 0.632813,-0.6328125 0,-0.3984375 -0.28125,-0.6328125 -0.632813,-0.6328125 -0.257812,0 -0.632812,0.1289063 -0.632812,0.6914063 0,1.21875 0.972656,2.61328124 2.566406,2.61328124 1.617188,0 3.046875,-1.37109374 3.046875,-3.18750004 0,-1.7109375 -1.148437,-3.1289062 -2.660156,-3.1289062 -0.820313,0 -1.453125,0.3632812 -1.816406,0.7617187 z m 0,0"
         style="fill:#000000;fill-opacity:1;fill-rule:nonzero;stroke:none" />
      <path
         id="path20"
         d="m 47.921672,-3.5862891 c 0,-0.4101562 -0.339844,-0.7617187 -0.761719,-0.7617187 -0.410156,0 -0.761719,0.3515625 -0.761719,0.7617187 0,0.4101563 0.351563,0.7617188 0.761719,0.7617188 0.421875,0 0.761719,-0.3515625 0.761719,-0.7617188 z m 0,0"
         style="fill:#000000;fill-opacity:1;fill-rule:nonzero;stroke:none" />
      <path
         id="path21"
         d="m 58.691203,-4.1722266 c 0,3.38671879 -1.511719,4.08984379 -2.367187,4.08984379 -0.339844,0 -1.101563,-0.046875 -1.464844,-0.55078125 h 0.09375 c 0.09375,0.0351563 0.609375,-0.0585938 0.609375,-0.58593754 0,-0.3164062 -0.210938,-0.5859375 -0.585938,-0.5859375 -0.375,0 -0.597656,0.2460938 -0.597656,0.609375 0,0.89062504 0.714844,1.50000004 1.957031,1.50000004 1.792969,0 3.527344,-1.91015624 3.527344,-5.02734374 0,-3.8554688 -1.605469,-4.8164063 -2.859375,-4.8164063 -1.582031,0 -2.976562,1.3242188 -2.976562,3.2109375 0,1.8984375 1.335937,3.1875 2.765625,3.1875 1.066406,0 1.617187,-0.7734375 1.898437,-1.5117187 z m -1.839844,0.7382813 c -0.902343,0 -1.289062,-0.7265625 -1.417968,-0.9960938 -0.222657,-0.5507812 -0.222657,-1.2304687 -0.222657,-1.8867187 0,-0.796875 0,-1.4882813 0.363282,-2.0742188 0.257812,-0.3867187 0.644531,-0.8085937 1.429687,-0.8085937 0.808594,0 1.230469,0.7265625 1.371094,1.0546875 0.292969,0.703125 0.292969,1.921875 0.292969,2.1328125 0,1.2070312 -0.550782,2.578125 -1.816407,2.578125 z m 0,0"
         style="fill:#000000;fill-opacity:1;fill-rule:nonzero;stroke:none" />
    </g>
    <path
       id="path22"
       d="m 4.6163828,-3.3751719 c -0.1054687,-0.6210937 -0.515625,-1.171875 -1.2890625,-1.171875 -0.609375,0 -1.2539062,0.1523438 -2.0273437,0.9257813 -0.83203129,0.8320312 -0.90234379,1.7578125 -0.90234379,2.0625 0,0.62109373 0.43359375,1.78124998 1.82812499,1.78124998 2.3789063,0 3.4101563,-3.35156248 3.4101563,-4.76953128 0,-1.59375 -0.9257813,-2.5898437 -2.1445313,-2.5898437 -1.453125,0 -1.9101562,1.3007812 -1.9101562,1.5820312 0,0.140625 0.082031,0.3398438 0.375,0.3398438 0.3398437,0 0.5390625,-0.2929688 0.5390625,-0.5273438 0,-0.3398437 -0.3046875,-0.3398437 -0.46875,-0.3398437 0.4453125,-0.7382813 1.1484375,-0.796875 1.4414062,-0.796875 0.7265625,0 1.4179688,0.515625 1.4179688,1.7929687 0,0.3984375 -0.058594,0.9023438 -0.2695313,1.7109375 z m -2.3554687,3.31640628 c -1.1015625,0 -1.1015625,-1.03124998 -1.1015625,-1.12499998 0,-0.2695313 0.2578125,-1.6640625 0.6679687,-2.2617188 0.3984375,-0.5742187 0.8789063,-0.890625 1.5,-0.890625 1.0898438,0 1.1015625,1.1132813 1.1015625,1.3125 0,0.7265625 -0.6328125,2.96484378 -2.1679687,2.96484378 z M 9.7960703,-3.7853281 c -0.1640625,0 -0.3046875,0 -0.4453125,0.140625 -0.1523437,0.1523437 -0.1757812,0.3164062 -0.1757812,0.3867187 0,0.234375 0.1757812,0.3515625 0.3632812,0.3515625 0.2929688,0 0.5625002,-0.2460937 0.5625002,-0.6445312 0,-0.4804688 -0.4687502,-0.8554688 -1.1718752,-0.8554688 -1.3476562,0 -2.671875,1.4296875 -2.671875,2.8359375 0,0.89062503 0.5742188,1.67578128 1.6171875,1.67578128 1.4179688,0 2.2617187,-1.0546875 2.2617187,-1.17187498 0,-0.058594 -0.07031,-0.1289063 -0.128906,-0.1289063 -0.046875,0 -0.070313,0.023437 -0.1289064,0.09375 -0.7851563,0.99609378 -1.875,0.99609378 -1.9921875,0.99609378 -0.6210938,0 -0.890625,-0.4921875 -0.890625,-1.08984378 0,-0.4101562 0.1992187,-1.3710937 0.5390625,-1.9921875 0.3046875,-0.5625 0.8554687,-0.9960937 1.40625,-0.9960937 0.328125,0 0.7148437,0.1289062 0.8554687,0.3984375 z m 0,0"
       style="fill:#0000ff;fill-opacity:1;fill-rule:nonzero;stroke:none"
       aria-label="∂c"
       transform="matrix(1.3333333,0,0,1.3333333,335.43467,58.898667)" />
    <path
       id="path23"
       d="M 0,0 H 10.154"
       style="fill:none;stroke:#0000ff;stroke-width:0.398;stroke-linecap:butt;stroke-linejoin:miter;stroke-miterlimit:10;stroke-dasharray:none;stroke-opacity:1"
       transform="matrix(1.3333333,0,0,-1.3333333,335.43467,61.648)" />
    <g
       id="g23"
       aria-label="∂b&#10;←5·1"
       transform="matrix(1.3333333,0,0,1.3333333,335.45867,73.026667)">
      <path
         id="path24"
         d="m 4.6159609,-3.3744922 c -0.1054687,-0.6210937 -0.515625,-1.171875 -1.2890625,-1.171875 -0.609375,0 -1.2539062,0.1523438 -2.0273437,0.9257813 -0.83203126,0.8320312 -0.90234376,1.7578125 -0.90234376,2.0625 0,0.62109371 0.43359375,1.78124996 1.82812496,1.78124996 2.3789063,0 3.4101563,-3.35156246 3.4101563,-4.76953126 0,-1.59375 -0.9257813,-2.5898437 -2.1445313,-2.5898437 -1.453125,0 -1.9101562,1.3007812 -1.9101562,1.5820312 0,0.140625 0.082031,0.3398438 0.375,0.3398438 0.3398437,0 0.5390625,-0.2929688 0.5390625,-0.5273438 0,-0.3398437 -0.3046875,-0.3398437 -0.46875,-0.3398437 0.4453125,-0.7382813 1.1484375,-0.796875 1.4414062,-0.796875 0.7265625,0 1.4179688,0.515625 1.4179688,1.7929687 0,0.3984375 -0.058594,0.9023438 -0.2695313,1.7109375 z m -2.3554687,3.31640626 c -1.1015625,0 -1.1015625,-1.03124996 -1.1015625,-1.12499996 0,-0.2695313 0.2578125,-1.6640625 0.6679687,-2.2617188 0.3984375,-0.5742187 0.8789063,-0.890625 1.5,-0.890625 1.0898438,0 1.1015625,1.1132813 1.1015625,1.3125 0,0.7265625 -0.6328125,2.96484376 -2.1679687,2.96484376 z M 8.2253359,-6.8080859 c 0,0 0,-0.1054688 -0.1289062,-0.1054688 -0.2226563,0 -0.9492188,0.082031 -1.21875,0.1054688 -0.070312,0 -0.1875,0.011719 -0.1875,0.1992187 0,0.1171875 0.09375,0.1171875 0.2460937,0.1171875 0.46875,0 0.4921875,0.070312 0.4921875,0.1640625 0,0.070312 -0.082031,0.4101563 -0.140625,0.6210938 l -0.8085937,3.2460937 c -0.1289063,0.5039063 -0.1640625,0.65625 -0.1640625,1.0078125 0,0.94921876 0.5273437,1.55859376 1.265625,1.55859376 1.171875,0 2.4023437,-1.47656246 2.4023437,-2.91796876 0,-0.9023437 -0.5273437,-1.59375 -1.3242187,-1.59375 -0.4570313,0 -0.8671875,0.2929688 -1.171875,0.5976563 z m -0.9375,3.7734375 c 0.058594,-0.2226563 0.058594,-0.2460938 0.1523438,-0.3515625 0.4921875,-0.6445313 0.9375,-0.796875 1.1953125,-0.796875 0.3632812,0 0.6328125,0.2929687 0.6328125,0.9375 0,0.5859375 -0.328125,1.734375 -0.515625,2.109375 -0.328125,0.66796871 -0.7851563,1.03124996 -1.171875,1.03124996 -0.3398438,0 -0.6679688,-0.26953125 -0.6679688,-1.00781246 0,-0.1875 0,-0.3867188 0.1640625,-1.0078125 z m 0,0"
         style="fill:#0000ff;fill-opacity:1;fill-rule:nonzero;stroke:none" />
      <path
         id="path25"
         d="m 30.698969,-8.2524219 c 0.257812,0 0.515625,0 0.515625,-0.28125 0,-0.28125 -0.257813,-0.28125 -0.515625,-0.28125 H 20.046625 c 0.785156,-0.609375 1.171875,-1.1953121 1.289063,-1.3828121 0.644531,-0.984375 0.761718,-1.898438 0.761718,-1.910157 0,-0.164062 -0.175781,-0.164062 -0.28125,-0.164062 -0.246093,0 -0.269531,0.02344 -0.316406,0.28125 -0.339844,1.40625 -1.183594,2.6015624 -2.800781,3.2695311 -0.164063,0.058594 -0.210938,0.082031 -0.210938,0.1875 0,0.1054688 0.07031,0.1289063 0.210938,0.1875 1.488281,0.6210938 2.449219,1.734375 2.8125,3.3398438 0.03516,0.1757812 0.05859,0.2109375 0.304687,0.2109375 0.105469,0 0.28125,0 0.28125,-0.1640625 0,-0.035156 -0.128906,-0.9375 -0.726562,-1.8984375 -0.292969,-0.4335938 -0.703125,-0.9257813 -1.324219,-1.3945313 z m 0,0"
         style="fill:#0000ff;fill-opacity:1;fill-rule:nonzero;stroke:none" />
      <path
         id="path26"
         d="m 40.214594,-13.162578 c 0.609375,0.199219 1.113281,0.210937 1.277344,0.210937 1.617187,0 2.648437,-1.195312 2.648437,-1.394531 0,-0.05859 -0.02344,-0.128906 -0.117187,-0.128906 -0.02344,0 -0.05859,0 -0.1875,0.05859 -0.796875,0.351562 -1.488282,0.386718 -1.863282,0.386718 -0.949218,0 -1.617187,-0.28125 -1.886718,-0.398437 -0.105469,-0.04687 -0.128907,-0.04687 -0.152344,-0.04687 -0.105469,0 -0.105469,0.09375 -0.105469,0.316406 v 4.2656251 c 0,0.2578125 0,0.3398438 0.164063,0.3398438 0.07031,0 0.09375,-0.011719 0.234375,-0.1875 0.398437,-0.5859379 1.078125,-0.9257809 1.792968,-0.9257809 0.761719,0 1.136719,0.7031246 1.242188,0.9374996 0.246094,0.5625 0.257812,1.265625 0.257812,1.8164063 0,0.5390625 0,1.359375 -0.398437,2.0039062 -0.316406,0.515625 -0.878906,0.8789063 -1.5,0.8789063 -0.949219,0 -1.886719,-0.6445313 -2.144531,-1.6992188 0.07031,0.035156 0.164062,0.046875 0.234375,0.046875 0.246093,0 0.632812,-0.140625 0.632812,-0.6328125 0,-0.3984375 -0.28125,-0.6328125 -0.632812,-0.6328125 -0.257813,0 -0.632813,0.1289063 -0.632813,0.6914063 0,1.21875 0.972656,2.6132812 2.566406,2.6132812 1.617188,0 3.046875,-1.3710937 3.046875,-3.1875 0,-1.7109375 -1.148437,-3.1289061 -2.660156,-3.1289061 -0.820312,0 -1.453125,0.363281 -1.816406,0.761719 z m 0,0"
         style="fill:#0000ff;fill-opacity:1;fill-rule:nonzero;stroke:none" />
      <path
         id="path27"
         d="m 52.284906,-8.5336719 c 0,-0.4101562 -0.339843,-0.7617187 -0.761718,-0.7617187 -0.410157,0 -0.761719,0.3515625 -0.761719,0.7617187 0,0.4101563 0.351562,0.7617188 0.761719,0.7617188 0.421875,0 0.761718,-0.3515625 0.761718,-0.7617188 z m 0,0"
         style="fill:#0000ff;fill-opacity:1;fill-rule:nonzero;stroke:none" />
      <path
         id="path28"
         d="m 61.785883,-14.146953 c 0,-0.328125 0,-0.339844 -0.292969,-0.339844 -0.339844,0.386719 -1.066406,0.914063 -2.542969,0.914063 v 0.421875 c 0.339844,0 1.054688,0 1.839844,-0.375 v 7.4765621 c 0,0.515625 -0.04687,0.6914063 -1.300781,0.6914063 h -0.445313 v 0.4101562 c 0.386719,-0.023437 1.78125,-0.023437 2.25,-0.023437 0.46875,0 1.851563,0 2.238282,0.023437 v -0.4101562 h -0.445313 c -1.265625,0 -1.300781,-0.1757813 -1.300781,-0.6914063 z m 0,0"
         style="fill:#0000ff;fill-opacity:1;fill-rule:nonzero;stroke:none" />
    </g>
    <path
       id="path29"
       d="M 0,0 H 55.89662"
       style="fill:none;stroke:#000000;stroke-width:0.79701;stroke-linecap:butt;stroke-linejoin:miter;stroke-miterlimit:10;stroke-dasharray:none;stroke-opacity:1"
       transform="matrix(1.3333333,0,0,-1.3333333,13.284,44.967493)" />
    <path
       id="path30"
       d="M -2.55046,3.11095 C -2.0845,1.24435 -1.04614,0.36295 0,0 -1.04614,-0.36295 -2.0845,-1.24435 -2.55046,-3.11095"
       style="fill:none;stroke:#000000;stroke-width:0.79701;stroke-linecap:round;stroke-linejoin:round;stroke-miterlimit:10;stroke-dasharray:none;stroke-opacity:1"
       transform="matrix(1.3333333,0,0,-1.3333333,88.34416,44.967493)" />
    <g
       id="g30"
       aria-label="a=3"
       transform="matrix(1.3333333,0,0,1.3333333,28.884,40.008827)">
      <path
         id="path31"
         d="m 4.3116094,-1.7116981 c -0.070312,0.2460937 -0.070312,0.28125 -0.2695313,0.5507812 -0.3164062,0.39843753 -0.9492187,1.01953128 -1.6171875,1.01953128 -0.5859375,0 -0.9140625,-0.5390625 -0.9140625,-1.38281248 0,-0.7851563 0.4335938,-2.390625 0.7148438,-3 0.4804687,-0.9960938 1.1601562,-1.5117188 1.7226562,-1.5117188 0.9375,0 1.125,1.171875 1.125,1.2890625 0,0.011719 -0.035156,0.1992188 -0.058594,0.2226563 z m 0.9257812,-3.6679688 c -0.1640625,-0.375 -0.5507812,-0.9492187 -1.2890625,-0.9492187 -1.6289062,0 -3.37499998,2.0976562 -3.37499998,4.21875 0,1.41796873 0.83203128,2.24999998 1.80468748,2.24999998 0.796875,0 1.4648438,-0.609375 1.8632813,-1.08984375 0.1523437,0.84375 0.8203125,1.08984375 1.2539062,1.08984375 0.4335938,0 0.7734375,-0.2578125 1.03125,-0.7734375 0.234375,-0.48046878 0.4335938,-1.35937498 0.4335938,-1.41796878 0,-0.070312 -0.058594,-0.1289062 -0.1523438,-0.1289062 -0.1289062,0 -0.140625,0.070312 -0.1992187,0.28125 -0.2109375,0.8554687 -0.4804688,1.75781248 -1.078125,1.75781248 -0.4101563,0 -0.4335938,-0.375 -0.4335938,-0.66796875 0,-0.32812503 0.035156,-0.48046873 0.1640625,-1.04296873 0.1054688,-0.3515625 0.1757813,-0.6679688 0.2929688,-1.0898438 0.5273437,-2.15625 0.65625,-2.671875 0.65625,-2.7539062 0,-0.1992188 -0.1523438,-0.3632813 -0.375,-0.3632813 -0.4570313,0 -0.5742188,0.5039063 -0.5976563,0.6796875 z m 0,0"
         style="fill:#000000;fill-opacity:1;fill-rule:nonzero;stroke:none" />
      <path
         id="path32"
         d="m 21.037195,-4.6531044 c 0.199219,0 0.457032,0 0.457032,-0.2578125 0,-0.2695312 -0.234375,-0.2695312 -0.457032,-0.2695312 h -8.449218 c -0.199219,0 -0.457032,0 -0.457032,0.2578125 0,0.2695312 0.246094,0.2695312 0.457032,0.2695312 z m 0,2.671875 c 0.199219,0 0.457032,0 0.457032,-0.2578125 0,-0.2695312 -0.234375,-0.2695312 -0.457032,-0.2695312 h -8.449218 c -0.199219,0 -0.457032,0 -0.457032,0.2578125 0,0.2695312 0.246094,0.2695312 0.457032,0.2695312 z m 7.872071,-3.1640625 c -0.246094,0.011719 -0.292969,0.023437 -0.292969,0.1523438 0,0.140625 0.07031,0.140625 0.328125,0.140625 h 0.65625 c 1.21875,0 1.769531,1.0078125 1.769531,2.3789062 0,1.88671878 -0.984375,2.39062503 -1.6875,2.39062503 -0.679687,0 -1.863281,-0.328125 -2.273437,-1.27734373 0.457031,0.070312 0.867187,-0.1875 0.867187,-0.703125 0,-0.421875 -0.292969,-0.703125 -0.703125,-0.703125 -0.339844,0 -0.714844,0.1992187 -0.714844,0.7382812 0,1.27734378 1.277344,2.33203128 2.871094,2.33203128 1.710938,0 2.964844,-1.31249998 2.964844,-2.75390628 0,-1.3242187 -1.054688,-2.3554687 -2.4375,-2.6015625 1.253906,-0.3515625 2.050781,-1.40625 2.050781,-2.5195312 0,-1.1367188 -1.171875,-1.96875 -2.566406,-1.96875 -1.429688,0 -2.496094,0.8789062 -2.496094,1.921875 0,0.5742187 0.445313,0.6914062 0.667969,0.6914062 0.292969,0 0.644531,-0.2226562 0.644531,-0.6445312 0,-0.4570313 -0.351562,-0.6679688 -0.667969,-0.6679688 -0.08203,0 -0.105468,0 -0.152343,0.023437 0.539062,-0.984375 1.886718,-0.984375 1.96875,-0.984375 0.46875,0 1.394531,0.2226563 1.394531,1.6289063 0,0.2695312 -0.03516,1.078125 -0.457031,1.6875 -0.421875,0.6328125 -0.914063,0.6796875 -1.300782,0.6914062 z m 0,0"
         style="fill:#000000;fill-opacity:1;fill-rule:nonzero;stroke:none" />
    </g>
    <path
       id="path33"
       d="m 163.34563,0 h 55.89662"
       style="fill:none;stroke:#000000;stroke-width:0.79701;stroke-linecap:butt;stroke-linejoin:miter;stroke-miterlimit:10;stroke-dasharray:none;stroke-opacity:1"
       transform="matrix(1.3333333,0,0,-1.3333333,13.284,44.967493)" />
    <path
       id="path34"
       d="M -2.55046,3.11095 C -2.0845,1.24435 -1.04614,0.36295 0,0 -1.04614,-0.36295 -2.0845,-1.24435 -2.55046,-3.11095"
       style="fill:none;stroke:#000000;stroke-width:0.79701;stroke-linecap:round;stroke-linejoin:round;stroke-miterlimit:10;stroke-dasharray:none;stroke-opacity:1"
       transform="matrix(1.3333333,0,0,-1.3333333,306.13835,44.967493)" />
    <g
       id="g34"
       aria-label="b=9"
       transform="matrix(1.3333333,0,0,1.3333333,247.60933,40.008827)">
      <path
         id="path35"
         d="m 3.3164375,-9.5984169 c 0.011719,-0.058594 0.035156,-0.140625 0.035156,-0.2109375 0,-0.140625 -0.140625,-0.140625 -0.1640625,-0.140625 -0.011719,0 -0.5390625,0.035156 -0.796875,0.070312 -0.234375,0.011719 -0.4570313,0.035156 -0.7148438,0.058594 -0.3398437,0.023437 -0.4453125,0.035156 -0.4453125,0.2929687 0,0.1523438 0.1523438,0.1523438 0.2929688,0.1523438 0.7265625,0 0.7265625,0.1289062 0.7265625,0.2695312 0,0.09375 -0.1171875,0.515625 -0.1757813,0.7734375 L 1.734406,-6.9616984 c -0.140625,0.5742187 -0.96093755,3.8320312 -1.0195313,4.0898437 -0.0703125,0.3632813 -0.0703125,0.609375 -0.0703125,0.796875 0,1.45312503 0.8203125,2.21484378 1.7460938,2.21484378 1.6640625,0 3.3867187,-2.13281248 3.3867187,-4.21874998 0,-1.3125 -0.7382812,-2.25 -1.8164062,-2.25 -0.75,0 -1.4179688,0.6210937 -1.6992188,0.9023437 z m -0.9023437,9.45703128 c -0.46875,0 -0.9609375,-0.3515625 -0.9609375,-1.46484378 0,-0.46875 0.035156,-0.75 0.2929687,-1.7460937 0.046875,-0.1875 0.28125,-1.1132813 0.328125,-1.3007813 0.035156,-0.1054687 0.8789063,-1.3828125 1.8515625,-1.3828125 0.6328125,0 0.9257813,0.6328125 0.9257813,1.3710938 0,0.6914062 -0.4101563,2.3085937 -0.7617188,3.0585937 -0.3632812,0.77343753 -1.0195312,1.46484378 -1.6757812,1.46484378 z m 0,0"
         style="fill:#000000;fill-opacity:1;fill-rule:nonzero;stroke:none" />
      <path
         id="path36"
         d="m 19.637727,-4.6531044 c 0.199218,0 0.457031,0 0.457031,-0.2578125 0,-0.2695312 -0.234375,-0.2695312 -0.457031,-0.2695312 h -8.449219 c -0.199219,0 -0.457031,0 -0.457031,0.2578125 0,0.2695312 0.246093,0.2695312 0.457031,0.2695312 z m 0,2.671875 c 0.199218,0 0.457031,0 0.457031,-0.2578125 0,-0.2695312 -0.234375,-0.2695312 -0.457031,-0.2695312 h -8.449219 c -0.199219,0 -0.457031,0 -0.457031,0.2578125 0,0.2695312 0.246093,0.2695312 0.457031,0.2695312 z m 10.482421,-2.1914062 c 0,3.38671873 -1.511718,4.08984373 -2.367187,4.08984373 -0.339844,0 -1.101563,-0.046875 -1.464844,-0.55078125 h 0.09375 c 0.09375,0.0351563 0.609375,-0.0585938 0.609375,-0.58593748 0,-0.3164063 -0.210937,-0.5859375 -0.585937,-0.5859375 -0.375,0 -0.597657,0.2460937 -0.597657,0.609375 0,0.89062498 0.714844,1.49999998 1.957032,1.49999998 1.792968,0 3.527343,-1.91015628 3.527343,-5.02734378 0,-3.8554687 -1.605468,-4.8164062 -2.859375,-4.8164062 -1.582031,0 -2.976562,1.3242187 -2.976562,3.2109375 0,1.8984375 1.335937,3.1875 2.765625,3.1875 1.066406,0 1.617187,-0.7734375 1.898437,-1.5117188 z m -1.839843,0.7382812 c -0.902344,0 -1.289063,-0.7265625 -1.417969,-0.9960937 -0.222656,-0.5507813 -0.222656,-1.2304688 -0.222656,-1.8867188 0,-0.796875 0,-1.4882812 0.363281,-2.0742187 0.257812,-0.3867188 0.644531,-0.8085938 1.429687,-0.8085938 0.808594,0 1.230469,0.7265625 1.371094,1.0546875 0.292969,0.703125 0.292969,1.921875 0.292969,2.1328125 0,1.2070313 -0.550781,2.578125 -1.816406,2.578125 z m 0,0"
         style="fill:#000000;fill-opacity:1;fill-rule:nonzero;stroke:none" />
    </g>
    <path
       id="path37"
       d="m 326.69127,0 h 55.89662"
       style="fill:none;stroke:#000000;stroke-width:0.79701;stroke-linecap:butt;stroke-linejoin:miter;stroke-miterlimit:10;stroke-dasharray:none;stroke-opacity:1"
       transform="matrix(1.3333333,0,0,-1.3333333,13.284,44.967493)" />
    <path
       id="path38"
       d="M -2.55046,3.11095 C -2.0845,1.24435 -1.04614,0.36295 0,0 -1.04614,-0.36295 -2.0845,-1.24435 -2.55046,-3.11095"
       style="fill:none;stroke:#000000;stroke-width:0.79701;stroke-linecap:round;stroke-linejoin:round;stroke-miterlimit:10;stroke-dasharray:none;stroke-opacity:1"
       transform="matrix(1.3333333,0,0,-1.3333333,523.93253,44.967493)" />
    <g
       id="g38"
       aria-label="c=45"
       transform="matrix(1.3333333,0,0,1.3333333,460.66933,40.008827)">
      <path
         id="path39"
         d="m 5.6122578,-5.3913856 c -0.28125,0 -0.4101562,0 -0.609375,0.1640625 -0.082031,0.082031 -0.2460937,0.2929687 -0.2460937,0.5273437 0,0.28125 0.2226562,0.4570313 0.4921875,0.4570313 0.3398437,0 0.7265625,-0.2929688 0.7265625,-0.8671875 0,-0.6796875 -0.65625,-1.21875 -1.640625,-1.21875 -1.8867188,0 -3.76171879,2.0507812 -3.76171879,4.0898437 0,1.25390628 0.77343749,2.37890628 2.23828129,2.37890628 1.9453125,0 3.1875,-1.52343748 3.1875,-1.69921878 0,-0.09375 -0.09375,-0.1640625 -0.1523438,-0.1640625 -0.035156,0 -0.058594,0.011719 -0.1875,0.140625 -0.9140625,1.21875003 -2.2734375,1.44140628 -2.8242187,1.44140628 -0.984375,0 -1.3007813,-0.86718748 -1.3007813,-1.58203128 0,-0.5039062 0.2460938,-1.8867187 0.7617188,-2.8710937 0.375,-0.6679688 1.1484375,-1.4414063 2.0507812,-1.4414063 0.1875,0 0.9726563,0.023437 1.265625,0.6445313 z m 0,0"
         style="fill:#000000;fill-opacity:1;fill-rule:nonzero;stroke:none" />
      <path
         id="path40"
         d="m 19.709914,-4.6531044 c 0.199219,0 0.457031,0 0.457031,-0.2578125 0,-0.2695312 -0.234375,-0.2695312 -0.457031,-0.2695312 h -8.449219 c -0.199218,0 -0.457031,0 -0.457031,0.2578125 0,0.2695312 0.246094,0.2695312 0.457031,0.2695312 z m 0,2.671875 c 0.199219,0 0.457031,0 0.457031,-0.2578125 0,-0.2695312 -0.234375,-0.2695312 -0.457031,-0.2695312 h -8.449219 c -0.199218,0 -0.457031,0 -0.457031,0.2578125 0,0.2695312 0.246094,0.2695312 0.457031,0.2695312 z m 10.415039,-7.359375 c 0,-0.2695312 0,-0.3398437 -0.199219,-0.3398437 -0.117187,0 -0.164062,0 -0.28125,0.1640625 l -4.3125,6.703125 v 0.421875 h 3.773438 v 1.3007812 c 0,0.52734378 -0.02344,0.67968753 -1.078125,0.67968753 h -0.28125 v 0.410156245 c 0.328125,-0.023437495 1.464844,-0.023437495 1.863281,-0.023437495 0.398438,0 1.546875,0 1.875,0.023437495 V -0.41091687 h -0.28125 c -1.03125,0 -1.078125,-0.15234375 -1.078125,-0.67968753 v -1.3007812 h 1.441406 v -0.421875 h -1.441406 z m -0.949219,1.125 v 5.4023438 h -3.480468 z m 4.634766,0 c 0.609375,0.1992188 1.113281,0.2109375 1.277344,0.2109375 1.617187,0 2.648437,-1.1953125 2.648437,-1.3945312 0,-0.058594 -0.02344,-0.1289063 -0.117187,-0.1289063 -0.02344,0 -0.05859,0 -0.1875,0.058594 -0.796875,0.3515625 -1.488281,0.3867187 -1.863281,0.3867187 -0.949219,0 -1.617188,-0.28125 -1.886719,-0.3984375 -0.105469,-0.046875 -0.128906,-0.046875 -0.152344,-0.046875 -0.105469,0 -0.105469,0.09375 -0.105469,0.3164063 v 4.265625 c 0,0.2578125 0,0.3398437 0.164063,0.3398437 0.07031,0 0.09375,-0.011719 0.234375,-0.1875 0.398437,-0.5859375 1.078125,-0.9257812 1.792969,-0.9257812 0.761718,0 1.136718,0.703125 1.242187,0.9375 0.246094,0.5625 0.257813,1.265625 0.257813,1.8164062 0,0.5390625 0,1.359375 -0.398438,2.00390628 -0.316406,0.515625 -0.878906,0.87890625 -1.5,0.87890625 -0.949219,0 -1.886719,-0.64453125 -2.144531,-1.69921873 0.07031,0.035156 0.164062,0.046875 0.234375,0.046875 0.246094,0 0.632812,-0.140625 0.632812,-0.6328125 0,-0.3984375 -0.28125,-0.6328125 -0.632812,-0.6328125 -0.257813,0 -0.632813,0.1289062 -0.632813,0.6914062 0,1.21875 0.972657,2.61328128 2.566407,2.61328128 1.617187,0 3.046875,-1.37109378 3.046875,-3.18749998 0,-1.7109375 -1.148438,-3.1289063 -2.660157,-3.1289063 -0.820312,0 -1.453125,0.3632813 -1.816406,0.7617188 z m 0,0"
         style="fill:#000000;fill-opacity:1;fill-rule:nonzero;stroke:none" />
    </g>
    <path
       id="path41"
       d="M 383.3849,0 H 327.48828"
       style="fill:none;stroke:#0000ff;stroke-width:0.79701;stroke-linecap:butt;stroke-linejoin:miter;stroke-miterlimit:10;stroke-dasharray:none;stroke-opacity:1"
       transform="matrix(1.3333333,0,0,-1.3333333,13.284,58.251173)" />
    <path
       id="path42"
       d="M -2.55046,3.11095 C -2.0845,1.24435 -1.04614,0.36295 0,0 -1.04614,-0.36295 -2.0845,-1.24435 -2.55046,-3.11095"
       style="fill:none;stroke:#0000ff;stroke-width:0.79701;stroke-linecap:round;stroke-linejoin:round;stroke-miterlimit:10;stroke-dasharray:none;stroke-opacity:1"
       transform="matrix(-1.3333333,0,0,1.3333333,449.40369,58.251173)" />
    <path
       id="path43"
       d="m 4.6171484,-3.3761847 c -0.1054687,-0.6210937 -0.515625,-1.171875 -1.2890625,-1.171875 -0.609375,0 -1.2539062,0.1523438 -2.0273437,0.9257813 -0.83203126,0.8320312 -0.90234376,1.7578125 -0.90234376,2.0625 0,0.62109371 0.43359375,1.78124996 1.82812496,1.78124996 2.3789063,0 3.4101563,-3.35156246 3.4101563,-4.76953126 0,-1.59375 -0.9257813,-2.5898437 -2.1445313,-2.5898437 -1.453125,0 -1.9101562,1.3007812 -1.9101562,1.5820312 0,0.140625 0.082031,0.3398438 0.375,0.3398438 0.3398437,0 0.5390625,-0.2929688 0.5390625,-0.5273438 0,-0.3398437 -0.3046875,-0.3398437 -0.46875,-0.3398437 0.4453125,-0.7382813 1.1484375,-0.796875 1.4414062,-0.796875 0.7265625,0 1.4179688,0.515625 1.4179688,1.7929687 0,0.3984375 -0.058594,0.9023438 -0.2695313,1.7109375 z m -2.3554687,3.31640626 c -1.1015625,0 -1.1015625,-1.03124996 -1.1015625,-1.12499996 0,-0.2695313 0.2578125,-1.6640625 0.6679687,-2.2617188 0.3984375,-0.5742187 0.8789063,-0.890625 1.5,-0.890625 1.0898438,0 1.1015625,1.1132813 1.1015625,1.3125 0,0.7265625 -0.6328125,2.96484376 -2.1679687,2.96484376 z M 9.7968359,-3.7863409 c -0.1640625,0 -0.3046875,0 -0.4453125,0.140625 -0.1523437,0.1523437 -0.1757812,0.3164062 -0.1757812,0.3867187 0,0.234375 0.1757812,0.3515625 0.3632812,0.3515625 0.2929688,0 0.5624996,-0.2460937 0.5624996,-0.6445312 0,-0.4804688 -0.4687496,-0.8554688 -1.1718746,-0.8554688 -1.3476562,0 -2.671875,1.4296875 -2.671875,2.8359375 0,0.89062501 0.5742188,1.67578126 1.6171875,1.67578126 1.4179688,0 2.2617191,-1.0546875 2.2617191,-1.17187496 0,-0.058594 -0.07031,-0.1289063 -0.128907,-0.1289063 -0.046875,0 -0.070312,0.023437 -0.1289058,0.09375 -0.7851563,0.99609376 -1.875,0.99609376 -1.9921875,0.99609376 -0.6210938,0 -0.890625,-0.4921875 -0.890625,-1.08984376 0,-0.4101562 0.1992187,-1.3710937 0.5390625,-1.9921875 0.3046875,-0.5625 0.8554687,-0.9960937 1.40625,-0.9960937 0.328125,0 0.7148437,0.1289062 0.8554687,0.3984375 z m 0,0"
       style="fill:#0000ff;fill-opacity:1;fill-rule:nonzero;stroke:none"
       aria-label="∂c"
       transform="matrix(1.3333333,0,0,1.3333333,462.61333,72.435173)" />
    <path
       id="path44"
       d="M 0,0 H 10.154"
       style="fill:none;stroke:#0000ff;stroke-width:0.398;stroke-linecap:butt;stroke-linejoin:miter;stroke-miterlimit:10;stroke-dasharray:none;stroke-opacity:1"
       transform="matrix(1.3333333,0,0,-1.3333333,462.61333,75.184507)" />
    <g
       id="g44"
       aria-label="∂c&#10;=1"
       transform="matrix(1.3333333,0,0,1.3333333,462.61333,86.563173)">
      <path
         id="path45"
         d="M 4.6171484,-3.375505 C 4.5116797,-3.9965987 4.1015234,-4.54738 3.3280859,-4.54738 c -0.609375,0 -1.2539062,0.1523438 -2.0273437,0.9257813 -0.83203126,0.8320312 -0.90234376,1.7578125 -0.90234376,2.0625 0,0.6210937 0.43359375,1.78124995 1.82812496,1.78124995 2.3789063,0 3.4101563,-3.35156245 3.4101563,-4.76953125 0,-1.59375 -0.9257813,-2.5898437 -2.1445313,-2.5898437 -1.453125,0 -1.9101562,1.3007812 -1.9101562,1.5820312 0,0.140625 0.082031,0.3398438 0.375,0.3398438 0.3398437,0 0.5390625,-0.2929688 0.5390625,-0.5273438 0,-0.3398437 -0.3046875,-0.3398437 -0.46875,-0.3398437 0.4453125,-0.7382813 1.1484375,-0.796875 1.4414062,-0.796875 0.7265625,0 1.4179688,0.515625 1.4179688,1.7929687 0,0.3984375 -0.058594,0.9023438 -0.2695313,1.7109375 z m -2.3554687,3.31640625 c -1.1015625,0 -1.1015625,-1.03124995 -1.1015625,-1.12499995 0,-0.2695313 0.2578125,-1.6640625 0.6679687,-2.2617188 0.3984375,-0.5742187 0.8789063,-0.890625 1.5,-0.890625 1.0898438,0 1.1015625,1.1132813 1.1015625,1.3125 0,0.7265625 -0.6328125,2.96484375 -2.1679687,2.96484375 z M 9.7968359,-3.7856612 c -0.1640625,0 -0.3046875,0 -0.4453125,0.140625 -0.1523437,0.1523437 -0.1757812,0.3164062 -0.1757812,0.3867187 0,0.234375 0.1757812,0.3515625 0.3632812,0.3515625 0.2929688,0 0.5624996,-0.2460937 0.5624996,-0.6445312 0,-0.4804688 -0.4687496,-0.8554688 -1.1718746,-0.8554688 -1.3476562,0 -2.671875,1.4296875 -2.671875,2.8359375 0,0.890625 0.5742188,1.67578125 1.6171875,1.67578125 1.4179688,0 2.2617191,-1.0546875 2.2617191,-1.17187495 0,-0.058594 -0.07031,-0.1289063 -0.128907,-0.1289063 -0.046875,0 -0.070312,0.023437 -0.1289058,0.09375 -0.7851563,0.99609375 -1.875,0.99609375 -1.9921875,0.99609375 -0.6210938,0 -0.890625,-0.4921875 -0.890625,-1.08984375 0,-0.4101562 0.1992187,-1.3710937 0.5390625,-1.9921875 0.3046875,-0.5625 0.8554687,-0.9960937 1.40625,-0.9960937 0.328125,0 0.7148437,0.1289062 0.8554687,0.3984375 z m 0,0"
         style="fill:#0000ff;fill-opacity:1;fill-rule:nonzero;stroke:none" />
      <path
         id="path46"
         d="m 25.013633,-9.6010909 c 0.199219,0 0.457031,0 0.457031,-0.2578125 0,-0.2695316 -0.234375,-0.2695316 -0.457031,-0.2695316 h -8.449219 c -0.199219,0 -0.457031,0 -0.457031,0.2578128 0,0.2695313 0.246094,0.2695313 0.457031,0.2695313 z m 0,2.671875 c 0.199219,0 0.457031,0 0.457031,-0.2578125 0,-0.2695313 -0.234375,-0.2695313 -0.457031,-0.2695313 h -8.449219 c -0.199219,0 -0.457031,0 -0.457031,0.2578125 0,0.2695313 0.246094,0.2695313 0.457031,0.2695313 z m 9.37207,-7.2187501 c 0,-0.328125 0,-0.339844 -0.292969,-0.339844 -0.339843,0.386719 -1.066406,0.914063 -2.542968,0.914063 v 0.421875 c 0.339843,0 1.054687,0 1.839843,-0.375 v 7.4765623 c 0,0.515625 -0.04687,0.6914063 -1.300781,0.6914063 h -0.445312 v 0.4101562 c 0.386718,-0.023437 1.78125,-0.023437 2.25,-0.023437 0.46875,0 1.851562,0 2.238281,0.023437 v -0.4101562 h -0.445313 c -1.265625,0 -1.300781,-0.1757813 -1.300781,-0.6914063 z m 0,0"
         style="fill:#0000ff;fill-opacity:1;fill-rule:nonzero;stroke:none" />
    </g>
    <path
       id="path47"
       d="M 220.03926,0 H 164.14264"
       style="fill:none;stroke:#0000ff;stroke-width:0.79701;stroke-linecap:butt;stroke-linejoin:miter;stroke-miterlimit:10;stroke-dasharray:none;stroke-opacity:1"
       transform="matrix(1.3333333,0,0,-1.3333333,13.284,58.251173)" />
    <path
       id="path48"
       d="M -2.55046,3.11095 C -2.0845,1.24435 -1.04614,0.36295 0,0 -1.04614,-0.36295 -2.0845,-1.24435 -2.55046,-3.11095"
       style="fill:none;stroke:#0000ff;stroke-width:0.79701;stroke-linecap:round;stroke-linejoin:round;stroke-miterlimit:10;stroke-dasharray:none;stroke-opacity:1"
       transform="matrix(-1.3333333,0,0,1.3333333,231.60952,58.251173)" />
    <path
       id="path49"
       d="m 4.6164219,-3.3761847 c -0.1054688,-0.6210937 -0.515625,-1.171875 -1.2890625,-1.171875 -0.609375,0 -1.2539063,0.1523438 -2.0273438,0.9257813 -0.83203122,0.8320312 -0.90234372,1.7578125 -0.90234372,2.0625 0,0.62109371 0.43359375,1.78124996 1.82812502,1.78124996 2.3789062,0 3.4101562,-3.35156246 3.4101562,-4.76953126 0,-1.59375 -0.9257812,-2.5898437 -2.1445312,-2.5898437 -1.453125,0 -1.9101563,1.3007812 -1.9101563,1.5820312 0,0.140625 0.082031,0.3398438 0.375,0.3398438 0.3398438,0 0.5390625,-0.2929688 0.5390625,-0.5273438 0,-0.3398437 -0.3046875,-0.3398437 -0.46875,-0.3398437 0.4453125,-0.7382813 1.1484375,-0.796875 1.4414063,-0.796875 0.7265625,0 1.4179687,0.515625 1.4179687,1.7929687 0,0.3984375 -0.058594,0.9023438 -0.2695312,1.7109375 z m -2.3554688,3.31640626 c -1.1015625,0 -1.1015625,-1.03124996 -1.1015625,-1.12499996 0,-0.2695313 0.2578125,-1.6640625 0.6679688,-2.2617188 0.3984375,-0.5742187 0.8789062,-0.890625 1.5,-0.890625 1.0898437,0 1.1015625,1.1132813 1.1015625,1.3125 0,0.7265625 -0.6328125,2.96484376 -2.1679688,2.96484376 z M 9.7961094,-3.7863409 c -0.1640625,0 -0.3046875,0 -0.4453125,0.140625 -0.1523438,0.1523437 -0.1757813,0.3164062 -0.1757813,0.3867187 0,0.234375 0.1757813,0.3515625 0.3632813,0.3515625 0.2929687,0 0.5625001,-0.2460937 0.5625001,-0.6445312 0,-0.4804688 -0.4687501,-0.8554688 -1.1718751,-0.8554688 -1.3476563,0 -2.671875,1.4296875 -2.671875,2.8359375 0,0.89062501 0.5742187,1.67578126 1.6171875,1.67578126 1.4179687,0 2.2617186,-1.0546875 2.2617186,-1.17187496 0,-0.058594 -0.07031,-0.1289063 -0.128906,-0.1289063 -0.046875,0 -0.070313,0.023437 -0.1289064,0.09375 -0.7851562,0.99609376 -1.875,0.99609376 -1.9921875,0.99609376 -0.6210937,0 -0.890625,-0.4921875 -0.890625,-1.08984376 0,-0.4101562 0.1992188,-1.3710937 0.5390625,-1.9921875 0.3046875,-0.5625 0.8554688,-0.9960937 1.40625,-0.9960937 0.328125,0 0.7148438,0.1289062 0.8554688,0.3984375 z m 0,0"
       style="fill:#0000ff;fill-opacity:1;fill-rule:nonzero;stroke:none"
       aria-label="∂c"
       transform="matrix(1.3333333,0,0,1.3333333,244.82133,72.435173)" />
    <path
       id="path50"
       d="M 0,0 H 10.154"
       style="fill:none;stroke:#0000ff;stroke-width:0.398;stroke-linecap:butt;stroke-linejoin:miter;stroke-miterlimit:10;stroke-dasharray:none;stroke-opacity:1"
       transform="matrix(1.3333333,0,0,-1.3333333,244.82133,75.184507)" />
    <g
       id="g50"
       aria-label="∂b&#10;=5"
       transform="matrix(1.3333333,0,0,1.3333333,244.84533,86.563173)">
      <path
         id="path51"
         d="M 4.616,-3.375505 C 4.5105313,-3.9965987 4.100375,-4.54738 3.3269375,-4.54738 c -0.609375,0 -1.2539062,0.1523438 -2.0273437,0.9257813 -0.8320313,0.8320312 -0.9023438,1.7578125 -0.9023438,2.0625 0,0.6210937 0.43359375,1.78124995 1.828125,1.78124995 2.3789063,0 3.4101563,-3.35156245 3.4101563,-4.76953125 0,-1.59375 -0.9257813,-2.5898437 -2.1445313,-2.5898437 -1.453125,0 -1.9101562,1.3007812 -1.9101562,1.5820312 0,0.140625 0.082031,0.3398438 0.375,0.3398438 0.3398437,0 0.5390625,-0.2929688 0.5390625,-0.5273438 0,-0.3398437 -0.3046875,-0.3398437 -0.46875,-0.3398437 0.4453125,-0.7382813 1.1484375,-0.796875 1.4414062,-0.796875 0.7265625,0 1.4179688,0.515625 1.4179688,1.7929687 0,0.3984375 -0.058594,0.9023438 -0.2695313,1.7109375 z m -2.3554687,3.31640625 c -1.1015625,0 -1.1015625,-1.03124995 -1.1015625,-1.12499995 0,-0.2695313 0.2578125,-1.6640625 0.6679687,-2.2617188 0.3984375,-0.5742187 0.8789063,-0.890625 1.5,-0.890625 1.0898438,0 1.1015625,1.1132813 1.1015625,1.3125 0,0.7265625 -0.6328125,2.96484375 -2.1679687,2.96484375 z M 8.225375,-6.8090987 c 0,0 0,-0.1054688 -0.1289062,-0.1054688 -0.2226563,0 -0.9492188,0.082031 -1.21875,0.1054688 -0.070312,0 -0.1875,0.011719 -0.1875,0.1992187 0,0.1171875 0.09375,0.1171875 0.2460937,0.1171875 0.46875,0 0.4921875,0.070312 0.4921875,0.1640625 0,0.070312 -0.082031,0.4101563 -0.140625,0.6210938 l -0.8085937,3.2460937 c -0.1289063,0.5039063 -0.1640625,0.65625 -0.1640625,1.0078125 0,0.94921875 0.5273437,1.55859375 1.265625,1.55859375 1.171875,0 2.4023437,-1.47656245 2.4023437,-2.91796875 0,-0.9023437 -0.5273437,-1.59375 -1.3242187,-1.59375 -0.4570313,0 -0.8671875,0.2929688 -1.171875,0.5976563 z m -0.9375,3.7734375 c 0.058594,-0.2226563 0.058594,-0.2460938 0.1523438,-0.3515625 0.4921875,-0.6445313 0.9375,-0.796875 1.1953125,-0.796875 0.3632812,0 0.6328125,0.2929687 0.6328125,0.9375 0,0.5859375 -0.328125,1.734375 -0.515625,2.109375 -0.328125,0.6679687 -0.7851563,1.03124995 -1.171875,1.03124995 -0.3398438,0 -0.6679688,-0.26953125 -0.6679688,-1.00781245 0,-0.1875 0,-0.3867188 0.1640625,-1.0078125 z m 0,0"
         style="fill:#0000ff;fill-opacity:1;fill-rule:nonzero;stroke:none" />
      <path
         id="path52"
         d="m 24.997836,-9.6010909 c 0.199219,0 0.457031,0 0.457031,-0.2578125 0,-0.2695316 -0.234375,-0.2695316 -0.457031,-0.2695316 h -8.449219 c -0.199219,0 -0.457031,0 -0.457031,0.2578128 0,0.2695313 0.246094,0.2695313 0.457031,0.2695313 z m 0,2.671875 c 0.199219,0 0.457031,0 0.457031,-0.2578125 0,-0.2695313 -0.234375,-0.2695313 -0.457031,-0.2695313 h -8.449219 c -0.199219,0 -0.457031,0 -0.457031,0.2578125 0,0.2695313 0.246094,0.2695313 0.457031,0.2695313 z m 7.072266,-6.2343751 c 0.609375,0.199219 1.113281,0.210938 1.277343,0.210938 1.617188,0 2.648438,-1.195313 2.648438,-1.394532 0,-0.05859 -0.02344,-0.128906 -0.117188,-0.128906 -0.02344,0 -0.05859,0 -0.1875,0.05859 -0.796875,0.351562 -1.488281,0.386719 -1.863281,0.386719 -0.949219,0 -1.617187,-0.28125 -1.886719,-0.398438 -0.105468,-0.04687 -0.128906,-0.04687 -0.152343,-0.04687 -0.105469,0 -0.105469,0.09375 -0.105469,0.316406 v 4.2656253 c 0,0.2578125 0,0.3398438 0.164062,0.3398438 0.07031,0 0.09375,-0.011719 0.234375,-0.1875 0.398438,-0.5859371 1.078125,-0.9257811 1.792969,-0.9257811 0.761719,0 1.136719,0.7031248 1.242188,0.9374998 0.246093,0.5625 0.257812,1.265625 0.257812,1.8164063 0,0.5390625 0,1.359375 -0.398437,2.0039062 -0.316407,0.515625 -0.878907,0.8789063 -1.5,0.8789063 -0.949219,0 -1.886719,-0.6445313 -2.144532,-1.6992188 0.07031,0.035156 0.164063,0.046875 0.234375,0.046875 0.246094,0 0.632813,-0.140625 0.632813,-0.6328125 0,-0.3984375 -0.28125,-0.6328125 -0.632813,-0.6328125 -0.257812,0 -0.632812,0.1289063 -0.632812,0.6914063 0,1.21875 0.972656,2.6132812 2.566406,2.6132812 1.617188,0 3.046875,-1.3710937 3.046875,-3.1875 0,-1.7109375 -1.148437,-3.1289063 -2.660156,-3.1289063 -0.820313,0 -1.453125,0.363281 -1.816406,0.761719 z m 0,0"
         style="fill:#0000ff;fill-opacity:1;fill-rule:nonzero;stroke:none" />
    </g>
    <path
       id="path53"
       d="M 56.69363,0 H 0.797"
       style="fill:none;stroke:#0000ff;stroke-width:0.79701;stroke-linecap:butt;stroke-linejoin:miter;stroke-miterlimit:10;stroke-dasharray:none;stroke-opacity:1"
       transform="matrix(1.3333333,0,0,-1.3333333,13.284,58.251173)" />
    <path
       id="path54"
       d="M -2.55046,3.11095 C -2.0845,1.24435 -1.04614,0.36295 0,0 -1.04614,-0.36295 -2.0845,-1.24435 -2.55046,-3.11095"
       style="fill:none;stroke:#0000ff;stroke-width:0.79701;stroke-linecap:round;stroke-linejoin:round;stroke-miterlimit:10;stroke-dasharray:none;stroke-opacity:1"
       transform="matrix(-1.3333333,0,0,1.3333333,13.815333,58.251173)" />
    <path
       id="path55"
       d="m 4.6169297,-3.3761847 c -0.1054688,-0.6210937 -0.515625,-1.171875 -1.2890625,-1.171875 -0.609375,0 -1.2539063,0.1523438 -2.0273438,0.9257813 -0.83203121,0.8320312 -0.90234371,1.7578125 -0.90234371,2.0625 0,0.62109371 0.43359375,1.78124996 1.82812501,1.78124996 2.3789062,0 3.4101562,-3.35156246 3.4101562,-4.76953126 0,-1.59375 -0.9257812,-2.5898437 -2.1445312,-2.5898437 -1.453125,0 -1.9101563,1.3007812 -1.9101563,1.5820312 0,0.140625 0.082031,0.3398438 0.375,0.3398438 0.3398438,0 0.5390625,-0.2929688 0.5390625,-0.5273438 0,-0.3398437 -0.3046875,-0.3398437 -0.46875,-0.3398437 0.4453125,-0.7382813 1.1484375,-0.796875 1.4414063,-0.796875 0.7265625,0 1.4179687,0.515625 1.4179687,1.7929687 0,0.3984375 -0.058594,0.9023438 -0.2695312,1.7109375 z m -2.3554688,3.31640626 c -1.1015625,0 -1.1015625,-1.03124996 -1.1015625,-1.12499996 0,-0.2695313 0.2578125,-1.6640625 0.6679688,-2.2617188 0.3984375,-0.5742187 0.8789062,-0.890625 1.5,-0.890625 1.0898437,0 1.1015625,1.1132813 1.1015625,1.3125 0,0.7265625 -0.6328125,2.96484376 -2.1679688,2.96484376 z M 9.7966172,-3.7863409 c -0.1640625,0 -0.3046875,0 -0.4453125,0.140625 -0.1523438,0.1523437 -0.1757813,0.3164062 -0.1757813,0.3867187 0,0.234375 0.1757813,0.3515625 0.3632813,0.3515625 0.2929687,0 0.5625003,-0.2460937 0.5625003,-0.6445312 0,-0.4804688 -0.4687503,-0.8554688 -1.1718753,-0.8554688 -1.3476563,0 -2.671875,1.4296875 -2.671875,2.8359375 0,0.89062501 0.5742187,1.67578126 1.6171875,1.67578126 1.4179687,0 2.2617188,-1.0546875 2.2617188,-1.17187496 0,-0.058594 -0.07031,-0.1289063 -0.128906,-0.1289063 -0.046875,0 -0.070313,0.023437 -0.1289066,0.09375 -0.7851562,0.99609376 -1.875,0.99609376 -1.9921875,0.99609376 -0.6210937,0 -0.890625,-0.4921875 -0.890625,-1.08984376 0,-0.4101562 0.1992188,-1.3710937 0.5390625,-1.9921875 0.3046875,-0.5625 0.8554688,-0.9960937 1.40625,-0.9960937 0.328125,0 0.7148438,0.1289062 0.8554688,0.3984375 z m 0,0"
       style="fill:#0000ff;fill-opacity:1;fill-rule:nonzero;stroke:none"
       aria-label="∂c"
       transform="matrix(1.3333333,0,0,1.3333333,22.348,72.435173)" />
    <path
       id="path56"
       d="M 0,0 H 11.109"
       style="fill:none;stroke:#0000ff;stroke-width:0.398;stroke-linecap:butt;stroke-linejoin:miter;stroke-miterlimit:10;stroke-dasharray:none;stroke-opacity:1"
       transform="matrix(1.3333333,0,0,-1.3333333,21.710667,75.184507)" />
    <g
       id="g56"
       aria-label="∂a&#10;=30"
       transform="matrix(1.3333333,0,0,1.3333333,21.710667,86.563173)">
      <path
         id="path57"
         d="M 4.6173906,-3.375505 C 4.5119219,-3.9965987 4.1017656,-4.54738 3.3283281,-4.54738 c -0.609375,0 -1.2539062,0.1523438 -2.0273437,0.9257813 -0.83203127,0.8320312 -0.90234377,1.7578125 -0.90234377,2.0625 0,0.6210937 0.43359375,1.78124995 1.82812497,1.78124995 2.3789063,0 3.4101563,-3.35156245 3.4101563,-4.76953125 0,-1.59375 -0.9257813,-2.5898437 -2.1445313,-2.5898437 -1.453125,0 -1.9101562,1.3007812 -1.9101562,1.5820312 0,0.140625 0.082031,0.3398438 0.375,0.3398438 0.3398437,0 0.5390625,-0.2929688 0.5390625,-0.5273438 0,-0.3398437 -0.3046875,-0.3398437 -0.46875,-0.3398437 0.4453125,-0.7382813 1.1484375,-0.796875 1.4414062,-0.796875 0.7265625,0 1.4179688,0.515625 1.4179688,1.7929687 0,0.3984375 -0.058594,0.9023438 -0.2695313,1.7109375 z m -2.3554687,3.31640625 c -1.1015625,0 -1.1015625,-1.03124995 -1.1015625,-1.12499995 0,-0.2695313 0.2578125,-1.6640625 0.6679687,-2.2617188 0.3984375,-0.5742187 0.8789063,-0.890625 1.5,-0.890625 1.0898438,0 1.1015625,1.1132813 1.1015625,1.3125 0,0.7265625 -0.6328125,2.96484375 -2.1679687,2.96484375 z M 9.5627031,-3.7622237 c -0.1757812,-0.375 -0.46875,-0.6445313 -0.9140625,-0.6445313 -1.171875,0 -2.4023437,1.4648438 -2.4023437,2.9179688 0,0.93749995 0.5507812,1.59374995 1.3242187,1.59374995 0.1992188,0 0.703125,-0.03515625 1.3007813,-0.73828125 0.070312,0.41015625 0.421875,0.73828125 0.9023437,0.73828125 0.3515624,0 0.5742184,-0.22265625 0.7382814,-0.5390625 0.164062,-0.36328125 0.292969,-0.97265625 0.292969,-0.99609375 0,-0.09375 -0.08203,-0.09375 -0.117188,-0.09375 -0.09375,0 -0.105469,0.035156 -0.140625,0.1757813 -0.164062,0.6445312 -0.351562,1.24218745 -0.7499999,1.24218745 -0.2695312,0 -0.3046875,-0.2578125 -0.3046875,-0.45703125 0,-0.22265625 0.023437,-0.3046875 0.1289063,-0.7382812 C 9.7384844,-1.7231612 9.7502031,-1.82863 9.8439531,-2.20363 l 0.3515629,-1.3945312 c 0.07031,-0.28125 0.07031,-0.2929688 0.07031,-0.3398438 0,-0.1640625 -0.117187,-0.2695312 -0.2812499,-0.2695312 -0.2460937,0 -0.3867187,0.2226562 -0.421875,0.4453125 z m -0.6445312,2.578125 c -0.046875,0.1757812 -0.046875,0.1992187 -0.1992188,0.3632812 -0.4453125,0.55078125 -0.84375,0.71484375 -1.125,0.71484375 -0.5039062,0 -0.6445312,-0.55078125 -0.6445312,-0.93749995 0,-0.5039063 0.328125,-1.7226563 0.5507812,-2.1796875 0.3046875,-0.5976563 0.7617188,-0.9609375 1.1601563,-0.9609375 0.6445312,0 0.7851562,0.8203125 0.7851562,0.8789062 0,0.058594 -0.023437,0.1171875 -0.035156,0.1640625 z m 0,0"
         style="fill:#0000ff;fill-opacity:1;fill-rule:nonzero;stroke:none" />
      <path
         id="path58"
         d="m 25.968953,-9.6010909 c 0.199219,0 0.457031,0 0.457031,-0.2578125 0,-0.2695316 -0.234375,-0.2695316 -0.457031,-0.2695316 h -8.449219 c -0.199218,0 -0.457031,0 -0.457031,0.2578128 0,0.2695313 0.246094,0.2695313 0.457031,0.2695313 z m 0,2.671875 c 0.199219,0 0.457031,0 0.457031,-0.2578125 0,-0.2695313 -0.234375,-0.2695313 -0.457031,-0.2695313 h -8.449219 c -0.199218,0 -0.457031,0 -0.457031,0.2578125 0,0.2695313 0.246094,0.2695313 0.457031,0.2695313 z m 7.87207,-3.1640621 c -0.246093,0.01172 -0.292968,0.02344 -0.292968,0.1523433 0,0.140625 0.07031,0.140625 0.328125,0.140625 h 0.65625 c 1.21875,0 1.769531,1.0078125 1.769531,2.3789063 0,1.8867187 -0.984375,2.390625 -1.6875,2.390625 -0.679688,0 -1.863281,-0.328125 -2.273438,-1.2773438 0.457032,0.070312 0.867188,-0.1875 0.867188,-0.703125 0,-0.421875 -0.292969,-0.703125 -0.703125,-0.703125 -0.339844,0 -0.714844,0.1992188 -0.714844,0.7382813 0,1.2773437 1.277344,2.3320312 2.871094,2.3320312 1.710937,0 2.964844,-1.3125 2.964844,-2.7539062 0,-1.3242188 -1.054688,-2.3554688 -2.4375,-2.6015625 1.253906,-0.3515626 2.050781,-1.4062496 2.050781,-2.5195316 0,-1.136718 -1.171875,-1.96875 -2.566406,-1.96875 -1.429688,0 -2.496094,0.878907 -2.496094,1.921875 0,0.574219 0.445312,0.691407 0.667969,0.691407 0.292968,0 0.644531,-0.222657 0.644531,-0.644532 0,-0.457031 -0.351563,-0.667968 -0.667969,-0.667968 -0.08203,0 -0.105469,0 -0.152344,0.02344 0.539063,-0.984375 1.886719,-0.984375 1.96875,-0.984375 0.46875,0 1.394532,0.222656 1.394532,1.628906 0,0.269532 -0.03516,1.078125 -0.457032,1.6875 -0.421875,0.632813 -0.914062,0.679688 -1.300781,0.691407 z m 10.807618,0.5507808 c 0,-1.1835938 -0.07031,-2.3437498 -0.585938,-3.4335938 -0.585937,-1.195312 -1.617187,-1.511719 -2.320312,-1.511719 -0.832032,0 -1.851563,0.421875 -2.378907,1.605469 -0.410156,0.902344 -0.550781,1.792969 -0.550781,3.3398438 0,1.3945313 0.105469,2.4375 0.621094,3.4570313 0.5625,1.0898437 1.546875,1.4414062 2.296875,1.4414062 1.242187,0 1.957031,-0.75 2.378906,-1.5820312 0.515625,-1.078125 0.539063,-2.484375 0.539063,-3.3164063 z m -2.917969,4.6054688 c -0.46875,0 -1.394531,-0.2578125 -1.664063,-1.8164063 -0.164062,-0.8671875 -0.164062,-1.9570312 -0.164062,-2.953125 0,-1.1835933 0,-2.2382813 0.234375,-3.0937503 0.246094,-0.960937 0.972656,-1.394531 1.59375,-1.394531 0.539062,0 1.371094,0.328125 1.640625,1.558594 0.1875,0.820312 0.1875,1.945312 0.1875,2.9296873 0,0.9609375 0,2.0507813 -0.152344,2.9179688 -0.269531,1.5820312 -1.183594,1.8515625 -1.675781,1.8515625 z m 0,0"
         style="fill:#0000ff;fill-opacity:1;fill-rule:nonzero;stroke:none" />
    </g>
  </g>
</svg>
