<?xml version="1.0" encoding="UTF-8" standalone="no"?>
<!-- Created with Inkscape (http://www.inkscape.org/) -->

<svg
   version="1.1"
   id="svg1"
   width="537.73999"
   height="103.22"
   viewBox="0 0 537.73999 103.22"
   xmlns="http://www.w3.org/2000/svg"
   xmlns:svg="http://www.w3.org/2000/svg">
  <defs
     id="defs1" />
  <g
     id="g1">
    <path
       id="path1"
       d="M -9.96277,-38.70807 V 38.70807 H 393.34767 V -38.70807 Z"
       style="fill:#ccccff;fill-opacity:1;fill-rule:nonzero;stroke:none"
       transform="matrix(1.3333333,0,0,-1.3333333,13.284,51.609333)" />
    <path
       id="path2"
       d="M 57.09213,-28.3468 H 162.94711 V 28.34682 H 57.09213 Z"
       style="fill:none;stroke:#000000;stroke-width:0.79701;stroke-linecap:butt;stroke-linejoin:miter;stroke-miterlimit:10;stroke-dasharray:none;stroke-opacity:1"
       transform="matrix(1.3333333,0,0,-1.3333333,13.284,51.609333)" />
    <g
       id="g2"
       aria-label="b←f(a)"
       transform="matrix(1.3333333,0,0,1.3333333,119.62133,56.392)">
      <path
         id="path3"
         d="m 3.3162266,-9.5986875 c 0.011719,-0.058594 0.035156,-0.140625 0.035156,-0.2109375 0,-0.140625 -0.140625,-0.140625 -0.1640625,-0.140625 -0.011719,0 -0.5390625,0.035156 -0.796875,0.070312 -0.234375,0.011719 -0.4570312,0.035156 -0.7148437,0.058594 -0.3398438,0.023437 -0.4453125,0.035156 -0.4453125,0.2929687 0,0.1523438 0.1523437,0.1523438 0.2929687,0.1523438 0.7265625,0 0.7265625,0.1289062 0.7265625,0.2695312 0,0.09375 -0.1171875,0.515625 -0.1757812,0.7734375 L 1.7341951,-6.961969 c -0.140625,0.5742187 -0.96093749,3.8320312 -1.01953124,4.0898437 -0.0703125,0.3632813 -0.0703125,0.609375 -0.0703125,0.796875 0,1.453125 0.82031254,2.21484375 1.74609374,2.21484375 1.6640625,0 3.3867188,-2.13281245 3.3867188,-4.21874995 0,-1.3125 -0.7382813,-2.25 -1.8164063,-2.25 -0.75,0 -1.4179687,0.6210937 -1.6992187,0.9023437 z m -0.9023438,9.45703125 c -0.46875,0 -0.9609375,-0.3515625 -0.9609375,-1.46484375 0,-0.46875 0.035156,-0.75 0.2929688,-1.7460937 0.046875,-0.1875 0.28125,-1.1132813 0.328125,-1.3007813 0.035156,-0.1054687 0.8789062,-1.3828125 1.8515625,-1.3828125 0.6328125,0 0.9257812,0.6328125 0.9257812,1.3710938 0,0.6914062 -0.4101562,2.3085937 -0.7617187,3.0585937 -0.3632813,0.7734375 -1.0195313,1.46484375 -1.6757813,1.46484375 z m 0,0"
         style="fill:#000000;fill-opacity:1;fill-rule:nonzero;stroke:none" />
      <path
         id="path4"
         d="m 25.719547,-3.3057187 c 0.257812,0 0.515625,0 0.515625,-0.28125 0,-0.28125 -0.257813,-0.28125 -0.515625,-0.28125 H 15.067203 c 0.785156,-0.609375 1.171875,-1.1953125 1.289063,-1.3828125 0.644531,-0.984375 0.761718,-1.8984375 0.761718,-1.9101563 0,-0.1640625 -0.175781,-0.1640625 -0.28125,-0.1640625 -0.246093,0 -0.269531,0.023437 -0.316406,0.28125 -0.339844,1.40625 -1.183594,2.6015625 -2.800781,3.2695313 -0.164063,0.058594 -0.210938,0.082031 -0.210938,0.1875 0,0.1054687 0.07031,0.1289062 0.210938,0.1875 1.488281,0.6210937 2.449219,1.734375 2.8125,3.3398437 0.03516,0.17578125 0.05859,0.2109375 0.304687,0.2109375 0.105469,0 0.28125,0 0.28125,-0.1640625 0,-0.03515625 -0.128906,-0.9375 -0.726562,-1.8984375 -0.292969,-0.4335937 -0.703125,-0.9257812 -1.324219,-1.3945312 z m 0,0"
         style="fill:#000000;fill-opacity:1;fill-rule:nonzero;stroke:none" />
      <path
         id="path5"
         d="m 40.174625,-5.7666562 c 0.28125,0 0.398437,0 0.398437,-0.2695313 0,-0.1523437 -0.117187,-0.1523437 -0.375,-0.1523437 h -1.160156 c 0.269531,-1.4765625 0.480469,-2.4960938 0.585938,-2.953125 0.09375,-0.3398438 0.386718,-0.6679688 0.761718,-0.6679688 0.304688,0 0.609375,0.1289063 0.75,0.2578125 -0.5625,0.058594 -0.738281,0.46875 -0.738281,0.7148438 0,0.28125 0.222656,0.4570312 0.492188,0.4570312 0.292968,0 0.714843,-0.2460937 0.714843,-0.7851562 0,-0.609375 -0.597656,-0.9375003 -1.230468,-0.9375003 -0.621094,0 -1.21875,0.4570315 -1.5,1.0195315 -0.269532,0.5039063 -0.410157,1.0195313 -0.738282,2.8945313 h -0.960937 c -0.269531,0 -0.410156,0 -0.410156,0.2578125 0,0.1640625 0.08203,0.1640625 0.363281,0.1640625 h 0.925781 c -0.257812,1.3359375 -0.84375,4.5703125 -1.183594,6.1054687 -0.234375,1.2539063 -0.457031,2.296875 -1.171875,2.296875 -0.04687,0 -0.457031,0 -0.714843,-0.2695312 0.726562,-0.058594 0.726562,-0.6914063 0.726562,-0.703125 0,-0.28125 -0.210937,-0.4570313 -0.480469,-0.4570313 -0.292968,0 -0.726562,0.2460938 -0.726562,0.7851563 0,0.6210937 0.632812,0.9375 1.195312,0.9375 1.464844,0 2.0625,-2.62500005 2.226563,-3.3398438 0.257812,-1.1132812 0.960937,-4.921875 1.03125,-5.3554687 z m 0,0"
         style="fill:#000000;fill-opacity:1;fill-rule:nonzero;stroke:none" />
      <path
         id="path6"
         d="m 46.895328,3.4794375 c 0,-0.035156 0,-0.070312 -0.246094,-0.3046875 -1.429687,-1.453125 -2.238281,-3.8203125 -2.238281,-6.75 0,-2.7773437 0.679688,-5.1796875 2.34375,-6.867187 0.140625,-0.128907 0.140625,-0.164063 0.140625,-0.199219 0,-0.09375 -0.07031,-0.117188 -0.128906,-0.117188 -0.1875,0 -1.359375,1.0312503 -2.0625,2.4375003 -0.738281,1.453125 -1.066406,2.9882812 -1.066406,4.7460937 0,1.2773438 0.199218,2.98828125 0.949218,4.5234375 0.84375,1.7226563 2.015625,2.6484375 2.179688,2.6484375 0.05859,0 0.128906,-0.023437 0.128906,-0.1171875 z m 0,0"
         style="fill:#000000;fill-opacity:1;fill-rule:nonzero;stroke:none" />
      <path
         id="path7"
         d="m 52.007633,-1.7119687 c -0.07031,0.2460937 -0.07031,0.28125 -0.269531,0.5507812 -0.316407,0.3984375 -0.949219,1.01953125 -1.617188,1.01953125 -0.585937,0 -0.914062,-0.5390625 -0.914062,-1.38281245 0,-0.7851563 0.433593,-2.390625 0.714843,-3 0.480469,-0.9960938 1.160157,-1.5117188 1.722657,-1.5117188 0.9375,0 1.125,1.171875 1.125,1.2890625 0,0.011719 -0.03516,0.1992188 -0.05859,0.2226563 z m 0.925781,-3.6679688 c -0.164062,-0.375 -0.550781,-0.9492187 -1.289062,-0.9492187 -1.628907,0 -3.375,2.0976562 -3.375,4.21875 0,1.4179687 0.832031,2.24999995 1.804687,2.24999995 0.796875,0 1.464844,-0.609375 1.863281,-1.08984375 0.152344,0.84375 0.820313,1.08984375 1.253907,1.08984375 0.433593,0 0.773437,-0.2578125 1.03125,-0.7734375 0.234375,-0.48046875 0.433593,-1.35937495 0.433593,-1.41796875 0,-0.070312 -0.05859,-0.1289062 -0.152343,-0.1289062 -0.128907,0 -0.140625,0.070312 -0.199219,0.28125 -0.210938,0.8554687 -0.480469,1.75781245 -1.078125,1.75781245 -0.410156,0 -0.433594,-0.375 -0.433594,-0.66796875 0,-0.328125 0.03516,-0.4804687 0.164063,-1.0429687 0.105468,-0.3515625 0.175781,-0.6679688 0.292968,-1.0898438 0.527344,-2.15625 0.65625,-2.671875 0.65625,-2.7539062 0,-0.1992188 -0.152343,-0.3632813 -0.375,-0.3632813 -0.457031,0 -0.574218,0.5039063 -0.597656,0.6796875 z m 0,0"
         style="fill:#000000;fill-opacity:1;fill-rule:nonzero;stroke:none" />
      <path
         id="path8"
         d="m 59.109195,-3.57525 c 0,-1.0898437 -0.140625,-2.8710937 -0.949218,-4.5351562 -0.84375,-1.7109375 -2.015625,-2.6484378 -2.179688,-2.6484378 -0.05859,0 -0.128906,0.02344 -0.128906,0.117188 0,0.03516 0,0.07031 0.246094,0.316406 1.441406,1.4414063 2.238281,3.8085938 2.238281,6.7382813 0,2.7773437 -0.667969,5.1796875 -2.332031,6.8671875 -0.152344,0.1289062 -0.152344,0.1640625 -0.152344,0.1992187 0,0.09375 0.07031,0.1171875 0.128906,0.1171875 0.1875,0 1.371094,-1.03125 2.074219,-2.4375 0.726562,-1.46484375 1.054687,-3.0117187 1.054687,-4.734375 z m 0,0"
         style="fill:#000000;fill-opacity:1;fill-rule:nonzero;stroke:none" />
    </g>
    <path
       id="path9"
       d="M 220.43777,-28.3468 H 326.29275 V 28.34682 H 220.43777 Z"
       style="fill:none;stroke:#000000;stroke-width:0.79701;stroke-linecap:butt;stroke-linejoin:miter;stroke-miterlimit:10;stroke-dasharray:none;stroke-opacity:1"
       transform="matrix(1.3333333,0,0,-1.3333333,13.284,51.609333)" />
    <g
       id="g9"
       aria-label="c←g(b)"
       transform="matrix(1.3333333,0,0,1.3333333,338.89733,56.392)">
      <path
         id="path10"
         d="m 5.6141094,-5.3916562 c -0.28125,0 -0.4101563,0 -0.609375,0.1640625 -0.082031,0.082031 -0.2460938,0.2929687 -0.2460938,0.5273437 0,0.28125 0.2226563,0.4570313 0.4921875,0.4570313 0.3398438,0 0.7265625,-0.2929688 0.7265625,-0.8671875 0,-0.6796875 -0.65625,-1.21875 -1.640625,-1.21875 -1.8867187,0 -3.76171872,2.0507812 -3.76171872,4.0898437 0,1.25390625 0.77343752,2.37890625 2.23828122,2.37890625 1.9453125,0 3.1875,-1.52343745 3.1875,-1.69921875 0,-0.09375 -0.09375,-0.1640625 -0.1523437,-0.1640625 -0.035156,0 -0.058594,0.011719 -0.1875,0.140625 -0.9140625,1.21875 -2.2734375,1.44140625 -2.8242188,1.44140625 -0.984375,0 -1.3007812,-0.86718745 -1.3007812,-1.58203125 0,-0.5039062 0.2460937,-1.8867187 0.7617187,-2.8710937 0.375,-0.6679688 1.1484375,-1.4414063 2.0507813,-1.4414063 0.1875,0 0.9726562,0.023437 1.265625,0.6445313 z m 0,0"
         style="fill:#000000;fill-opacity:1;fill-rule:nonzero;stroke:none" />
      <path
         id="path11"
         d="m 25.952,-3.3057187 c 0.257813,0 0.515625,0 0.515625,-0.28125 0,-0.28125 -0.257812,-0.28125 -0.515625,-0.28125 H 15.299656 c 0.785157,-0.609375 1.171875,-1.1953125 1.289063,-1.3828125 0.644531,-0.984375 0.761719,-1.8984375 0.761719,-1.9101563 0,-0.1640625 -0.175782,-0.1640625 -0.28125,-0.1640625 -0.246094,0 -0.269532,0.023437 -0.316407,0.28125 -0.339843,1.40625 -1.183593,2.6015625 -2.800781,3.2695313 -0.164062,0.058594 -0.210937,0.082031 -0.210937,0.1875 0,0.1054687 0.07031,0.1289062 0.210937,0.1875 1.488281,0.6210937 2.449219,1.734375 2.8125,3.3398437 0.03516,0.17578125 0.05859,0.2109375 0.304688,0.2109375 0.105468,0 0.28125,0 0.28125,-0.1640625 0,-0.03515625 -0.128907,-0.9375 -0.726563,-1.8984375 -0.292969,-0.4335937 -0.703125,-0.9257812 -1.324219,-1.3945312 z m 0,0"
         style="fill:#000000;fill-opacity:1;fill-rule:nonzero;stroke:none" />
      <path
         id="path12"
         d="m 39.015477,-1.8174375 c -0.05859,0.2226563 -0.09375,0.28125 -0.28125,0.4921875 -0.585938,0.76171875 -1.183594,1.04296875 -1.628907,1.04296875 -0.46875,0 -0.914062,-0.375 -0.914062,-1.37109375 0,-0.7617187 0.421875,-2.3671875 0.738281,-3.0117187 0.421875,-0.796875 1.066406,-1.3710938 1.664063,-1.3710938 0.949218,0 1.136718,1.171875 1.136718,1.2539063 l -0.04687,0.2109375 z m 0.890625,-3.5625 c -0.1875,-0.4101562 -0.597657,-0.9492187 -1.3125,-0.9492187 -1.558594,0 -3.339844,1.96875 -3.339844,4.1015625 0,1.49999995 0.902344,2.22656245 1.816406,2.22656245 0.761719,0 1.441406,-0.59765625 1.699219,-0.890625 l -0.316406,1.2890625 C 38.253758,1.1942813 38.160008,1.5458438 37.644383,2.04975 c -0.585938,0.5859375 -1.125,0.5859375 -1.441406,0.5859375 -0.433594,0 -0.796875,-0.023437 -1.148438,-0.140625 0.457031,-0.1289062 0.574219,-0.5273437 0.574219,-0.6914062 0,-0.2226563 -0.175781,-0.4570313 -0.492188,-0.4570313 -0.339843,0 -0.714843,0.2929688 -0.714843,0.7617188 0,0.5859375 0.585937,0.8203125 1.804687,0.8203125 1.851563,0 2.8125,-1.1953125 3,-1.96875005 l 1.59375,-6.42187495 c 0.04687,-0.1757813 0.04687,-0.1992188 0.04687,-0.234375 0,-0.1992188 -0.164062,-0.3632813 -0.375,-0.3632813 -0.351562,0 -0.550781,0.2929688 -0.585937,0.6796875 z m 0,0"
         style="fill:#000000;fill-opacity:1;fill-rule:nonzero;stroke:none" />
      <path
         id="path13"
         d="m 46.070164,3.4794375 c 0,-0.035156 0,-0.070312 -0.246094,-0.3046875 -1.429687,-1.453125 -2.238281,-3.8203125 -2.238281,-6.75 0,-2.7773437 0.679688,-5.1796875 2.34375,-6.867187 0.140625,-0.128907 0.140625,-0.164063 0.140625,-0.199219 0,-0.09375 -0.07031,-0.117188 -0.128906,-0.117188 -0.1875,0 -1.359375,1.0312503 -2.0625,2.4375003 -0.738281,1.453125 -1.066406,2.9882812 -1.066406,4.7460937 0,1.2773438 0.199218,2.98828125 0.949218,4.5234375 0.84375,1.7226563 2.015625,2.6484375 2.179688,2.6484375 0.05859,0 0.128906,-0.023437 0.128906,-0.1171875 z m 0,0"
         style="fill:#000000;fill-opacity:1;fill-rule:nonzero;stroke:none" />
      <path
         id="path14"
         d="m 50.183445,-9.5986875 c 0.01172,-0.058594 0.03516,-0.140625 0.03516,-0.2109375 0,-0.140625 -0.140625,-0.140625 -0.164063,-0.140625 -0.01172,0 -0.539062,0.035156 -0.796875,0.070312 -0.234375,0.011719 -0.457031,0.035156 -0.714844,0.058594 -0.339843,0.023437 -0.445312,0.035156 -0.445312,0.2929687 0,0.1523438 0.152344,0.1523438 0.292969,0.1523438 0.726562,0 0.726562,0.1289062 0.726562,0.2695312 0,0.09375 -0.117187,0.515625 -0.175781,0.7734375 l -0.339844,1.3710938 c -0.140625,0.5742187 -0.960937,3.8320312 -1.019531,4.0898437 -0.07031,0.3632813 -0.07031,0.609375 -0.07031,0.796875 0,1.453125 0.820313,2.21484375 1.746094,2.21484375 1.664063,0 3.386719,-2.13281245 3.386719,-4.21874995 0,-1.3125 -0.738281,-2.25 -1.816406,-2.25 -0.75,0 -1.417969,0.6210937 -1.699219,0.9023437 z m -0.902343,9.45703125 c -0.46875,0 -0.960938,-0.3515625 -0.960938,-1.46484375 0,-0.46875 0.03516,-0.75 0.292969,-1.7460937 0.04687,-0.1875 0.28125,-1.1132813 0.328125,-1.3007813 0.03516,-0.1054687 0.878906,-1.3828125 1.851562,-1.3828125 0.632813,0 0.925782,0.6328125 0.925782,1.3710938 0,0.6914062 -0.410157,2.3085937 -0.761719,3.0585937 -0.363281,0.7734375 -1.019531,1.46484375 -1.675781,1.46484375 z m 0,0"
         style="fill:#000000;fill-opacity:1;fill-rule:nonzero;stroke:none" />
      <path
         id="path15"
         d="m 56.883641,-3.57525 c 0,-1.0898437 -0.140625,-2.8710937 -0.949219,-4.5351562 -0.84375,-1.7109375 -2.015625,-2.6484378 -2.179688,-2.6484378 -0.05859,0 -0.128906,0.02344 -0.128906,0.117188 0,0.03516 0,0.07031 0.246094,0.316406 1.441406,1.4414063 2.238281,3.8085938 2.238281,6.7382813 0,2.7773437 -0.667969,5.1796875 -2.332031,6.8671875 -0.152344,0.1289062 -0.152344,0.1640625 -0.152344,0.1992187 0,0.09375 0.07031,0.1171875 0.128906,0.1171875 0.1875,0 1.371094,-1.03125 2.074219,-2.4375 0.726563,-1.46484375 1.054688,-3.0117187 1.054688,-4.734375 z m 0,0"
         style="fill:#000000;fill-opacity:1;fill-rule:nonzero;stroke:none" />
    </g>
    <path
       id="path16"
       d="M 0,0 H 55.89662"
       style="fill:none;stroke:#000000;stroke-width:0.79701;stroke-linecap:butt;stroke-linejoin:miter;stroke-miterlimit:10;stroke-dasharray:none;stroke-opacity:1"
       transform="matrix(1.3333333,0,0,-1.3333333,13.284,44.967493)" />
    <path
       id="path17"
       d="M -2.55046,3.11095 C -2.0845,1.24435 -1.04614,0.36295 0,0 -1.04614,-0.36295 -2.0845,-1.24435 -2.55046,-3.11095"
       style="fill:none;stroke:#000000;stroke-width:0.79701;stroke-linecap:round;stroke-linejoin:round;stroke-miterlimit:10;stroke-dasharray:none;stroke-opacity:1"
       transform="matrix(1.3333333,0,0,-1.3333333,88.34416,44.967493)" />
    <path
       id="path18"
       d="m 4.3135469,-1.7116981 c -0.070312,0.2460937 -0.070312,0.28125 -0.2695313,0.5507812 -0.3164062,0.39843753 -0.9492187,1.01953128 -1.6171875,1.01953128 -0.5859375,0 -0.9140625,-0.5390625 -0.9140625,-1.38281248 0,-0.7851563 0.4335938,-2.390625 0.7148438,-3 0.4804687,-0.9960938 1.1601562,-1.5117188 1.7226562,-1.5117188 0.9375,0 1.125,1.171875 1.125,1.2890625 0,0.011719 -0.035156,0.1992188 -0.058594,0.2226563 z m 0.9257812,-3.6679688 c -0.1640625,-0.375 -0.5507812,-0.9492187 -1.2890625,-0.9492187 -1.6289062,0 -3.37499997,2.0976562 -3.37499997,4.21875 0,1.41796873 0.83203127,2.24999998 1.80468747,2.24999998 0.796875,0 1.4648438,-0.609375 1.8632813,-1.08984375 0.1523437,0.84375 0.8203125,1.08984375 1.2539062,1.08984375 0.4335938,0 0.7734375,-0.2578125 1.03125,-0.7734375 0.234375,-0.48046878 0.4335938,-1.35937498 0.4335938,-1.41796878 0,-0.070312 -0.058594,-0.1289062 -0.1523438,-0.1289062 -0.1289062,0 -0.140625,0.070312 -0.1992187,0.28125 -0.2109375,0.8554687 -0.4804688,1.75781248 -1.078125,1.75781248 -0.4101563,0 -0.4335938,-0.375 -0.4335938,-0.66796875 0,-0.32812503 0.035156,-0.48046873 0.1640625,-1.04296873 0.1054688,-0.3515625 0.1757813,-0.6679688 0.2929688,-1.0898438 0.5273437,-2.15625 0.65625,-2.671875 0.65625,-2.7539062 0,-0.1992188 -0.1523438,-0.3632813 -0.375,-0.3632813 -0.4570313,0 -0.5742188,0.5039063 -0.5976563,0.6796875 z m 0,0"
       style="fill:#000000;fill-opacity:1;fill-rule:nonzero;stroke:none"
       aria-label="a"
       transform="matrix(1.3333333,0,0,1.3333333,46.162667,40.008827)" />
    <path
       id="path19"
       d="m 163.34563,0 h 55.89662"
       style="fill:none;stroke:#000000;stroke-width:0.79701;stroke-linecap:butt;stroke-linejoin:miter;stroke-miterlimit:10;stroke-dasharray:none;stroke-opacity:1"
       transform="matrix(1.3333333,0,0,-1.3333333,13.284,44.967493)" />
    <path
       id="path20"
       d="M -2.55046,3.11095 C -2.0845,1.24435 -1.04614,0.36295 0,0 -1.04614,-0.36295 -2.0845,-1.24435 -2.55046,-3.11095"
       style="fill:none;stroke:#000000;stroke-width:0.79701;stroke-linecap:round;stroke-linejoin:round;stroke-miterlimit:10;stroke-dasharray:none;stroke-opacity:1"
       transform="matrix(1.3333333,0,0,-1.3333333,306.13835,44.967493)" />
    <path
       id="path21"
       d="m 3.3154453,-9.5984169 c 0.011719,-0.058594 0.035156,-0.140625 0.035156,-0.2109375 0,-0.140625 -0.140625,-0.140625 -0.1640625,-0.140625 -0.011719,0 -0.5390625,0.035156 -0.796875,0.070312 -0.234375,0.011719 -0.4570313,0.035156 -0.7148438,0.058594 -0.3398437,0.023437 -0.4453125,0.035156 -0.4453125,0.2929687 0,0.1523438 0.1523438,0.1523438 0.2929688,0.1523438 0.7265625,0 0.7265625,0.1289062 0.7265625,0.2695312 0,0.09375 -0.1171875,0.515625 -0.1757813,0.7734375 l -0.3398437,1.3710938 c -0.140625,0.5742187 -0.96093754,3.8320312 -1.01953129,4.0898437 -0.0703125,0.3632813 -0.0703125,0.609375 -0.0703125,0.796875 0,1.45312503 0.82031249,2.21484378 1.74609379,2.21484378 1.6640625,0 3.3867187,-2.13281248 3.3867187,-4.21874998 0,-1.3125 -0.7382812,-2.25 -1.8164062,-2.25 -0.75,0 -1.4179688,0.6210937 -1.6992188,0.9023437 z m -0.9023437,9.45703128 c -0.46875,0 -0.9609375,-0.3515625 -0.9609375,-1.46484378 0,-0.46875 0.035156,-0.75 0.2929687,-1.7460937 0.046875,-0.1875 0.28125,-1.1132813 0.328125,-1.3007813 0.035156,-0.1054687 0.8789063,-1.3828125 1.8515625,-1.3828125 0.6328125,0 0.9257813,0.6328125 0.9257813,1.3710938 0,0.6914062 -0.4101563,2.3085937 -0.7617188,3.0585937 -0.3632812,0.77343753 -1.0195312,1.46484378 -1.6757812,1.46484378 z m 0,0"
       style="fill:#000000;fill-opacity:1;fill-rule:nonzero;stroke:none"
       aria-label="b"
       transform="matrix(1.3333333,0,0,1.3333333,264.888,40.008827)" />
    <path
       id="path22"
       d="m 326.69127,0 h 55.89662"
       style="fill:none;stroke:#000000;stroke-width:0.79701;stroke-linecap:butt;stroke-linejoin:miter;stroke-miterlimit:10;stroke-dasharray:none;stroke-opacity:1"
       transform="matrix(1.3333333,0,0,-1.3333333,13.284,44.967493)" />
    <path
       id="path23"
       d="M -2.55046,3.11095 C -2.0845,1.24435 -1.04614,0.36295 0,0 -1.04614,-0.36295 -2.0845,-1.24435 -2.55046,-3.11095"
       style="fill:none;stroke:#000000;stroke-width:0.79701;stroke-linecap:round;stroke-linejoin:round;stroke-miterlimit:10;stroke-dasharray:none;stroke-opacity:1"
       transform="matrix(1.3333333,0,0,-1.3333333,523.93253,44.967493)" />
    <path
       id="path24"
       d="m 5.6119609,-5.3913856 c -0.28125,0 -0.4101562,0 -0.609375,0.1640625 -0.082031,0.082031 -0.2460937,0.2929687 -0.2460937,0.5273437 0,0.28125 0.2226562,0.4570313 0.4921875,0.4570313 0.3398437,0 0.7265625,-0.2929688 0.7265625,-0.8671875 0,-0.6796875 -0.65625,-1.21875 -1.640625,-1.21875 -1.8867188,0 -3.76171876,2.0507812 -3.76171876,4.0898437 0,1.25390628 0.77343746,2.37890628 2.23828126,2.37890628 1.9453125,0 3.1875,-1.52343748 3.1875,-1.69921878 0,-0.09375 -0.09375,-0.1640625 -0.1523438,-0.1640625 -0.035156,0 -0.058594,0.011719 -0.1875,0.140625 -0.9140625,1.21875003 -2.2734375,1.44140628 -2.8242187,1.44140628 -0.984375,0 -1.3007813,-0.86718748 -1.3007813,-1.58203128 0,-0.5039062 0.2460938,-1.8867187 0.7617188,-2.8710937 0.375,-0.6679688 1.1484375,-1.4414063 2.0507812,-1.4414063 0.1875,0 0.9726563,0.023437 1.265625,0.6445313 z m 0,0"
       style="fill:#000000;fill-opacity:1;fill-rule:nonzero;stroke:none"
       aria-label="c"
       transform="matrix(1.3333333,0,0,1.3333333,482.63067,40.008827)" />
  </g>
</svg>
