<?xml version="1.0" encoding="UTF-8" standalone="no"?>
<!-- Created with Inkscape (http://www.inkscape.org/) -->

<svg
   version="1.1"
   id="svg1"
   width="537.73999"
   height="103.22"
   viewBox="0 0 537.73999 103.22"
   xmlns="http://www.w3.org/2000/svg"
   xmlns:svg="http://www.w3.org/2000/svg">
  <defs
     id="defs1" />
  <g
     id="g1">
    <path
       id="path1"
       d="M -9.96277,-38.70807 V 38.70807 H 393.34767 V -38.70807 Z"
       style="fill:#ccccff;fill-opacity:1;fill-rule:nonzero;stroke:none"
       transform="matrix(1.3333333,0,0,-1.3333333,13.284,51.609333)" />
    <path
       id="path2"
       d="M 57.09213,-28.3468 H 162.94711 V 28.34682 H 57.09213 Z"
       style="fill:none;stroke:#000000;stroke-width:0.79701;stroke-linecap:butt;stroke-linejoin:miter;stroke-miterlimit:10;stroke-dasharray:none;stroke-opacity:1"
       transform="matrix(1.3333333,0,0,-1.3333333,13.284,51.609333)" />
    <g
       id="g2"
       aria-label="b←f(a)"
       transform="matrix(1.3333333,0,0,1.3333333,119.62133,43.529333)">
      <path
         id="path3"
         d="m 3.3162266,-9.5962187 c 0.011719,-0.058594 0.035156,-0.140625 0.035156,-0.2109375 0,-0.140625 -0.140625,-0.140625 -0.1640625,-0.140625 -0.011719,0 -0.5390625,0.035156 -0.796875,0.070312 -0.234375,0.011719 -0.4570312,0.035156 -0.7148437,0.058594 -0.3398438,0.023437 -0.4453125,0.035156 -0.4453125,0.2929688 0,0.1523437 0.1523437,0.1523437 0.2929687,0.1523437 0.7265625,0 0.7265625,0.1289063 0.7265625,0.2695313 0,0.09375 -0.1171875,0.515625 -0.1757812,0.7734375 L 1.7341953,-6.9595 c -0.140625,0.5742188 -0.96093749,3.8320313 -1.01953124,4.0898438 -0.0703125,0.3632812 -0.0703125,0.609375 -0.0703125,0.796875 0,1.45312495 0.82031254,2.2148437 1.74609374,2.2148437 1.6640625,0 3.3867188,-2.1328125 3.3867188,-4.21875 0,-1.3125 -0.7382813,-2.25 -1.8164063,-2.25 -0.75,0 -1.4179687,0.6210938 -1.6992187,0.9023438 z m -0.9023438,9.4570312 c -0.46875,0 -0.9609375,-0.3515625 -0.9609375,-1.4648437 0,-0.46875 0.035156,-0.75 0.2929688,-1.7460938 0.046875,-0.1875 0.28125,-1.1132812 0.328125,-1.3007812 0.035156,-0.1054688 0.8789062,-1.3828125 1.8515625,-1.3828125 0.6328125,0 0.9257812,0.6328125 0.9257812,1.3710937 0,0.6914063 -0.4101562,2.3085938 -0.7617187,3.0585938 -0.3632813,0.77343745 -1.0195313,1.4648437 -1.6757813,1.4648437 z m 0,0"
         style="fill:#000000;fill-opacity:1;fill-rule:nonzero;stroke:none" />
      <path
         id="path4"
         d="m 25.719547,-3.30325 c 0.257812,0 0.515625,0 0.515625,-0.28125 0,-0.28125 -0.257813,-0.28125 -0.515625,-0.28125 H 15.067203 c 0.785156,-0.609375 1.171875,-1.1953125 1.289063,-1.3828125 0.644531,-0.984375 0.761718,-1.8984375 0.761718,-1.9101562 0,-0.1640625 -0.175781,-0.1640625 -0.28125,-0.1640625 -0.246093,0 -0.269531,0.023437 -0.316406,0.28125 -0.339844,1.40625 -1.183594,2.6015625 -2.800781,3.2695312 -0.164063,0.058594 -0.210938,0.082031 -0.210938,0.1875 0,0.1054688 0.07031,0.1289063 0.210938,0.1875 1.488281,0.6210938 2.449219,1.734375 2.8125,3.33984375 0.03516,0.17578125 0.05859,0.2109375 0.304687,0.2109375 0.105469,0 0.28125,0 0.28125,-0.1640625 0,-0.03515625 -0.128906,-0.9375 -0.726562,-1.89843745 C 16.098453,-2.3423125 15.688297,-2.8345 15.067203,-3.30325 Z m 0,0"
         style="fill:#000000;fill-opacity:1;fill-rule:nonzero;stroke:none" />
      <path
         id="path5"
         d="m 40.174625,-5.7641875 c 0.28125,0 0.398437,0 0.398437,-0.2695312 0,-0.1523438 -0.117187,-0.1523438 -0.375,-0.1523438 h -1.160156 c 0.269531,-1.4765625 0.480469,-2.4960937 0.585938,-2.953125 0.09375,-0.3398437 0.386718,-0.6679687 0.761718,-0.6679687 0.304688,0 0.609375,0.1289062 0.75,0.2578125 -0.5625,0.058594 -0.738281,0.46875 -0.738281,0.7148437 0,0.28125 0.222656,0.4570313 0.492188,0.4570313 0.292968,0 0.714843,-0.2460938 0.714843,-0.7851563 0,-0.609375 -0.597656,-0.9375 -1.230468,-0.9375 -0.621094,0 -1.21875,0.4570313 -1.5,1.0195313 -0.269532,0.5039062 -0.410157,1.0195312 -0.738282,2.8945312 h -0.960937 c -0.269531,0 -0.410156,0 -0.410156,0.2578125 0,0.1640625 0.08203,0.1640625 0.363281,0.1640625 h 0.925781 C 37.795719,-4.42825 37.209781,-1.193875 36.869937,0.34128125 36.635562,1.5951875 36.412906,2.6381563 35.698062,2.6381563 c -0.04687,0 -0.457031,0 -0.714843,-0.2695313 0.726562,-0.058594 0.726562,-0.6914062 0.726562,-0.703125 0,-0.28125 -0.210937,-0.4570312 -0.480469,-0.4570312 -0.292968,0 -0.726562,0.2460937 -0.726562,0.7851562 0,0.6210938 0.632812,0.9375 1.195312,0.9375 1.464844,0 2.0625,-2.625 2.226563,-3.33984375 C 38.182437,-1.522 38.885562,-5.3305937 38.955875,-5.7641875 Z m 0,0"
         style="fill:#000000;fill-opacity:1;fill-rule:nonzero;stroke:none" />
      <path
         id="path6"
         d="m 46.895328,3.4819063 c 0,-0.035156 0,-0.070312 -0.246094,-0.3046875 -1.429687,-1.453125 -2.238281,-3.82031255 -2.238281,-6.75 0,-2.7773438 0.679688,-5.1796875 2.34375,-6.8671878 0.140625,-0.128906 0.140625,-0.164062 0.140625,-0.199218 0,-0.09375 -0.07031,-0.117188 -0.128906,-0.117188 -0.1875,0 -1.359375,1.03125 -2.0625,2.4375 -0.738281,1.453125 -1.066406,2.9882813 -1.066406,4.7460938 0,1.2773437 0.199218,2.9882812 0.949218,4.52343745 0.84375,1.72265625 2.015625,2.64843755 2.179688,2.64843755 0.05859,0 0.128906,-0.023437 0.128906,-0.1171875 z m 0,0"
         style="fill:#000000;fill-opacity:1;fill-rule:nonzero;stroke:none" />
      <path
         id="path7"
         d="m 52.007633,-1.7095 c -0.07031,0.2460938 -0.07031,0.28125 -0.269531,0.5507813 -0.316407,0.39843745 -0.949219,1.0195312 -1.617188,1.0195312 -0.585937,0 -0.914062,-0.5390625 -0.914062,-1.3828125 0,-0.7851562 0.433593,-2.390625 0.714843,-3 0.480469,-0.9960937 1.160157,-1.5117187 1.722657,-1.5117187 0.9375,0 1.125,1.171875 1.125,1.2890625 0,0.011719 -0.03516,0.1992187 -0.05859,0.2226562 z m 0.925781,-3.6679687 c -0.164062,-0.375 -0.550781,-0.9492188 -1.289062,-0.9492188 -1.628907,0 -3.375,2.0976563 -3.375,4.21875 0,1.41796875 0.832031,2.25 1.804687,2.25 0.796875,0 1.464844,-0.609375 1.863281,-1.08984375 0.152344,0.84375 0.820313,1.08984375 1.253907,1.08984375 0.433593,0 0.773437,-0.2578125 1.03125,-0.7734375 0.234375,-0.4804687 0.433593,-1.359375 0.433593,-1.4179687 0,-0.070312 -0.05859,-0.1289063 -0.152343,-0.1289063 -0.128907,0 -0.140625,0.070312 -0.199219,0.28125 -0.210938,0.8554688 -0.480469,1.7578125 -1.078125,1.7578125 -0.410156,0 -0.433594,-0.375 -0.433594,-0.66796875 0,-0.32812495 0.03516,-0.48046875 0.164063,-1.04296875 0.105468,-0.3515625 0.175781,-0.6679687 0.292968,-1.0898437 0.527344,-2.15625 0.65625,-2.671875 0.65625,-2.7539063 0,-0.1992187 -0.152343,-0.3632812 -0.375,-0.3632812 -0.457031,0 -0.574218,0.5039062 -0.597656,0.6796875 z m 0,0"
         style="fill:#000000;fill-opacity:1;fill-rule:nonzero;stroke:none" />
      <path
         id="path8"
         d="m 59.109195,-3.5727812 c 0,-1.0898438 -0.140625,-2.8710938 -0.949218,-4.5351563 -0.84375,-1.7109375 -2.015625,-2.6484375 -2.179688,-2.6484375 -0.05859,0 -0.128906,0.02344 -0.128906,0.117188 0,0.03516 0,0.07031 0.246094,0.316406 1.441406,1.441406 2.238281,3.8085935 2.238281,6.738281 0,2.77734375 -0.667969,5.1796875 -2.332031,6.8671875 -0.152344,0.1289063 -0.152344,0.1640625 -0.152344,0.1992188 0,0.09375 0.07031,0.1171875 0.128906,0.1171875 0.1875,0 1.371094,-1.03125 2.074219,-2.4375 0.726562,-1.4648438 1.054687,-3.0117188 1.054687,-4.734375 z m 0,0"
         style="fill:#000000;fill-opacity:1;fill-rule:nonzero;stroke:none" />
    </g>
    <path
       id="path9"
       d="m 4.6178281,-3.3763125 c -0.1054687,-0.6210937 -0.515625,-1.171875 -1.2890625,-1.171875 -0.609375,0 -1.2539062,0.1523438 -2.0273437,0.9257813 -0.83203127,0.8320312 -0.90234377,1.7578125 -0.90234377,2.0625 0,0.6210937 0.43359375,1.78124995 1.82812497,1.78124995 2.3789063,0 3.4101563,-3.35156245 3.4101563,-4.76953125 0,-1.59375 -0.9257813,-2.5898437 -2.1445313,-2.5898437 -1.453125,0 -1.9101562,1.3007812 -1.9101562,1.5820312 0,0.140625 0.082031,0.3398438 0.375,0.3398438 0.3398437,0 0.5390625,-0.2929688 0.5390625,-0.5273438 0,-0.3398437 -0.3046875,-0.3398437 -0.46875,-0.3398437 0.4453125,-0.7382813 1.1484375,-0.796875 1.4414062,-0.796875 0.7265625,0 1.4179688,0.515625 1.4179688,1.7929687 0,0.3984375 -0.058594,0.9023438 -0.2695313,1.7109375 z m -2.3554687,3.31640625 c -1.1015625,0 -1.1015625,-1.03124995 -1.1015625,-1.12499995 0,-0.2695313 0.2578125,-1.6640625 0.6679687,-2.2617188 0.3984375,-0.5742187 0.8789063,-0.890625 1.5,-0.890625 1.0898438,0 1.1015625,1.1132813 1.1015625,1.3125 0,0.7265625 -0.6328125,2.96484375 -2.1679687,2.96484375 z M 9.7975156,-3.7864687 c -0.1640625,0 -0.3046875,0 -0.4453125,0.140625 -0.1523437,0.1523437 -0.1757812,0.3164062 -0.1757812,0.3867187 0,0.234375 0.1757812,0.3515625 0.3632812,0.3515625 0.2929688,0 0.5624999,-0.2460937 0.5624999,-0.6445312 0,-0.4804688 -0.4687499,-0.8554688 -1.1718749,-0.8554688 -1.3476562,0 -2.671875,1.4296875 -2.671875,2.8359375 0,0.890625 0.5742188,1.67578125 1.6171875,1.67578125 1.4179688,0 2.2617184,-1.0546875 2.2617184,-1.17187495 0,-0.058594 -0.07031,-0.1289063 -0.128906,-0.1289063 -0.046875,0 -0.070312,0.023437 -0.1289061,0.09375 -0.7851563,0.99609375 -1.875,0.99609375 -1.9921875,0.99609375 -0.6210938,0 -0.890625,-0.4921875 -0.890625,-1.08984375 0,-0.4101562 0.1992187,-1.3710937 0.5390625,-1.9921875 0.3046875,-0.5625 0.8554687,-0.9960937 1.40625,-0.9960937 0.328125,0 0.7148437,0.1289062 0.8554687,0.3984375 z m 0,0"
       style="fill:#0000ff;fill-opacity:1;fill-rule:nonzero;stroke:none"
       aria-label="∂c"
       transform="matrix(1.3333333,0,0,1.3333333,108.24133,59.908)" />
    <path
       id="path10"
       d="M 0,0 H 11.109"
       style="fill:none;stroke:#0000ff;stroke-width:0.398;stroke-linecap:butt;stroke-linejoin:miter;stroke-miterlimit:10;stroke-dasharray:none;stroke-opacity:1"
       transform="matrix(1.3333333,0,0,-1.3333333,107.60533,62.657333)" />
    <g
       id="g10"
       aria-label="∂a&#10;←f&#10;′&#10;(a)&#10;∂c"
       transform="matrix(1.3333333,0,0,1.3333333,107.60533,74.036)">
      <path
         id="path11"
         d="m 4.6172891,-3.3756328 c -0.1054688,-0.6210938 -0.515625,-1.171875 -1.2890625,-1.171875 -0.609375,0 -1.2539063,0.1523437 -2.0273438,0.9257812 -0.83203124,0.8320313 -0.90234374,1.7578125 -0.90234374,2.0625 0,0.62109379 0.43359375,1.78125004 1.82812504,1.78125004 2.3789062,0 3.4101562,-3.35156254 3.4101562,-4.76953124 0,-1.59375 -0.9257812,-2.5898438 -2.1445312,-2.5898438 -1.453125,0 -1.9101563,1.3007813 -1.9101563,1.5820313 0,0.140625 0.082031,0.3398437 0.375,0.3398437 0.3398438,0 0.5390625,-0.2929687 0.5390625,-0.5273437 0,-0.3398438 -0.3046875,-0.3398438 -0.46875,-0.3398438 0.4453125,-0.7382812 1.1484375,-0.796875 1.4414063,-0.796875 0.7265625,0 1.4179687,0.515625 1.4179687,1.7929688 0,0.3984375 -0.058594,0.9023437 -0.2695312,1.7109375 z m -2.3554688,3.31640624 c -1.1015625,0 -1.1015625,-1.03125004 -1.1015625,-1.12500004 0,-0.2695312 0.2578125,-1.6640625 0.6679688,-2.2617187 0.3984375,-0.5742188 0.8789062,-0.890625 1.5,-0.890625 1.0898437,0 1.1015625,1.1132812 1.1015625,1.3125 0,0.7265625 -0.6328125,2.96484374 -2.1679688,2.96484374 z M 9.5626016,-3.7623516 c -0.1757813,-0.375 -0.46875,-0.6445312 -0.9140625,-0.6445312 -1.171875,0 -2.4023438,1.4648437 -2.4023438,2.9179687 0,0.93750004 0.5507813,1.59375004 1.3242188,1.59375004 0.1992187,0 0.703125,-0.03515625 1.3007812,-0.73828125 0.070312,0.41015625 0.421875,0.73828125 0.9023438,0.73828125 0.3515629,0 0.5742189,-0.22265625 0.7382809,-0.5390625 0.164063,-0.36328125 0.292969,-0.97265624 0.292969,-0.99609374 0,-0.09375 -0.08203,-0.09375 -0.117187,-0.09375 -0.09375,0 -0.105469,0.035156 -0.140625,0.1757812 -0.164063,0.64453129 -0.351563,1.24218754 -0.7500004,1.24218754 -0.2695313,0 -0.3046875,-0.2578125 -0.3046875,-0.45703125 0,-0.22265625 0.023437,-0.3046875 0.1289062,-0.73828129 0.1171875,-0.421875 0.1289063,-0.5273437 0.2226563,-0.9023437 l 0.3515624,-1.3945313 c 0.07031,-0.28125 0.07031,-0.2929687 0.07031,-0.3398437 0,-0.1640625 -0.117188,-0.2695313 -0.2812504,-0.2695313 -0.2460938,0 -0.3867188,0.2226563 -0.421875,0.4453125 z m -0.6445313,2.578125 c -0.046875,0.1757813 -0.046875,0.19921879 -0.1992187,0.36328129 -0.4453125,0.55078125 -0.84375,0.71484375 -1.125,0.71484375 -0.5039063,0 -0.6445313,-0.55078125 -0.6445313,-0.93750004 0,-0.5039062 0.328125,-1.7226562 0.5507813,-2.1796875 0.3046875,-0.5976562 0.7617187,-0.9609375 1.1601562,-0.9609375 0.6445313,0 0.7851563,0.8203125 0.7851563,0.8789063 0,0.058594 -0.023437,0.1171875 -0.035156,0.1640625 z m 0,0"
         style="fill:#0000ff;fill-opacity:1;fill-rule:nonzero;stroke:none" />
      <path
         id="path12"
         d="m 30.603617,-8.2506328 c 0.257813,0 0.515625,0 0.515625,-0.28125 0,-0.28125 -0.257812,-0.28125 -0.515625,-0.28125 H 19.951273 c 0.785157,-0.609375 1.171875,-1.1953122 1.289063,-1.3828122 0.644531,-0.984375 0.761719,-1.898438 0.761719,-1.910157 0,-0.164062 -0.175782,-0.164062 -0.28125,-0.164062 -0.246094,0 -0.269532,0.02344 -0.316407,0.28125 -0.339843,1.40625 -1.183593,2.6015624 -2.800781,3.2695312 -0.164062,0.058594 -0.210937,0.082031 -0.210937,0.1875 0,0.1054687 0.07031,0.1289062 0.210937,0.1875 1.488281,0.6210937 2.449219,1.734375 2.8125,3.3398437 0.03516,0.1757813 0.05859,0.2109375 0.304688,0.2109375 0.105468,0 0.28125,0 0.28125,-0.1640625 0,-0.035156 -0.128907,-0.9375 -0.726563,-1.8984375 -0.292969,-0.4335937 -0.703125,-0.9257812 -1.324219,-1.3945312 z m 0,0"
         style="fill:#0000ff;fill-opacity:1;fill-rule:nonzero;stroke:none" />
      <path
         id="path13"
         d="m 43.6085,-10.71157 c 0.28125,0 0.398437,0 0.398437,-0.269532 0,-0.152343 -0.117187,-0.152343 -0.375,-0.152343 h -1.160156 c 0.269531,-1.476563 0.480469,-2.496094 0.585938,-2.953125 0.09375,-0.339844 0.386718,-0.667969 0.761718,-0.667969 0.304688,0 0.609375,0.128906 0.75,0.257812 -0.5625,0.05859 -0.738281,0.46875 -0.738281,0.714844 0,0.28125 0.222656,0.457031 0.492188,0.457031 0.292968,0 0.714843,-0.246093 0.714843,-0.785156 0,-0.609375 -0.597656,-0.9375 -1.230468,-0.9375 -0.621094,0 -1.21875,0.457031 -1.5,1.019531 -0.269532,0.503907 -0.410157,1.019532 -0.738282,2.894532 H 40.6085 c -0.269531,0 -0.410156,0 -0.410156,0.257812 0,0.164063 0.08203,0.164063 0.363281,0.164063 h 0.925781 c -0.257812,1.3359372 -0.84375,4.5703122 -1.183594,6.1054684 -0.234375,1.2539063 -0.457031,2.296875 -1.171875,2.296875 -0.04687,0 -0.457031,0 -0.714843,-0.2695312 0.726562,-0.058594 0.726562,-0.6914063 0.726562,-0.703125 0,-0.28125 -0.210937,-0.4570313 -0.480469,-0.4570313 -0.292968,0 -0.726562,0.2460938 -0.726562,0.7851563 0,0.6210937 0.632812,0.9375 1.195312,0.9375 1.464844,0 2.0625,-2.625 2.226563,-3.3398438 0.257812,-1.1132812 0.960937,-4.9218754 1.03125,-5.3554684 z m 0,0"
         style="fill:#0000ff;fill-opacity:1;fill-rule:nonzero;stroke:none" />
      <path
         id="path14"
         d="m 48.187602,-14.886375 c 0.04687,-0.117188 0.09375,-0.210938 0.09375,-0.304688 0,-0.292968 -0.257813,-0.527343 -0.574219,-0.527343 -0.28125,0 -0.457031,0.1875 -0.527344,0.445312 l -1.183594,4.359375 c 0,0.01172 -0.03516,0.128906 -0.03516,0.128906 0,0.117188 0.257813,0.1875 0.339844,0.1875 0.05859,0 0.07031,-0.03516 0.128906,-0.164062 z m 0,0"
         style="fill:#0000ff;fill-opacity:1;fill-rule:nonzero;stroke:none" />
      <path
         id="path15"
         d="m 53.569437,-1.4654766 c 0,-0.035156 0,-0.070312 -0.246093,-0.3046875 -1.429688,-1.453125 -2.238282,-3.8203125 -2.238282,-6.75 0,-2.7773439 0.679688,-5.1796879 2.34375,-6.8671879 0.140625,-0.128906 0.140625,-0.164062 0.140625,-0.199218 0,-0.09375 -0.07031,-0.117188 -0.128906,-0.117188 -0.1875,0 -1.359375,1.03125 -2.0625,2.4375 -0.738281,1.453125 -1.066406,2.988281 -1.066406,4.7460939 0,1.2773438 0.199219,2.9882813 0.949219,4.5234375 0.84375,1.7226563 2.015625,2.6484375 2.179687,2.6484375 0.05859,0 0.128906,-0.023437 0.128906,-0.1171875 z m 0,0"
         style="fill:#0000ff;fill-opacity:1;fill-rule:nonzero;stroke:none" />
      <path
         id="path16"
         d="m 58.681742,-6.6568828 c -0.07031,0.2460937 -0.07031,0.28125 -0.269531,0.5507812 -0.316406,0.3984375 -0.949219,1.0195313 -1.617188,1.0195313 -0.585937,0 -0.914062,-0.5390625 -0.914062,-1.3828125 0,-0.7851563 0.433594,-2.390625 0.714844,-3 0.480468,-0.9960942 1.160156,-1.5117192 1.722656,-1.5117192 0.9375,0 1.125,1.1718754 1.125,1.2890629 0,0.011719 -0.03516,0.1992188 -0.05859,0.2226563 z m 0.925781,-3.6679692 c -0.164062,-0.375 -0.550781,-0.949218 -1.289062,-0.949218 -1.628906,0 -3.375,2.0976559 -3.375,4.2187497 0,1.4179687 0.832031,2.25 1.804687,2.25 0.796875,0 1.464844,-0.609375 1.863282,-1.0898438 0.152343,0.84375 0.820312,1.0898438 1.253906,1.0898438 0.433594,0 0.773437,-0.2578125 1.03125,-0.7734375 0.234375,-0.4804688 0.433594,-1.359375 0.433594,-1.4179688 0,-0.070312 -0.05859,-0.1289062 -0.152344,-0.1289062 -0.128906,0 -0.140625,0.070312 -0.199219,0.28125 -0.210937,0.8554687 -0.480469,1.7578125 -1.078125,1.7578125 -0.410156,0 -0.433594,-0.375 -0.433594,-0.6679688 0,-0.328125 0.03516,-0.4804687 0.164063,-1.0429687 0.105469,-0.3515625 0.175781,-0.6679688 0.292969,-1.0898438 0.527343,-2.1562504 0.65625,-2.6718754 0.65625,-2.7539064 0,-0.199219 -0.152344,-0.363281 -0.375,-0.363281 -0.457032,0 -0.574219,0.503906 -0.597657,0.679687 z m 0,0"
         style="fill:#0000ff;fill-opacity:1;fill-rule:nonzero;stroke:none" />
      <path
         id="path17"
         d="m 65.786234,-8.5201641 c 0,-1.0898437 -0.140625,-2.8710939 -0.949218,-4.5351559 -0.84375,-1.710938 -2.015625,-2.648438 -2.179688,-2.648438 -0.05859,0 -0.128906,0.02344 -0.128906,0.117188 0,0.03516 0,0.07031 0.246094,0.316406 1.441406,1.441406 2.238281,3.808594 2.238281,6.7382812 0,2.7773437 -0.667969,5.1796875 -2.332031,6.8671875 -0.152344,0.1289062 -0.152344,0.1640625 -0.152344,0.1992187 0,0.09375 0.07031,0.1171875 0.128906,0.1171875 0.1875,0 1.371094,-1.03125 2.074219,-2.4375 0.726562,-1.4648437 1.054687,-3.0117187 1.054687,-4.734375 z m 0,0"
         style="fill:#0000ff;fill-opacity:1;fill-rule:nonzero;stroke:none" />
      <path
         id="path18"
         d="m 73.016703,-13.972313 c -0.105469,-0.621093 -0.515625,-1.171875 -1.289062,-1.171875 -0.609375,0 -1.253907,0.152344 -2.027344,0.925782 -0.832031,0.832031 -0.902344,1.757812 -0.902344,2.0625 0,0.621093 0.433594,1.78125 1.828125,1.78125 2.378906,0 3.410156,-3.351563 3.410156,-4.769532 0,-1.593749 -0.925781,-2.589843 -2.144531,-2.589843 -1.453125,0 -1.910156,1.300781 -1.910156,1.582031 0,0.140625 0.08203,0.339844 0.375,0.339844 0.339844,0 0.539062,-0.292969 0.539062,-0.527344 0,-0.339844 -0.304687,-0.339844 -0.46875,-0.339844 0.445313,-0.738281 1.148438,-0.796875 1.441407,-0.796875 0.726562,0 1.417968,0.515625 1.417968,1.792969 0,0.398437 -0.05859,0.902344 -0.269531,1.710937 z m -2.355469,3.316407 c -1.101562,0 -1.101562,-1.03125 -1.101562,-1.125 0,-0.269532 0.257812,-1.664063 0.667969,-2.261719 0.398437,-0.574219 0.878906,-0.890625 1.5,-0.890625 1.089843,0 1.101562,1.113281 1.101562,1.3125 0,0.726562 -0.632812,2.964844 -2.167969,2.964844 z m 7.535157,-3.726563 c -0.164063,0 -0.304688,0 -0.445313,0.140625 -0.152344,0.152344 -0.175781,0.316406 -0.175781,0.386719 0,0.234375 0.175781,0.351562 0.363281,0.351562 0.292969,0 0.5625,-0.246093 0.5625,-0.644531 0,-0.480469 -0.46875,-0.855469 -1.171875,-0.855469 -1.347656,0 -2.671875,1.429688 -2.671875,2.835938 0,0.890625 0.574219,1.675781 1.617188,1.675781 1.417968,0 2.261718,-1.054687 2.261718,-1.171875 0,-0.05859 -0.07031,-0.128906 -0.128906,-0.128906 -0.04687,0 -0.07031,0.02344 -0.128906,0.09375 -0.785156,0.996094 -1.875,0.996094 -1.992188,0.996094 -0.621093,0 -0.890625,-0.492188 -0.890625,-1.089844 0,-0.410156 0.199219,-1.371094 0.539063,-1.992188 0.304687,-0.5625 0.855469,-0.996093 1.40625,-0.996093 0.328125,0 0.714844,0.128906 0.855469,0.398437 z m 0,0"
         style="fill:#0000ff;fill-opacity:1;fill-rule:nonzero;stroke:none" />
    </g>
    <path
       id="path19"
       d="M 0,0 H 10.154"
       style="fill:none;stroke:#0000ff;stroke-width:0.398;stroke-linecap:butt;stroke-linejoin:miter;stroke-miterlimit:10;stroke-dasharray:none;stroke-opacity:1"
       transform="matrix(1.3333333,0,0,-1.3333333,198.80533,62.657333)" />
    <path
       id="path20"
       d="m 4.6162812,-3.3756328 c -0.1054687,-0.6210938 -0.515625,-1.171875 -1.2890625,-1.171875 -0.609375,0 -1.2539062,0.1523437 -2.0273437,0.9257812 -0.83203125,0.8320313 -0.90234375,1.7578125 -0.90234375,2.0625 0,0.62109379 0.43359375,1.78125004 1.82812495,1.78125004 2.3789063,0 3.4101563,-3.35156254 3.4101563,-4.76953124 0,-1.59375 -0.9257813,-2.5898438 -2.1445313,-2.5898438 -1.453125,0 -1.9101562,1.3007813 -1.9101562,1.5820313 0,0.140625 0.082031,0.3398437 0.375,0.3398437 0.3398437,0 0.5390625,-0.2929687 0.5390625,-0.5273437 0,-0.3398438 -0.3046875,-0.3398438 -0.46875,-0.3398438 0.4453125,-0.7382812 1.1484375,-0.796875 1.4414062,-0.796875 0.7265625,0 1.4179688,0.515625 1.4179688,1.7929688 0,0.3984375 -0.058594,0.9023437 -0.2695313,1.7109375 z m -2.3554687,3.31640624 c -1.1015625,0 -1.1015625,-1.03125004 -1.1015625,-1.12500004 0,-0.2695312 0.2578125,-1.6640625 0.6679687,-2.2617187 0.3984375,-0.5742188 0.8789063,-0.890625 1.5,-0.890625 1.0898438,0 1.1015625,1.1132812 1.1015625,1.3125 0,0.7265625 -0.6328125,2.96484374 -2.1679687,2.96484374 z M 8.2256562,-6.8092266 c 0,0 0,-0.1054687 -0.1289062,-0.1054687 -0.2226563,0 -0.9492188,0.082031 -1.21875,0.1054687 -0.070312,0 -0.1875,0.011719 -0.1875,0.1992188 0,0.1171875 0.09375,0.1171875 0.2460937,0.1171875 0.46875,0 0.4921875,0.070312 0.4921875,0.1640625 0,0.070312 -0.082031,0.4101562 -0.140625,0.6210937 L 6.4795625,-2.4615703 C 6.3506562,-1.9576641 6.3155,-1.8053203 6.3155,-1.4537578 c 0,0.94921874 0.5273437,1.55859374 1.265625,1.55859374 1.171875,0 2.4023437,-1.47656254 2.4023437,-2.91796874 0,-0.9023438 -0.5273437,-1.59375 -1.3242187,-1.59375 -0.4570313,0 -0.8671875,0.2929687 -1.171875,0.5976562 z m -0.9375,3.7734375 C 7.34675,-3.2584453 7.34675,-3.2818828 7.4405,-3.3873516 c 0.4921875,-0.6445312 0.9375,-0.796875 1.1953125,-0.796875 0.3632812,0 0.6328125,0.2929688 0.6328125,0.9375 0,0.5859375 -0.328125,1.734375 -0.515625,2.109375 -0.328125,0.66796879 -0.7851563,1.03125004 -1.171875,1.03125004 -0.3398438,0 -0.6679688,-0.26953125 -0.6679688,-1.00781254 0,-0.1875 0,-0.3867187 0.1640625,-1.0078125 z m 0,0"
       style="fill:#0000ff;fill-opacity:1;fill-rule:nonzero;stroke:none"
       aria-label="∂b"
       transform="matrix(1.3333333,0,0,1.3333333,198.82933,74.036)" />
    <path
       id="path21"
       d="M 220.43777,-28.3468 H 326.29275 V 28.34682 H 220.43777 Z"
       style="fill:none;stroke:#000000;stroke-width:0.79701;stroke-linecap:butt;stroke-linejoin:miter;stroke-miterlimit:10;stroke-dasharray:none;stroke-opacity:1"
       transform="matrix(1.3333333,0,0,-1.3333333,13.284,51.609333)" />
    <g
       id="g21"
       aria-label="c←g(b)"
       transform="matrix(1.3333333,0,0,1.3333333,338.89733,43.529333)">
      <path
         id="path22"
         d="m 5.6141094,-5.3891875 c -0.28125,0 -0.4101563,0 -0.609375,0.1640625 -0.082031,0.082031 -0.2460938,0.2929688 -0.2460938,0.5273438 0,0.28125 0.2226563,0.4570312 0.4921875,0.4570312 0.3398438,0 0.7265625,-0.2929687 0.7265625,-0.8671875 0,-0.6796875 -0.65625,-1.21875 -1.640625,-1.21875 -1.8867187,0 -3.76171872,2.0507813 -3.76171872,4.0898438 0,1.2539062 0.77343752,2.3789062 2.23828122,2.3789062 1.9453125,0 3.1875,-1.5234375 3.1875,-1.6992187 0,-0.09375 -0.09375,-0.1640625 -0.1523437,-0.1640625 -0.035156,0 -0.058594,0.011719 -0.1875,0.140625 -0.9140625,1.21874995 -2.2734375,1.4414062 -2.8242188,1.4414062 -0.984375,0 -1.3007812,-0.8671875 -1.3007812,-1.5820312 0,-0.5039063 0.2460937,-1.8867188 0.7617187,-2.8710938 0.375,-0.6679687 1.1484375,-1.4414062 2.0507813,-1.4414062 0.1875,0 0.9726562,0.023437 1.265625,0.6445312 z m 0,0"
         style="fill:#000000;fill-opacity:1;fill-rule:nonzero;stroke:none" />
      <path
         id="path23"
         d="m 25.952,-3.30325 c 0.257813,0 0.515625,0 0.515625,-0.28125 0,-0.28125 -0.257812,-0.28125 -0.515625,-0.28125 H 15.299656 c 0.785157,-0.609375 1.171875,-1.1953125 1.289063,-1.3828125 0.644531,-0.984375 0.761719,-1.8984375 0.761719,-1.9101562 0,-0.1640625 -0.175782,-0.1640625 -0.28125,-0.1640625 -0.246094,0 -0.269532,0.023437 -0.316407,0.28125 -0.339843,1.40625 -1.183593,2.6015625 -2.800781,3.2695312 -0.164062,0.058594 -0.210937,0.082031 -0.210937,0.1875 0,0.1054688 0.07031,0.1289063 0.210937,0.1875 1.488281,0.6210938 2.449219,1.734375 2.8125,3.33984375 0.03516,0.17578125 0.05859,0.2109375 0.304688,0.2109375 0.105468,0 0.28125,0 0.28125,-0.1640625 0,-0.03515625 -0.128907,-0.9375 -0.726563,-1.89843745 C 16.330906,-2.3423125 15.92075,-2.8345 15.299656,-3.30325 Z m 0,0"
         style="fill:#000000;fill-opacity:1;fill-rule:nonzero;stroke:none" />
      <path
         id="path24"
         d="m 39.015477,-1.8149687 c -0.05859,0.2226562 -0.09375,0.28125 -0.28125,0.4921875 -0.585938,0.7617187 -1.183594,1.0429687 -1.628907,1.0429687 -0.46875,0 -0.914062,-0.375 -0.914062,-1.3710937 0,-0.7617188 0.421875,-2.3671875 0.738281,-3.0117188 0.421875,-0.796875 1.066406,-1.3710937 1.664063,-1.3710937 0.949218,0 1.136718,1.171875 1.136718,1.2539062 l -0.04687,0.2109375 z m 0.890625,-3.5625 c -0.1875,-0.4101563 -0.597657,-0.9492188 -1.3125,-0.9492188 -1.558594,0 -3.339844,1.96875 -3.339844,4.1015625 0,1.5 0.902344,2.2265625 1.816406,2.2265625 0.761719,0 1.441406,-0.59765625 1.699219,-0.890625 L 38.452977,0.399875 c -0.199219,0.796875 -0.292969,1.1484375 -0.808594,1.6523438 -0.585938,0.5859375 -1.125,0.5859375 -1.441406,0.5859375 -0.433594,0 -0.796875,-0.023437 -1.148438,-0.140625 0.457031,-0.1289063 0.574219,-0.5273438 0.574219,-0.6914063 0,-0.2226562 -0.175781,-0.4570312 -0.492188,-0.4570312 -0.339843,0 -0.714843,0.2929687 -0.714843,0.7617187 0,0.5859375 0.585937,0.8203125 1.804687,0.8203125 1.851563,0 2.8125,-1.1953125 3,-1.96875 l 1.59375,-6.421875 c 0.04687,-0.1757812 0.04687,-0.1992187 0.04687,-0.234375 0,-0.1992187 -0.164062,-0.3632812 -0.375,-0.3632812 -0.351562,0 -0.550781,0.2929687 -0.585937,0.6796875 z m 0,0"
         style="fill:#000000;fill-opacity:1;fill-rule:nonzero;stroke:none" />
      <path
         id="path25"
         d="m 46.070164,3.4819063 c 0,-0.035156 0,-0.070312 -0.246094,-0.3046875 -1.429687,-1.453125 -2.238281,-3.82031255 -2.238281,-6.75 0,-2.7773438 0.679688,-5.1796875 2.34375,-6.8671878 0.140625,-0.128906 0.140625,-0.164062 0.140625,-0.199218 0,-0.09375 -0.07031,-0.117188 -0.128906,-0.117188 -0.1875,0 -1.359375,1.03125 -2.0625,2.4375 -0.738281,1.453125 -1.066406,2.9882813 -1.066406,4.7460938 0,1.2773437 0.199218,2.9882812 0.949218,4.52343745 0.84375,1.72265625 2.015625,2.64843755 2.179688,2.64843755 0.05859,0 0.128906,-0.023437 0.128906,-0.1171875 z m 0,0"
         style="fill:#000000;fill-opacity:1;fill-rule:nonzero;stroke:none" />
      <path
         id="path26"
         d="m 50.183445,-9.5962187 c 0.01172,-0.058594 0.03516,-0.140625 0.03516,-0.2109375 0,-0.140625 -0.140625,-0.140625 -0.164063,-0.140625 -0.01172,0 -0.539062,0.035156 -0.796875,0.070312 -0.234375,0.011719 -0.457031,0.035156 -0.714844,0.058594 -0.339843,0.023437 -0.445312,0.035156 -0.445312,0.2929688 0,0.1523437 0.152344,0.1523437 0.292969,0.1523437 0.726562,0 0.726562,0.1289063 0.726562,0.2695313 0,0.09375 -0.117187,0.515625 -0.175781,0.7734375 L 48.601414,-6.9595 c -0.140625,0.5742188 -0.960937,3.8320313 -1.019531,4.0898438 -0.07031,0.3632812 -0.07031,0.609375 -0.07031,0.796875 0,1.45312495 0.820313,2.2148437 1.746094,2.2148437 1.664063,0 3.386719,-2.1328125 3.386719,-4.21875 0,-1.3125 -0.738281,-2.25 -1.816406,-2.25 -0.75,0 -1.417969,0.6210938 -1.699219,0.9023438 z m -0.902343,9.4570312 c -0.46875,0 -0.960938,-0.3515625 -0.960938,-1.4648437 0,-0.46875 0.03516,-0.75 0.292969,-1.7460938 0.04687,-0.1875 0.28125,-1.1132812 0.328125,-1.3007812 0.03516,-0.1054688 0.878906,-1.3828125 1.851562,-1.3828125 0.632813,0 0.925782,0.6328125 0.925782,1.3710937 0,0.6914063 -0.410157,2.3085938 -0.761719,3.0585938 -0.363281,0.77343745 -1.019531,1.4648437 -1.675781,1.4648437 z m 0,0"
         style="fill:#000000;fill-opacity:1;fill-rule:nonzero;stroke:none" />
      <path
         id="path27"
         d="m 56.883641,-3.5727812 c 0,-1.0898438 -0.140625,-2.8710938 -0.949219,-4.5351563 -0.84375,-1.7109375 -2.015625,-2.6484375 -2.179688,-2.6484375 -0.05859,0 -0.128906,0.02344 -0.128906,0.117188 0,0.03516 0,0.07031 0.246094,0.316406 1.441406,1.441406 2.238281,3.8085935 2.238281,6.738281 0,2.77734375 -0.667969,5.1796875 -2.332031,6.8671875 -0.152344,0.1289063 -0.152344,0.1640625 -0.152344,0.1992188 0,0.09375 0.07031,0.1171875 0.128906,0.1171875 0.1875,0 1.371094,-1.03125 2.074219,-2.4375 0.726563,-1.4648438 1.054688,-3.0117188 1.054688,-4.734375 z m 0,0"
         style="fill:#000000;fill-opacity:1;fill-rule:nonzero;stroke:none" />
    </g>
    <path
       id="path28"
       d="m 4.6165391,-3.3763125 c -0.1054688,-0.6210937 -0.515625,-1.171875 -1.2890625,-1.171875 -0.609375,0 -1.2539063,0.1523438 -2.0273438,0.9257813 -0.83203124,0.8320312 -0.90234374,1.7578125 -0.90234374,2.0625 0,0.6210937 0.43359375,1.78124995 1.82812504,1.78124995 2.3789062,0 3.4101562,-3.35156245 3.4101562,-4.76953125 0,-1.59375 -0.9257812,-2.5898437 -2.1445312,-2.5898437 -1.453125,0 -1.9101563,1.3007812 -1.9101563,1.5820312 0,0.140625 0.082031,0.3398438 0.375,0.3398438 0.3398438,0 0.5390625,-0.2929688 0.5390625,-0.5273438 0,-0.3398437 -0.3046875,-0.3398437 -0.46875,-0.3398437 0.4453125,-0.7382813 1.1484375,-0.796875 1.4414063,-0.796875 0.7265625,0 1.4179687,0.515625 1.4179687,1.7929687 0,0.3984375 -0.058594,0.9023438 -0.2695312,1.7109375 z m -2.3554688,3.31640625 c -1.1015625,0 -1.1015625,-1.03124995 -1.1015625,-1.12499995 0,-0.2695313 0.2578125,-1.6640625 0.6679688,-2.2617188 0.3984375,-0.5742187 0.8789062,-0.890625 1.5,-0.890625 1.0898437,0 1.1015625,1.1132813 1.1015625,1.3125 0,0.7265625 -0.6328125,2.96484375 -2.1679688,2.96484375 z M 9.7962266,-3.7864687 c -0.1640625,0 -0.3046875,0 -0.4453125,0.140625 -0.1523438,0.1523437 -0.1757813,0.3164062 -0.1757813,0.3867187 0,0.234375 0.1757813,0.3515625 0.3632813,0.3515625 0.2929687,0 0.5624999,-0.2460937 0.5624999,-0.6445312 0,-0.4804688 -0.4687499,-0.8554688 -1.1718749,-0.8554688 -1.3476563,0 -2.671875,1.4296875 -2.671875,2.8359375 0,0.890625 0.5742187,1.67578125 1.6171875,1.67578125 1.4179687,0 2.2617184,-1.0546875 2.2617184,-1.17187495 0,-0.058594 -0.07031,-0.1289063 -0.128906,-0.1289063 -0.046875,0 -0.070312,0.023437 -0.1289062,0.09375 -0.7851562,0.99609375 -1.875,0.99609375 -1.9921875,0.99609375 -0.6210937,0 -0.890625,-0.4921875 -0.890625,-1.08984375 0,-0.4101562 0.1992188,-1.3710937 0.5390625,-1.9921875 0.3046875,-0.5625 0.8554688,-0.9960937 1.40625,-0.9960937 0.328125,0 0.7148438,0.1289062 0.8554688,0.3984375 z m 0,0"
       style="fill:#0000ff;fill-opacity:1;fill-rule:nonzero;stroke:none"
       aria-label="∂c"
       transform="matrix(1.3333333,0,0,1.3333333,327.48133,59.908)" />
    <path
       id="path29"
       d="M 0,0 H 10.154"
       style="fill:none;stroke:#0000ff;stroke-width:0.398;stroke-linecap:butt;stroke-linejoin:miter;stroke-miterlimit:10;stroke-dasharray:none;stroke-opacity:1"
       transform="matrix(1.3333333,0,0,-1.3333333,327.48133,62.657333)" />
    <g
       id="g29"
       aria-label="∂b&#10;←g&#10;′&#10;(b)&#10;∂c"
       transform="matrix(1.3333333,0,0,1.3333333,327.50533,74.036)">
      <path
         id="path30"
         d="m 4.6161172,-3.3756328 c -0.1054688,-0.6210938 -0.515625,-1.171875 -1.2890625,-1.171875 -0.609375,0 -1.2539063,0.1523437 -2.0273438,0.9257812 -0.83203121,0.8320313 -0.90234371,1.7578125 -0.90234371,2.0625 0,0.62109379 0.43359375,1.78125004 1.82812501,1.78125004 2.3789062,0 3.4101562,-3.35156254 3.4101562,-4.76953124 0,-1.59375 -0.9257812,-2.5898438 -2.1445312,-2.5898438 -1.453125,0 -1.9101563,1.3007813 -1.9101563,1.5820313 0,0.140625 0.082031,0.3398437 0.375,0.3398437 0.3398438,0 0.5390625,-0.2929687 0.5390625,-0.5273437 0,-0.3398438 -0.3046875,-0.3398438 -0.46875,-0.3398438 0.4453125,-0.7382812 1.1484375,-0.796875 1.4414063,-0.796875 0.7265625,0 1.4179687,0.515625 1.4179687,1.7929688 0,0.3984375 -0.058594,0.9023437 -0.2695312,1.7109375 z m -2.3554688,3.31640624 c -1.1015625,0 -1.1015625,-1.03125004 -1.1015625,-1.12500004 0,-0.2695312 0.2578125,-1.6640625 0.6679688,-2.2617187 0.3984375,-0.5742188 0.8789062,-0.890625 1.5,-0.890625 1.0898437,0 1.1015625,1.1132812 1.1015625,1.3125 0,0.7265625 -0.6328125,2.96484374 -2.1679688,2.96484374 z M 8.2254922,-6.8092266 c 0,0 0,-0.1054687 -0.1289063,-0.1054687 -0.2226562,0 -0.9492187,0.082031 -1.21875,0.1054687 -0.070312,0 -0.1875,0.011719 -0.1875,0.1992188 0,0.1171875 0.09375,0.1171875 0.2460938,0.1171875 0.46875,0 0.4921875,0.070312 0.4921875,0.1640625 0,0.070312 -0.082031,0.4101562 -0.140625,0.6210937 l -0.8085938,3.2460938 c -0.1289062,0.5039062 -0.1640625,0.65625 -0.1640625,1.0078125 0,0.94921874 0.5273438,1.55859374 1.265625,1.55859374 1.171875,0 2.4023438,-1.47656254 2.4023438,-2.91796874 0,-0.9023438 -0.5273438,-1.59375 -1.3242188,-1.59375 -0.4570312,0 -0.8671875,0.2929687 -1.171875,0.5976562 z m -0.9375,3.7734375 c 0.058594,-0.2226562 0.058594,-0.2460937 0.1523437,-0.3515625 0.4921875,-0.6445312 0.9375,-0.796875 1.1953125,-0.796875 0.3632813,0 0.6328125,0.2929688 0.6328125,0.9375 0,0.5859375 -0.328125,1.734375 -0.515625,2.109375 -0.328125,0.66796879 -0.7851562,1.03125004 -1.171875,1.03125004 -0.3398437,0 -0.6679687,-0.26953125 -0.6679687,-1.00781254 0,-0.1875 0,-0.3867187 0.1640625,-1.0078125 z m 0,0"
         style="fill:#0000ff;fill-opacity:1;fill-rule:nonzero;stroke:none" />
      <path
         id="path31"
         d="m 29.852445,-8.2506328 c 0.257813,0 0.515625,0 0.515625,-0.28125 0,-0.28125 -0.257812,-0.28125 -0.515625,-0.28125 H 19.200102 c 0.785156,-0.609375 1.171875,-1.1953122 1.289062,-1.3828122 0.644531,-0.984375 0.761719,-1.898438 0.761719,-1.910157 0,-0.164062 -0.175781,-0.164062 -0.28125,-0.164062 -0.246094,0 -0.269531,0.02344 -0.316406,0.28125 -0.339844,1.40625 -1.183594,2.6015624 -2.800782,3.2695312 -0.164062,0.058594 -0.210937,0.082031 -0.210937,0.1875 0,0.1054687 0.07031,0.1289062 0.210937,0.1875 1.488282,0.6210937 2.449219,1.734375 2.8125,3.3398437 0.03516,0.1757813 0.05859,0.2109375 0.304688,0.2109375 0.105469,0 0.28125,0 0.28125,-0.1640625 0,-0.035156 -0.128906,-0.9375 -0.726563,-1.8984375 -0.292968,-0.4335937 -0.703125,-0.9257812 -1.324218,-1.3945312 z m 0,0"
         style="fill:#0000ff;fill-opacity:1;fill-rule:nonzero;stroke:none" />
      <path
         id="path32"
         d="m 41.533109,-6.7623516 c -0.05859,0.2226563 -0.09375,0.28125 -0.28125,0.4921875 -0.585937,0.7617188 -1.183593,1.0429688 -1.628906,1.0429688 -0.46875,0 -0.914062,-0.375 -0.914062,-1.3710938 0,-0.7617187 0.421875,-2.3671875 0.738281,-3.0117187 0.421875,-0.7968752 1.066406,-1.3710942 1.664062,-1.3710942 0.949219,0 1.136719,1.1718754 1.136719,1.2539067 l -0.04687,0.2109375 z m 0.890625,-3.5625004 c -0.1875,-0.410156 -0.597656,-0.949218 -1.3125,-0.949218 -1.558593,0 -3.339843,1.9687497 -3.339843,4.1015622 0,1.5 0.902343,2.2265625 1.816406,2.2265625 0.761719,0 1.441406,-0.5976563 1.699219,-0.890625 l -0.316407,1.2890625 c -0.199218,0.796875 -0.292968,1.1484375 -0.808593,1.6523437 -0.585938,0.5859375 -1.125,0.5859375 -1.441407,0.5859375 -0.433593,0 -0.796875,-0.023437 -1.148437,-0.140625 0.457031,-0.1289062 0.574219,-0.5273437 0.574219,-0.6914062 0,-0.2226563 -0.175782,-0.4570313 -0.492188,-0.4570313 -0.339844,0 -0.714844,0.2929688 -0.714844,0.7617188 0,0.5859375 0.585938,0.8203125 1.804688,0.8203125 1.851562,0 2.8125,-1.1953125 3,-1.96875 l 1.59375,-6.4218752 c 0.04687,-0.175781 0.04687,-0.199219 0.04687,-0.234375 0,-0.199219 -0.164063,-0.363281 -0.375,-0.363281 -0.351563,0 -0.550781,0.292969 -0.585938,0.679687 z m 0,0"
         style="fill:#0000ff;fill-opacity:1;fill-rule:nonzero;stroke:none" />
      <path
         id="path33"
         d="m 46.443266,-14.886375 c 0.04687,-0.117188 0.09375,-0.210938 0.09375,-0.304688 0,-0.292968 -0.257813,-0.527343 -0.574219,-0.527343 -0.28125,0 -0.457031,0.1875 -0.527344,0.445312 l -1.183594,4.359375 c 0,0.01172 -0.03516,0.128906 -0.03516,0.128906 0,0.117188 0.257813,0.1875 0.339844,0.1875 0.05859,0 0.07031,-0.03516 0.128906,-0.164062 z m 0,0"
         style="fill:#0000ff;fill-opacity:1;fill-rule:nonzero;stroke:none" />
      <path
         id="path34"
         d="m 51.825102,-1.4654766 c 0,-0.035156 0,-0.070312 -0.246094,-0.3046875 -1.429688,-1.453125 -2.238281,-3.8203125 -2.238281,-6.75 0,-2.7773439 0.679687,-5.1796879 2.34375,-6.8671879 0.140625,-0.128906 0.140625,-0.164062 0.140625,-0.199218 0,-0.09375 -0.07031,-0.117188 -0.128907,-0.117188 -0.1875,0 -1.359375,1.03125 -2.0625,2.4375 -0.738281,1.453125 -1.066406,2.988281 -1.066406,4.7460939 0,1.2773438 0.199219,2.9882813 0.949219,4.5234375 0.84375,1.7226563 2.015625,2.6484375 2.179687,2.6484375 0.05859,0 0.128907,-0.023437 0.128907,-0.1171875 z m 0,0"
         style="fill:#0000ff;fill-opacity:1;fill-rule:nonzero;stroke:none" />
      <path
         id="path35"
         d="m 55.941313,-14.543602 c 0.01172,-0.05859 0.03516,-0.140625 0.03516,-0.210937 0,-0.140625 -0.140625,-0.140625 -0.164063,-0.140625 -0.01172,0 -0.539062,0.03516 -0.796875,0.07031 -0.234375,0.01172 -0.457031,0.03516 -0.714843,0.05859 -0.339844,0.02344 -0.445313,0.03516 -0.445313,0.292969 0,0.152344 0.152344,0.152344 0.292969,0.152344 0.726562,0 0.726562,0.128906 0.726562,0.269531 0,0.09375 -0.117187,0.515625 -0.175781,0.773437 l -0.339844,1.371094 c -0.140625,0.574219 -0.960937,3.8320314 -1.019531,4.0898439 -0.07031,0.3632813 -0.07031,0.609375 -0.07031,0.796875 0,1.453125 0.820312,2.2148438 1.746093,2.2148438 1.664063,0 3.386719,-2.1328125 3.386719,-4.21875 0,-1.3124997 -0.738281,-2.2499997 -1.816406,-2.2499997 -0.75,0 -1.417969,0.621093 -1.699219,0.902343 z m -0.902344,9.4570317 c -0.46875,0 -0.960938,-0.3515625 -0.960938,-1.4648438 0,-0.46875 0.03516,-0.75 0.292969,-1.7460937 0.04687,-0.1875 0.28125,-1.1132813 0.328125,-1.3007813 0.03516,-0.1054687 0.878906,-1.3828129 1.851563,-1.3828129 0.632812,0 0.925781,0.632813 0.925781,1.3710942 0,0.6914062 -0.410156,2.3085937 -0.761719,3.0585937 -0.363281,0.7734375 -1.019531,1.4648438 -1.675781,1.4648438 z m 0,0"
         style="fill:#0000ff;fill-opacity:1;fill-rule:nonzero;stroke:none" />
      <path
         id="path36"
         d="m 62.638578,-8.5201641 c 0,-1.0898437 -0.140625,-2.8710939 -0.949219,-4.5351559 -0.84375,-1.710938 -2.015625,-2.648438 -2.179687,-2.648438 -0.05859,0 -0.128906,0.02344 -0.128906,0.117188 0,0.03516 0,0.07031 0.246093,0.316406 1.441407,1.441406 2.238282,3.808594 2.238282,6.7382812 0,2.7773437 -0.667969,5.1796875 -2.332032,6.8671875 -0.152343,0.1289062 -0.152343,0.1640625 -0.152343,0.1992187 0,0.09375 0.07031,0.1171875 0.128906,0.1171875 0.1875,0 1.371094,-1.03125 2.074219,-2.4375 0.726562,-1.4648437 1.054687,-3.0117187 1.054687,-4.734375 z m 0,0"
         style="fill:#0000ff;fill-opacity:1;fill-rule:nonzero;stroke:none" />
      <path
         id="path37"
         d="m 69.871977,-13.972313 c -0.105469,-0.621093 -0.515625,-1.171875 -1.289063,-1.171875 -0.609375,0 -1.253906,0.152344 -2.027344,0.925782 -0.832031,0.832031 -0.902343,1.757812 -0.902343,2.0625 0,0.621093 0.433593,1.78125 1.828125,1.78125 2.378906,0 3.410156,-3.351563 3.410156,-4.769532 0,-1.593749 -0.925781,-2.589843 -2.144531,-2.589843 -1.453125,0 -1.910157,1.300781 -1.910157,1.582031 0,0.140625 0.08203,0.339844 0.375,0.339844 0.339844,0 0.539063,-0.292969 0.539063,-0.527344 0,-0.339844 -0.304688,-0.339844 -0.46875,-0.339844 0.445312,-0.738281 1.148437,-0.796875 1.441406,-0.796875 0.726563,0 1.417969,0.515625 1.417969,1.792969 0,0.398437 -0.05859,0.902344 -0.269531,1.710937 z m -2.355469,3.316407 c -1.101563,0 -1.101563,-1.03125 -1.101563,-1.125 0,-0.269532 0.257813,-1.664063 0.667969,-2.261719 0.398438,-0.574219 0.878906,-0.890625 1.5,-0.890625 1.089844,0 1.101563,1.113281 1.101563,1.3125 0,0.726562 -0.632813,2.964844 -2.167969,2.964844 z m 7.535156,-3.726563 c -0.164062,0 -0.304687,0 -0.445312,0.140625 -0.152344,0.152344 -0.175782,0.316406 -0.175782,0.386719 0,0.234375 0.175782,0.351562 0.363282,0.351562 0.292968,0 0.5625,-0.246093 0.5625,-0.644531 0,-0.480469 -0.46875,-0.855469 -1.171875,-0.855469 -1.347657,0 -2.671875,1.429688 -2.671875,2.835938 0,0.890625 0.574218,1.675781 1.617187,1.675781 1.417969,0 2.261719,-1.054687 2.261719,-1.171875 0,-0.05859 -0.07031,-0.128906 -0.128906,-0.128906 -0.04687,0 -0.07031,0.02344 -0.128907,0.09375 -0.785156,0.996094 -1.875,0.996094 -1.992187,0.996094 -0.621094,0 -0.890625,-0.492188 -0.890625,-1.089844 0,-0.410156 0.199219,-1.371094 0.539062,-1.992188 0.304688,-0.5625 0.855469,-0.996093 1.40625,-0.996093 0.328125,0 0.714844,0.128906 0.855469,0.398437 z m 0,0"
         style="fill:#0000ff;fill-opacity:1;fill-rule:nonzero;stroke:none" />
    </g>
    <path
       id="path38"
       d="M 0,0 H 10.154"
       style="fill:none;stroke:#0000ff;stroke-width:0.398;stroke-linecap:butt;stroke-linejoin:miter;stroke-miterlimit:10;stroke-dasharray:none;stroke-opacity:1"
       transform="matrix(1.3333333,0,0,-1.3333333,414.512,62.657333)" />
    <path
       id="path39"
       d="m 4.6169766,-3.3756328 c -0.1054688,-0.6210938 -0.515625,-1.171875 -1.2890625,-1.171875 -0.609375,0 -1.2539063,0.1523437 -2.0273438,0.9257812 -0.83203124,0.8320313 -0.90234374,1.7578125 -0.90234374,2.0625 0,0.62109379 0.43359375,1.78125004 1.82812504,1.78125004 2.3789062,0 3.4101562,-3.35156254 3.4101562,-4.76953124 0,-1.59375 -0.9257812,-2.5898438 -2.1445312,-2.5898438 -1.453125,0 -1.9101563,1.3007813 -1.9101563,1.5820313 0,0.140625 0.082031,0.3398437 0.375,0.3398437 0.3398438,0 0.5390625,-0.2929687 0.5390625,-0.5273437 0,-0.3398438 -0.3046875,-0.3398438 -0.46875,-0.3398438 0.4453125,-0.7382812 1.1484375,-0.796875 1.4414063,-0.796875 0.7265625,0 1.4179687,0.515625 1.4179687,1.7929688 0,0.3984375 -0.058594,0.9023437 -0.2695312,1.7109375 z m -2.3554688,3.31640624 c -1.1015625,0 -1.1015625,-1.03125004 -1.1015625,-1.12500004 0,-0.2695312 0.2578125,-1.6640625 0.6679688,-2.2617187 0.3984375,-0.5742188 0.8789062,-0.890625 1.5,-0.890625 1.0898437,0 1.1015625,1.1132812 1.1015625,1.3125 0,0.7265625 -0.6328125,2.96484374 -2.1679688,2.96484374 z M 9.7966641,-3.7857891 c -0.1640625,0 -0.3046875,0 -0.4453125,0.140625 -0.1523438,0.1523438 -0.1757813,0.3164063 -0.1757813,0.3867188 0,0.234375 0.1757813,0.3515625 0.3632813,0.3515625 0.2929687,0 0.5625004,-0.2460938 0.5625004,-0.6445313 0,-0.4804687 -0.4687504,-0.8554687 -1.1718754,-0.8554687 -1.3476563,0 -2.671875,1.4296875 -2.671875,2.8359375 0,0.89062499 0.5742187,1.67578124 1.6171875,1.67578124 1.4179687,0 2.2617189,-1.0546875 2.2617189,-1.17187504 0,-0.058594 -0.07031,-0.1289062 -0.128906,-0.1289062 -0.046875,0 -0.070313,0.023437 -0.1289067,0.09375 -0.7851562,0.99609374 -1.875,0.99609374 -1.9921875,0.99609374 -0.6210937,0 -0.890625,-0.4921875 -0.890625,-1.08984374 0,-0.4101563 0.1992188,-1.3710938 0.5390625,-1.9921875 0.3046875,-0.5625 0.8554688,-0.9960938 1.40625,-0.9960938 0.328125,0 0.7148438,0.1289063 0.8554688,0.3984375 z m 0,0"
       style="fill:#0000ff;fill-opacity:1;fill-rule:nonzero;stroke:none"
       aria-label="∂c"
       transform="matrix(1.3333333,0,0,1.3333333,414.512,74.036)" />
    <path
       id="path40"
       d="M 0,0 H 55.89662"
       style="fill:none;stroke:#000000;stroke-width:0.79701;stroke-linecap:butt;stroke-linejoin:miter;stroke-miterlimit:10;stroke-dasharray:none;stroke-opacity:1"
       transform="matrix(1.3333333,0,0,-1.3333333,13.284,44.967493)" />
    <path
       id="path41"
       d="M -2.55046,3.11095 C -2.0845,1.24435 -1.04614,0.36295 0,0 -1.04614,-0.36295 -2.0845,-1.24435 -2.55046,-3.11095"
       style="fill:none;stroke:#000000;stroke-width:0.79701;stroke-linecap:round;stroke-linejoin:round;stroke-miterlimit:10;stroke-dasharray:none;stroke-opacity:1"
       transform="matrix(1.3333333,0,0,-1.3333333,88.34416,44.967493)" />
    <path
       id="path42"
       d="m 4.3135469,-1.7116981 c -0.070312,0.2460937 -0.070312,0.28125 -0.2695313,0.5507812 -0.3164062,0.39843753 -0.9492187,1.01953128 -1.6171875,1.01953128 -0.5859375,0 -0.9140625,-0.5390625 -0.9140625,-1.38281248 0,-0.7851563 0.4335938,-2.390625 0.7148438,-3 0.4804687,-0.9960938 1.1601562,-1.5117188 1.7226562,-1.5117188 0.9375,0 1.125,1.171875 1.125,1.2890625 0,0.011719 -0.035156,0.1992188 -0.058594,0.2226563 z m 0.9257812,-3.6679688 c -0.1640625,-0.375 -0.5507812,-0.9492187 -1.2890625,-0.9492187 -1.6289062,0 -3.37499997,2.0976562 -3.37499997,4.21875 0,1.41796873 0.83203127,2.24999998 1.80468747,2.24999998 0.796875,0 1.4648438,-0.609375 1.8632813,-1.08984375 0.1523437,0.84375 0.8203125,1.08984375 1.2539062,1.08984375 0.4335938,0 0.7734375,-0.2578125 1.03125,-0.7734375 0.234375,-0.48046878 0.4335938,-1.35937498 0.4335938,-1.41796878 0,-0.070312 -0.058594,-0.1289062 -0.1523438,-0.1289062 -0.1289062,0 -0.140625,0.070312 -0.1992187,0.28125 -0.2109375,0.8554687 -0.4804688,1.75781248 -1.078125,1.75781248 -0.4101563,0 -0.4335938,-0.375 -0.4335938,-0.66796875 0,-0.32812503 0.035156,-0.48046873 0.1640625,-1.04296873 0.1054688,-0.3515625 0.1757813,-0.6679688 0.2929688,-1.0898438 0.5273437,-2.15625 0.65625,-2.671875 0.65625,-2.7539062 0,-0.1992188 -0.1523438,-0.3632813 -0.375,-0.3632813 -0.4570313,0 -0.5742188,0.5039063 -0.5976563,0.6796875 z m 0,0"
       style="fill:#000000;fill-opacity:1;fill-rule:nonzero;stroke:none"
       aria-label="a"
       transform="matrix(1.3333333,0,0,1.3333333,46.162667,40.008827)" />
    <path
       id="path43"
       d="m 163.34563,0 h 55.89662"
       style="fill:none;stroke:#000000;stroke-width:0.79701;stroke-linecap:butt;stroke-linejoin:miter;stroke-miterlimit:10;stroke-dasharray:none;stroke-opacity:1"
       transform="matrix(1.3333333,0,0,-1.3333333,13.284,44.967493)" />
    <path
       id="path44"
       d="M -2.55046,3.11095 C -2.0845,1.24435 -1.04614,0.36295 0,0 -1.04614,-0.36295 -2.0845,-1.24435 -2.55046,-3.11095"
       style="fill:none;stroke:#000000;stroke-width:0.79701;stroke-linecap:round;stroke-linejoin:round;stroke-miterlimit:10;stroke-dasharray:none;stroke-opacity:1"
       transform="matrix(1.3333333,0,0,-1.3333333,306.13835,44.967493)" />
    <path
       id="path45"
       d="m 3.3154453,-9.5984169 c 0.011719,-0.058594 0.035156,-0.140625 0.035156,-0.2109375 0,-0.140625 -0.140625,-0.140625 -0.1640625,-0.140625 -0.011719,0 -0.5390625,0.035156 -0.796875,0.070312 -0.234375,0.011719 -0.4570313,0.035156 -0.7148438,0.058594 -0.3398437,0.023437 -0.4453125,0.035156 -0.4453125,0.2929687 0,0.1523438 0.1523438,0.1523438 0.2929688,0.1523438 0.7265625,0 0.7265625,0.1289062 0.7265625,0.2695312 0,0.09375 -0.1171875,0.515625 -0.1757813,0.7734375 l -0.3398437,1.3710938 c -0.140625,0.5742187 -0.96093754,3.8320312 -1.01953129,4.0898437 -0.0703125,0.3632813 -0.0703125,0.609375 -0.0703125,0.796875 0,1.45312503 0.82031249,2.21484378 1.74609379,2.21484378 1.6640625,0 3.3867187,-2.13281248 3.3867187,-4.21874998 0,-1.3125 -0.7382812,-2.25 -1.8164062,-2.25 -0.75,0 -1.4179688,0.6210937 -1.6992188,0.9023437 z m -0.9023437,9.45703128 c -0.46875,0 -0.9609375,-0.3515625 -0.9609375,-1.46484378 0,-0.46875 0.035156,-0.75 0.2929687,-1.7460937 0.046875,-0.1875 0.28125,-1.1132813 0.328125,-1.3007813 0.035156,-0.1054687 0.8789063,-1.3828125 1.8515625,-1.3828125 0.6328125,0 0.9257813,0.6328125 0.9257813,1.3710938 0,0.6914062 -0.4101563,2.3085937 -0.7617188,3.0585937 -0.3632812,0.77343753 -1.0195312,1.46484378 -1.6757812,1.46484378 z m 0,0"
       style="fill:#000000;fill-opacity:1;fill-rule:nonzero;stroke:none"
       aria-label="b"
       transform="matrix(1.3333333,0,0,1.3333333,264.888,40.008827)" />
    <path
       id="path46"
       d="m 326.69127,0 h 55.89662"
       style="fill:none;stroke:#000000;stroke-width:0.79701;stroke-linecap:butt;stroke-linejoin:miter;stroke-miterlimit:10;stroke-dasharray:none;stroke-opacity:1"
       transform="matrix(1.3333333,0,0,-1.3333333,13.284,44.967493)" />
    <path
       id="path47"
       d="M -2.55046,3.11095 C -2.0845,1.24435 -1.04614,0.36295 0,0 -1.04614,-0.36295 -2.0845,-1.24435 -2.55046,-3.11095"
       style="fill:none;stroke:#000000;stroke-width:0.79701;stroke-linecap:round;stroke-linejoin:round;stroke-miterlimit:10;stroke-dasharray:none;stroke-opacity:1"
       transform="matrix(1.3333333,0,0,-1.3333333,523.93253,44.967493)" />
    <path
       id="path48"
       d="m 5.6119609,-5.3913856 c -0.28125,0 -0.4101562,0 -0.609375,0.1640625 -0.082031,0.082031 -0.2460937,0.2929687 -0.2460937,0.5273437 0,0.28125 0.2226562,0.4570313 0.4921875,0.4570313 0.3398437,0 0.7265625,-0.2929688 0.7265625,-0.8671875 0,-0.6796875 -0.65625,-1.21875 -1.640625,-1.21875 -1.8867188,0 -3.76171876,2.0507812 -3.76171876,4.0898437 0,1.25390628 0.77343746,2.37890628 2.23828126,2.37890628 1.9453125,0 3.1875,-1.52343748 3.1875,-1.69921878 0,-0.09375 -0.09375,-0.1640625 -0.1523438,-0.1640625 -0.035156,0 -0.058594,0.011719 -0.1875,0.140625 -0.9140625,1.21875003 -2.2734375,1.44140628 -2.8242187,1.44140628 -0.984375,0 -1.3007813,-0.86718748 -1.3007813,-1.58203128 0,-0.5039062 0.2460938,-1.8867187 0.7617188,-2.8710937 0.375,-0.6679688 1.1484375,-1.4414063 2.0507812,-1.4414063 0.1875,0 0.9726563,0.023437 1.265625,0.6445313 z m 0,0"
       style="fill:#000000;fill-opacity:1;fill-rule:nonzero;stroke:none"
       aria-label="c"
       transform="matrix(1.3333333,0,0,1.3333333,482.63067,40.008827)" />
    <path
       id="path49"
       d="M 383.3849,0 H 327.48828"
       style="fill:none;stroke:#0000ff;stroke-width:0.79701;stroke-linecap:butt;stroke-linejoin:miter;stroke-miterlimit:10;stroke-dasharray:none;stroke-opacity:1"
       transform="matrix(1.3333333,0,0,-1.3333333,13.284,58.251173)" />
    <path
       id="path50"
       d="M -2.55046,3.11095 C -2.0845,1.24435 -1.04614,0.36295 0,0 -1.04614,-0.36295 -2.0845,-1.24435 -2.55046,-3.11095"
       style="fill:none;stroke:#0000ff;stroke-width:0.79701;stroke-linecap:round;stroke-linejoin:round;stroke-miterlimit:10;stroke-dasharray:none;stroke-opacity:1"
       transform="matrix(-1.3333333,0,0,1.3333333,449.40369,58.251173)" />
    <path
       id="path51"
       d="m 4.6161563,-3.3761847 c -0.1054688,-0.6210937 -0.515625,-1.171875 -1.2890625,-1.171875 -0.609375,0 -1.2539063,0.1523438 -2.0273438,0.9257813 -0.83203125,0.8320312 -0.90234375,1.7578125 -0.90234375,2.0625 0,0.62109371 0.43359375,1.78124996 1.82812505,1.78124996 2.3789062,0 3.4101562,-3.35156246 3.4101562,-4.76953126 0,-1.59375 -0.9257812,-2.5898437 -2.1445312,-2.5898437 -1.453125,0 -1.9101563,1.3007812 -1.9101563,1.5820312 0,0.140625 0.082031,0.3398438 0.375,0.3398438 0.3398438,0 0.5390625,-0.2929688 0.5390625,-0.5273438 0,-0.3398437 -0.3046875,-0.3398437 -0.46875,-0.3398437 0.4453125,-0.7382813 1.1484375,-0.796875 1.4414063,-0.796875 0.7265625,0 1.4179687,0.515625 1.4179687,1.7929687 0,0.3984375 -0.058594,0.9023438 -0.2695312,1.7109375 z m -2.3554688,3.31640626 c -1.1015625,0 -1.1015625,-1.03124996 -1.1015625,-1.12499996 0,-0.2695313 0.2578125,-1.6640625 0.6679688,-2.2617188 0.3984375,-0.5742187 0.8789062,-0.890625 1.5,-0.890625 1.0898437,0 1.1015625,1.1132813 1.1015625,1.3125 0,0.7265625 -0.6328125,2.96484376 -2.1679688,2.96484376 z M 9.7958438,-3.7863409 c -0.1640625,0 -0.3046875,0 -0.4453125,0.140625 -0.1523438,0.1523437 -0.1757813,0.3164062 -0.1757813,0.3867187 0,0.234375 0.1757813,0.3515625 0.3632813,0.3515625 0.2929687,0 0.5624997,-0.2460937 0.5624997,-0.6445312 0,-0.4804688 -0.4687497,-0.8554688 -1.1718747,-0.8554688 -1.3476563,0 -2.671875,1.4296875 -2.671875,2.8359375 0,0.89062501 0.5742187,1.67578126 1.6171875,1.67578126 1.4179687,0 2.2617192,-1.0546875 2.2617192,-1.17187496 0,-0.058594 -0.07031,-0.1289063 -0.128907,-0.1289063 -0.046875,0 -0.070312,0.023437 -0.128906,0.09375 -0.7851562,0.99609376 -1.875,0.99609376 -1.9921875,0.99609376 -0.6210937,0 -0.890625,-0.4921875 -0.890625,-1.08984376 0,-0.4101562 0.1992188,-1.3710937 0.5390625,-1.9921875 0.3046875,-0.5625 0.8554688,-0.9960937 1.40625,-0.9960937 0.328125,0 0.7148438,0.1289062 0.8554688,0.3984375 z m 0,0"
       style="fill:#0000ff;fill-opacity:1;fill-rule:nonzero;stroke:none"
       aria-label="∂c"
       transform="matrix(1.3333333,0,0,1.3333333,479.892,72.435173)" />
    <path
       id="path52"
       d="M 0,0 H 10.154"
       style="fill:none;stroke:#0000ff;stroke-width:0.398;stroke-linecap:butt;stroke-linejoin:miter;stroke-miterlimit:10;stroke-dasharray:none;stroke-opacity:1"
       transform="matrix(1.3333333,0,0,-1.3333333,479.892,75.184507)" />
    <path
       id="path53"
       d="M 4.6161563,-3.375505 C 4.5106875,-3.9965987 4.1005313,-4.54738 3.3270938,-4.54738 c -0.609375,0 -1.2539063,0.1523438 -2.0273438,0.9257813 -0.83203125,0.8320312 -0.90234375,1.7578125 -0.90234375,2.0625 0,0.6210937 0.43359375,1.78124995 1.82812505,1.78124995 2.3789062,0 3.4101562,-3.35156245 3.4101562,-4.76953125 0,-1.59375 -0.9257812,-2.5898437 -2.1445312,-2.5898437 -1.453125,0 -1.9101563,1.3007812 -1.9101563,1.5820312 0,0.140625 0.082031,0.3398438 0.375,0.3398438 0.3398438,0 0.5390625,-0.2929688 0.5390625,-0.5273438 0,-0.3398437 -0.3046875,-0.3398437 -0.46875,-0.3398437 0.4453125,-0.7382813 1.1484375,-0.796875 1.4414063,-0.796875 0.7265625,0 1.4179687,0.515625 1.4179687,1.7929687 0,0.3984375 -0.058594,0.9023438 -0.2695312,1.7109375 z m -2.3554688,3.31640625 c -1.1015625,0 -1.1015625,-1.03124995 -1.1015625,-1.12499995 0,-0.2695313 0.2578125,-1.6640625 0.6679688,-2.2617188 0.3984375,-0.5742187 0.8789062,-0.890625 1.5,-0.890625 1.0898437,0 1.1015625,1.1132813 1.1015625,1.3125 0,0.7265625 -0.6328125,2.96484375 -2.1679688,2.96484375 z M 9.7958438,-3.7856612 c -0.1640625,0 -0.3046875,0 -0.4453125,0.140625 C 9.1981875,-3.4926925 9.17475,-3.32863 9.17475,-3.2583175 c 0,0.234375 0.1757813,0.3515625 0.3632813,0.3515625 0.2929687,0 0.5624997,-0.2460937 0.5624997,-0.6445312 0,-0.4804688 -0.4687497,-0.8554688 -1.1718747,-0.8554688 -1.3476563,0 -2.671875,1.4296875 -2.671875,2.8359375 0,0.890625 0.5742187,1.67578125 1.6171875,1.67578125 1.4179687,0 2.2617192,-1.0546875 2.2617192,-1.17187495 0,-0.058594 -0.07031,-0.1289063 -0.128907,-0.1289063 -0.046875,0 -0.070312,0.023437 -0.128906,0.09375 -0.7851562,0.99609375 -1.875,0.99609375 -1.9921875,0.99609375 -0.6210937,0 -0.890625,-0.4921875 -0.890625,-1.08984375 0,-0.4101562 0.1992188,-1.3710937 0.5390625,-1.9921875 0.3046875,-0.5625 0.8554688,-0.9960937 1.40625,-0.9960937 0.328125,0 0.7148438,0.1289062 0.8554688,0.3984375 z m 0,0"
       style="fill:#0000ff;fill-opacity:1;fill-rule:nonzero;stroke:none"
       aria-label="∂c"
       transform="matrix(1.3333333,0,0,1.3333333,479.892,86.563173)" />
    <path
       id="path54"
       d="M 220.03926,0 H 164.14264"
       style="fill:none;stroke:#0000ff;stroke-width:0.79701;stroke-linecap:butt;stroke-linejoin:miter;stroke-miterlimit:10;stroke-dasharray:none;stroke-opacity:1"
       transform="matrix(1.3333333,0,0,-1.3333333,13.284,58.251173)" />
    <path
       id="path55"
       d="M -2.55046,3.11095 C -2.0845,1.24435 -1.04614,0.36295 0,0 -1.04614,-0.36295 -2.0845,-1.24435 -2.55046,-3.11095"
       style="fill:none;stroke:#0000ff;stroke-width:0.79701;stroke-linecap:round;stroke-linejoin:round;stroke-miterlimit:10;stroke-dasharray:none;stroke-opacity:1"
       transform="matrix(-1.3333333,0,0,1.3333333,231.60952,58.251173)" />
    <path
       id="path56"
       d="m 4.6173594,-3.3761847 c -0.1054688,-0.6210937 -0.515625,-1.171875 -1.2890625,-1.171875 -0.609375,0 -1.2539063,0.1523438 -2.0273438,0.9257813 -0.83203122,0.8320312 -0.90234372,1.7578125 -0.90234372,2.0625 0,0.62109371 0.43359375,1.78124996 1.82812502,1.78124996 2.3789062,0 3.4101562,-3.35156246 3.4101562,-4.76953126 0,-1.59375 -0.9257812,-2.5898437 -2.1445312,-2.5898437 -1.453125,0 -1.9101563,1.3007812 -1.9101563,1.5820312 0,0.140625 0.082031,0.3398438 0.375,0.3398438 0.3398438,0 0.5390625,-0.2929688 0.5390625,-0.5273438 0,-0.3398437 -0.3046875,-0.3398437 -0.46875,-0.3398437 0.4453125,-0.7382813 1.1484375,-0.796875 1.4414063,-0.796875 0.7265625,0 1.4179687,0.515625 1.4179687,1.7929687 0,0.3984375 -0.058594,0.9023438 -0.2695312,1.7109375 z m -2.3554688,3.31640626 c -1.1015625,0 -1.1015625,-1.03124996 -1.1015625,-1.12499996 0,-0.2695313 0.2578125,-1.6640625 0.6679688,-2.2617188 0.3984375,-0.5742187 0.8789062,-0.890625 1.5,-0.890625 1.0898437,0 1.1015625,1.1132813 1.1015625,1.3125 0,0.7265625 -0.6328125,2.96484376 -2.1679688,2.96484376 z M 9.7970469,-3.7863409 c -0.1640625,0 -0.3046875,0 -0.4453125,0.140625 -0.1523438,0.1523437 -0.1757813,0.3164062 -0.1757813,0.3867187 0,0.234375 0.1757813,0.3515625 0.3632813,0.3515625 0.2929687,0 0.5624996,-0.2460937 0.5624996,-0.6445312 0,-0.4804688 -0.4687496,-0.8554688 -1.1718746,-0.8554688 -1.3476563,0 -2.671875,1.4296875 -2.671875,2.8359375 0,0.89062501 0.5742187,1.67578126 1.6171875,1.67578126 1.4179687,0 2.2617191,-1.0546875 2.2617191,-1.17187496 0,-0.058594 -0.07031,-0.1289063 -0.128907,-0.1289063 -0.046875,0 -0.070312,0.023437 -0.1289059,0.09375 -0.7851562,0.99609376 -1.875,0.99609376 -1.9921875,0.99609376 -0.6210937,0 -0.890625,-0.4921875 -0.890625,-1.08984376 0,-0.4101562 0.1992188,-1.3710937 0.5390625,-1.9921875 0.3046875,-0.5625 0.8554688,-0.9960937 1.40625,-0.9960937 0.328125,0 0.7148438,0.1289062 0.8554688,0.3984375 z m 0,0"
       style="fill:#0000ff;fill-opacity:1;fill-rule:nonzero;stroke:none"
       aria-label="∂c"
       transform="matrix(1.3333333,0,0,1.3333333,262.10133,72.435173)" />
    <path
       id="path57"
       d="M 0,0 H 10.154"
       style="fill:none;stroke:#0000ff;stroke-width:0.398;stroke-linecap:butt;stroke-linejoin:miter;stroke-miterlimit:10;stroke-dasharray:none;stroke-opacity:1"
       transform="matrix(1.3333333,0,0,-1.3333333,262.10133,75.184507)" />
    <path
       id="path58"
       d="M 4.6179375,-3.375505 C 4.5124688,-3.9965987 4.1023125,-4.54738 3.328875,-4.54738 c -0.609375,0 -1.2539062,0.1523438 -2.0273437,0.9257813 -0.8320313,0.8320312 -0.9023438,1.7578125 -0.9023438,2.0625 0,0.6210937 0.43359375,1.78124995 1.828125,1.78124995 2.3789063,0 3.4101563,-3.35156245 3.4101563,-4.76953125 0,-1.59375 -0.9257813,-2.5898437 -2.1445313,-2.5898437 -1.453125,0 -1.9101562,1.3007812 -1.9101562,1.5820312 0,0.140625 0.082031,0.3398438 0.375,0.3398438 0.3398437,0 0.5390625,-0.2929688 0.5390625,-0.5273438 0,-0.3398437 -0.3046875,-0.3398437 -0.46875,-0.3398437 0.4453125,-0.7382813 1.1484375,-0.796875 1.4414062,-0.796875 0.7265625,0 1.4179688,0.515625 1.4179688,1.7929687 0,0.3984375 -0.058594,0.9023438 -0.2695313,1.7109375 z m -2.3554687,3.31640625 c -1.1015625,0 -1.1015625,-1.03124995 -1.1015625,-1.12499995 0,-0.2695313 0.2578125,-1.6640625 0.6679687,-2.2617188 0.3984375,-0.5742187 0.8789063,-0.890625 1.5,-0.890625 1.0898438,0 1.1015625,1.1132813 1.1015625,1.3125 0,0.7265625 -0.6328125,2.96484375 -2.1679687,2.96484375 z M 8.2273125,-6.8090987 c 0,0 0,-0.1054688 -0.1289062,-0.1054688 -0.2226563,0 -0.9492188,0.082031 -1.21875,0.1054688 -0.070312,0 -0.1875,0.011719 -0.1875,0.1992187 0,0.1171875 0.09375,0.1171875 0.2460937,0.1171875 0.46875,0 0.4921875,0.070312 0.4921875,0.1640625 0,0.070312 -0.082031,0.4101563 -0.140625,0.6210938 l -0.8085937,3.2460937 c -0.1289063,0.5039063 -0.1640625,0.65625 -0.1640625,1.0078125 0,0.94921875 0.5273437,1.55859375 1.265625,1.55859375 1.171875,0 2.4023437,-1.47656245 2.4023437,-2.91796875 0,-0.9023437 -0.5273437,-1.59375 -1.3242187,-1.59375 -0.4570313,0 -0.8671875,0.2929688 -1.171875,0.5976563 z m -0.9375,3.7734375 c 0.058594,-0.2226563 0.058594,-0.2460938 0.1523438,-0.3515625 0.4921875,-0.6445313 0.9375,-0.796875 1.1953125,-0.796875 0.3632812,0 0.6328125,0.2929687 0.6328125,0.9375 0,0.5859375 -0.328125,1.734375 -0.515625,2.109375 -0.328125,0.6679687 -0.7851563,1.03124995 -1.171875,1.03124995 -0.3398438,0 -0.6679688,-0.26953125 -0.6679688,-1.00781245 0,-0.1875 0,-0.3867188 0.1640625,-1.0078125 z m 0,0"
       style="fill:#0000ff;fill-opacity:1;fill-rule:nonzero;stroke:none"
       aria-label="∂b"
       transform="matrix(1.3333333,0,0,1.3333333,262.124,86.563173)" />
    <path
       id="path59"
       d="M 56.69363,0 H 0.797"
       style="fill:none;stroke:#0000ff;stroke-width:0.79701;stroke-linecap:butt;stroke-linejoin:miter;stroke-miterlimit:10;stroke-dasharray:none;stroke-opacity:1"
       transform="matrix(1.3333333,0,0,-1.3333333,13.284,58.251173)" />
    <path
       id="path60"
       d="M -2.55046,3.11095 C -2.0845,1.24435 -1.04614,0.36295 0,0 -1.04614,-0.36295 -2.0845,-1.24435 -2.55046,-3.11095"
       style="fill:none;stroke:#0000ff;stroke-width:0.79701;stroke-linecap:round;stroke-linejoin:round;stroke-miterlimit:10;stroke-dasharray:none;stroke-opacity:1"
       transform="matrix(-1.3333333,0,0,1.3333333,13.815333,58.251173)" />
    <path
       id="path61"
       d="m 4.6166328,-3.3761847 c -0.1054687,-0.6210937 -0.515625,-1.171875 -1.2890625,-1.171875 -0.609375,0 -1.2539062,0.1523438 -2.0273437,0.9257813 -0.83203129,0.8320312 -0.90234379,1.7578125 -0.90234379,2.0625 0,0.62109371 0.43359375,1.78124996 1.82812499,1.78124996 2.3789063,0 3.4101563,-3.35156246 3.4101563,-4.76953126 0,-1.59375 -0.9257813,-2.5898437 -2.1445313,-2.5898437 -1.453125,0 -1.9101562,1.3007812 -1.9101562,1.5820312 0,0.140625 0.082031,0.3398438 0.375,0.3398438 0.3398437,0 0.5390625,-0.2929688 0.5390625,-0.5273438 0,-0.3398437 -0.3046875,-0.3398437 -0.46875,-0.3398437 0.4453125,-0.7382813 1.1484375,-0.796875 1.4414062,-0.796875 0.7265625,0 1.4179688,0.515625 1.4179688,1.7929687 0,0.3984375 -0.058594,0.9023438 -0.2695313,1.7109375 z m -2.3554687,3.31640626 c -1.1015625,0 -1.1015625,-1.03124996 -1.1015625,-1.12499996 0,-0.2695313 0.2578125,-1.6640625 0.6679687,-2.2617188 0.3984375,-0.5742187 0.8789063,-0.890625 1.5,-0.890625 1.0898438,0 1.1015625,1.1132813 1.1015625,1.3125 0,0.7265625 -0.6328125,2.96484376 -2.1679687,2.96484376 z M 9.7963203,-3.7863409 c -0.1640625,0 -0.3046875,0 -0.4453125,0.140625 -0.1523437,0.1523437 -0.1757812,0.3164062 -0.1757812,0.3867187 0,0.234375 0.1757812,0.3515625 0.3632812,0.3515625 0.2929688,0 0.5625002,-0.2460937 0.5625002,-0.6445312 0,-0.4804688 -0.4687502,-0.8554688 -1.1718752,-0.8554688 -1.3476562,0 -2.671875,1.4296875 -2.671875,2.8359375 0,0.89062501 0.5742188,1.67578126 1.6171875,1.67578126 1.4179688,0 2.2617187,-1.0546875 2.2617187,-1.17187496 0,-0.058594 -0.07031,-0.1289063 -0.128906,-0.1289063 -0.046875,0 -0.070313,0.023437 -0.1289064,0.09375 -0.7851563,0.99609376 -1.875,0.99609376 -1.9921875,0.99609376 -0.6210938,0 -0.890625,-0.4921875 -0.890625,-1.08984376 0,-0.4101562 0.1992187,-1.3710937 0.5390625,-1.9921875 0.3046875,-0.5625 0.8554687,-0.9960937 1.40625,-0.9960937 0.328125,0 0.7148437,0.1289062 0.8554687,0.3984375 z m 0,0"
       style="fill:#0000ff;fill-opacity:1;fill-rule:nonzero;stroke:none"
       aria-label="∂c"
       transform="matrix(1.3333333,0,0,1.3333333,44.309333,72.435173)" />
    <path
       id="path62"
       d="M 0,0 H 11.109"
       style="fill:none;stroke:#0000ff;stroke-width:0.398;stroke-linecap:butt;stroke-linejoin:miter;stroke-miterlimit:10;stroke-dasharray:none;stroke-opacity:1"
       transform="matrix(1.3333333,0,0,-1.3333333,43.673333,75.184507)" />
    <path
       id="path63"
       d="M 4.6160938,-3.374505 C 4.510625,-3.9955987 4.1004688,-4.54638 3.3270313,-4.54638 c -0.609375,0 -1.2539063,0.1523438 -2.0273438,0.9257813 -0.83203125,0.8320312 -0.90234375,1.7578125 -0.90234375,2.0625 0,0.6210937 0.43359375,1.78124995 1.82812505,1.78124995 2.3789062,0 3.4101562,-3.35156245 3.4101562,-4.76953125 0,-1.59375 -0.9257812,-2.5898437 -2.1445312,-2.5898437 -1.453125,0 -1.9101563,1.3007812 -1.9101563,1.5820312 0,0.140625 0.082031,0.3398438 0.375,0.3398438 0.3398438,0 0.5390625,-0.2929688 0.5390625,-0.5273438 0,-0.3398437 -0.3046875,-0.3398437 -0.46875,-0.3398437 0.4453125,-0.7382813 1.1484375,-0.796875 1.4414063,-0.796875 0.7265625,0 1.4179687,0.515625 1.4179687,1.7929687 0,0.3984375 -0.058594,0.9023438 -0.2695312,1.7109375 z M 2.260625,-0.05809875 c -1.1015625,0 -1.1015625,-1.03124995 -1.1015625,-1.12499995 0,-0.2695313 0.2578125,-1.6640625 0.6679688,-2.2617188 0.3984375,-0.5742187 0.8789062,-0.890625 1.5,-0.890625 1.0898437,0 1.1015625,1.1132813 1.1015625,1.3125 0,0.7265625 -0.6328125,2.96484375 -2.1679688,2.96484375 z M 9.5614063,-3.7612237 c -0.1757813,-0.375 -0.46875,-0.6445313 -0.9140625,-0.6445313 -1.171875,0 -2.4023438,1.4648438 -2.4023438,2.9179688 0,0.93749995 0.5507813,1.59374995 1.3242188,1.59374995 0.1992187,0 0.703125,-0.03515625 1.3007812,-0.73828125 0.070312,0.41015625 0.421875,0.73828125 0.9023438,0.73828125 0.3515622,0 0.5742192,-0.22265625 0.7382812,-0.5390625 0.164063,-0.36328125 0.292969,-0.97265625 0.292969,-0.99609375 0,-0.09375 -0.08203,-0.09375 -0.117188,-0.09375 -0.09375,0 -0.105468,0.035156 -0.140625,0.1757813 -0.164062,0.6445312 -0.351562,1.24218745 -0.7499997,1.24218745 -0.2695313,0 -0.3046875,-0.2578125 -0.3046875,-0.45703125 0,-0.22265625 0.023437,-0.3046875 0.1289062,-0.7382812 C 9.7371875,-1.7221612 9.7489063,-1.82763 9.8426563,-2.20263 l 0.3515627,-1.3945312 c 0.07031,-0.28125 0.07031,-0.2929688 0.07031,-0.3398438 0,-0.1640625 -0.117187,-0.2695312 -0.2812497,-0.2695312 -0.2460938,0 -0.3867188,0.2226562 -0.421875,0.4453125 z M 8.916875,-1.1830987 C 8.87,-1.0073175 8.87,-0.98388 8.7176563,-0.8198175 c -0.4453125,0.55078125 -0.84375,0.71484375 -1.125,0.71484375 -0.5039063,0 -0.6445313,-0.55078125 -0.6445313,-0.93749995 0,-0.5039063 0.328125,-1.7226563 0.5507813,-2.1796875 0.3046875,-0.5976563 0.7617187,-0.9609375 1.1601562,-0.9609375 0.6445313,0 0.7851563,0.8203125 0.7851563,0.8789062 0,0.058594 -0.023437,0.1171875 -0.035156,0.1640625 z m 0,0"
       style="fill:#0000ff;fill-opacity:1;fill-rule:nonzero;stroke:none"
       aria-label="∂a"
       transform="matrix(1.3333333,0,0,1.3333333,43.673333,86.56184)" />
  </g>
</svg>
